<mxfile host="65bd71144e">
    <diagram id="YUYHI6B7b6BnkWllYwxA" name="Page-1">
        <mxGraphModel dx="640" dy="396" grid="1" gridSize="10" guides="1" tooltips="1" connect="1" arrows="1" fold="1" page="1" pageScale="1" pageWidth="827" pageHeight="1169" math="0" shadow="0">
            <root>
                <mxCell id="0"/>
                <mxCell id="1" parent="0"/>
                <mxCell id="3" value="&lt;font style=&quot;color: rgb(0, 149, 135);&quot;&gt;Power&lt;/font&gt;" style="sketch=0;html=1;aspect=fixed;strokeColor=none;shadow=0;fillColor=light-dark(#009587, #3f85db);verticalAlign=top;labelPosition=center;verticalLabelPosition=bottom;shape=mxgraph.gcp2.a7_power;fontStyle=1;fontSize=16;" parent="1" vertex="1">
                    <mxGeometry x="70" y="60" width="80" height="80" as="geometry"/>
                </mxCell>
                <mxCell id="11" value="" style="group" parent="1" vertex="1" connectable="0">
                    <mxGeometry x="200" y="62.5" width="75" height="75" as="geometry"/>
                </mxCell>
                <mxCell id="9" value="" style="dashed=0;labelPosition=right;align=left;shape=mxgraph.gmdl.radiobutton;strokeColor=#009587;fillColor=#009587;strokeWidth=6;aspect=fixed;sketch=0;html=1;" parent="11" vertex="1">
                    <mxGeometry width="75" height="75" as="geometry"/>
                </mxCell>
                <mxCell id="10" value="&lt;b&gt;&lt;font style=&quot;font-size: 16px; color: rgb(255, 255, 255);&quot;&gt;0 / 1&lt;/font&gt;&lt;/b&gt;" style="text;html=1;align=center;verticalAlign=middle;whiteSpace=wrap;rounded=0;fontColor=#FFFFFF;" parent="11" vertex="1">
                    <mxGeometry x="7.5" y="22.5" width="60" height="30" as="geometry"/>
                </mxCell>
                <mxCell id="14" style="edgeStyle=none;html=1;entryX=-0.033;entryY=0.503;entryDx=0;entryDy=0;entryPerimeter=0;strokeWidth=2;strokeColor=light-dark(#009587, #ededed);" parent="1" source="3" target="9" edge="1">
                    <mxGeometry relative="1" as="geometry"/>
                </mxCell>
                <mxCell id="15" value="&lt;b&gt;&lt;font style=&quot;font-size: 16px; color: rgb(0, 149, 135);&quot;&gt;Read&lt;/font&gt;&lt;/b&gt;" style="rhombus;whiteSpace=wrap;html=1;fillColor=#d5e8d4;strokeWidth=3;strokeColor=light-dark(#009587, #ededed);" parent="1" vertex="1">
                    <mxGeometry x="334" y="60" width="80" height="80" as="geometry"/>
                </mxCell>
                <mxCell id="16" value="&lt;b&gt;&lt;font style=&quot;font-size: 16px; color: rgb(0, 149, 135);&quot;&gt;Button&lt;/font&gt;&lt;/b&gt;" style="text;html=1;align=center;verticalAlign=middle;whiteSpace=wrap;rounded=0;fontColor=#FFFFFF;" parent="1" vertex="1">
                    <mxGeometry x="207.5" y="143" width="60" height="30" as="geometry"/>
                </mxCell>
                <mxCell id="17" style="edgeStyle=none;html=1;entryX=0;entryY=0.5;entryDx=0;entryDy=0;strokeWidth=2;strokeColor=light-dark(#009587, #ededed);" parent="1" source="9" target="15" edge="1">
                    <mxGeometry relative="1" as="geometry">
                        <mxPoint x="310" y="30" as="sourcePoint"/>
                        <mxPoint x="208" y="110" as="targetPoint"/>
                    </mxGeometry>
                </mxCell>
                <mxCell id="18" value="" style="endArrow=none;html=1;strokeWidth=2;exitX=1;exitY=0.5;exitDx=0;exitDy=0;strokeColor=light-dark(#009587, #ededed);entryX=0;entryY=0.5;entryDx=0;entryDy=0;" parent="1" source="15" edge="1" target="34">
                    <mxGeometry width="50" height="50" relative="1" as="geometry">
                        <mxPoint x="210" y="190" as="sourcePoint"/>
                        <mxPoint x="480" y="100" as="targetPoint"/>
                        <Array as="points">
                            <mxPoint x="450" y="100"/>
                            <mxPoint x="450" y="140"/>
                        </Array>
                    </mxGeometry>
                </mxCell>
                <mxCell id="20" value="&amp;nbsp;1&amp;nbsp;" style="edgeLabel;html=1;align=center;verticalAlign=middle;resizable=0;points=[];fontStyle=1;fontSize=16;fontColor=light-dark(#009587, #ededed);" parent="18" vertex="1" connectable="0">
                    <mxGeometry x="-0.0741" relative="1" as="geometry">
                        <mxPoint y="7" as="offset"/>
                    </mxGeometry>
                </mxCell>
                <mxCell id="19" value="" style="endArrow=none;html=1;strokeWidth=2;exitX=0.5;exitY=1;exitDx=0;exitDy=0;strokeColor=light-dark(#009587, #ededed);entryX=0.5;entryY=0;entryDx=0;entryDy=0;edgeStyle=orthogonalEdgeStyle;" parent="1" source="15" edge="1" target="45">
                    <mxGeometry width="50" height="50" relative="1" as="geometry">
                        <mxPoint x="424" y="110" as="sourcePoint"/>
                        <mxPoint x="374" y="180" as="targetPoint"/>
                    </mxGeometry>
                </mxCell>
                <mxCell id="21" value="&amp;nbsp;0&amp;nbsp;" style="edgeLabel;html=1;align=center;verticalAlign=middle;resizable=0;points=[];fontStyle=1;fontSize=16;fontColor=light-dark(#009587, #ededed);" parent="19" vertex="1" connectable="0">
                    <mxGeometry x="0.0317" y="-1" relative="1" as="geometry">
                        <mxPoint as="offset"/>
                    </mxGeometry>
                </mxCell>
                <mxCell id="43" style="edgeStyle=none;html=1;strokeWidth=2;strokeColor=#009587;" edge="1" parent="1" source="34" target="42">
                    <mxGeometry relative="1" as="geometry"/>
                </mxCell>
                <mxCell id="34" value="" style="rounded=0;whiteSpace=wrap;html=1;strokeWidth=2;strokeColor=light-dark(#009587, #ededed);" vertex="1" parent="1">
                    <mxGeometry x="480" y="67" width="180" height="145" as="geometry"/>
                </mxCell>
                <mxCell id="35" value="&lt;font style=&quot;color: rgb(0, 122, 255);&quot;&gt;WiFi&lt;/font&gt;" style="html=1;strokeWidth=1;shadow=0;dashed=0;shape=mxgraph.ios7.misc.wifi;fillColor=#007AFF;strokeColor=none;buttonText=;strokeColor2=#222222;fontColor=#222222;fontSize=8;verticalLabelPosition=bottom;verticalAlign=top;align=center;sketch=0;fontStyle=1" vertex="1" parent="1">
                    <mxGeometry x="560" y="76" width="40" height="40" as="geometry"/>
                </mxCell>
                <mxCell id="36" value="MQTT" style="shape=image;verticalLabelPosition=bottom;labelBackgroundColor=default;verticalAlign=top;aspect=fixed;imageAspect=0;image=data:image/png,iVBORw0KGgoAAAANSUhEUgAAApsAAAKcCAYAAACnl3HcAAAACXBIWXMAABcRAAAXEQHKJvM/AAAgAElEQVR4nO3dDXSV5Znv/yckYHaKDQlbgjQRJtUUB6YJmb+VCtqgDtBaKhDOaqEnjKfgSsF2oUZq1GhRIgYxviwVzJJYS85oXYfwUmtLqEpEcbDOxKSDSxprCiZlBPNC0CYRA/mvK2U7EXnZ2ft59nO/fD9rda32nAGy7yfZ+e37vq/riuvr63MAAAAALwxhVQEAAOAVwiYAAAA8Q9gEAACAZwibAAAA8AxhEwAAAJ4hbAIAAMAzhE0AAAB4hrAJAAAAzxA2AQAA4BnCJgAAADxD2AQAAIBnCJsAAADwDGETAAAAniFsAgAAwDMJOixtYVxhnuM4IxzHyVHgywG0cdHlF42fu3ruB5nfzDzMUwMi96uf/iprx2M7GllCKKTecZzDFX0Vtao/lLi+vj4FvozPK4wrnO04Tt6J/2Sr9LUBOkrJSGnNW5oXf8WPr0hJGpHEMwQGqetwl7NuzrrWxtrGIGsHBTU4jiOhs7air2KLal+eMmGzMK5Qdi1vdBxHgmayAl8SYKTMyZnNM26dkZEzm4MCYLDqquu6KhdUxvUe7Q2weFBUp+M4EjifVmXX0/eweeKIfIXjON/y9QsBLJMwLKF7wrcnHJm1YlZaRk4Gjx8IU9u+Nmft7LWtLQ0t7HJCdbLj+XBFX8XTfn6dvoVNQiagDo7ZgcHb/sD2nurl1YksHTQgofNGv3Y6Yx42C+MKR5wImcti+g8DCAvH7ED4muubnce/93hrR3MHu5zQwVbHca6r6KuIadFoTMPmiXuZco9gbMz+UQARCSQHOnLn5R67puSa4MhxI1lE4DSkeGjjLRtbd1XuInBCB3Knc3YsdzljFjYL4wqvcxznFzH5xwC4aszEMQevWnbVl6cunkpRBHAajbWNziMzH+np/aSXo3Xo4O6KvooVsfg6YxI2C+MK5WLqv3r+DwHwlBQVXVpw6d/Y7QROjRZJ0MwvK/oqrvP6S/Y8bBI0ATOx2wmcnhQPbbl9y/Fjnx6j4g6q8zxweho2CZqA+djtBE6N4iFoxNPA6VnYLIwrlHsAP/fkLwegJCrZgS/asHgDxUPQgWeB05OweWLc5GbX/2IAWpBK9it+fMWQmcUzk+nbCZyYPPTDyiEUD0FxN1X0VTzs9pfoetgsjCscd2I4PCMnATgTvzOxecbyGRlZeVksBqwmxUPleeVMHoLqJlX0VdS7+TV6ETZrmQoE4GQypei7d333SxQUwXZMHoLi9juOk+Nm43dXw2ZhXOGNjuM85NpfCMA4UlB01U1XHf3Wj7+VTEERbCXFQw9e+WBnV0cXp4BQkas9OF0LmyfGUO7j+BxAuDhih83oyQnF/UNFX8U+N75EN8Pmw8w7BxAJenbCZq+tf637maXP9NGTE4pxrTrdlbB5oijoL2qtEQDdUMUOW9GTE4pyZXdziEuvzfNRRwDM193ZnVKzuiZ5edry7rWz1x5s29fGU4cVMnIynLv+eFcwNz+3nScOhbhyb9Otnc3D3NUE4AXudcI2/T05F1TG9R7t5VoJVJASbWV61GGTBu4AYkHudV678to0phPBBrKrX55X3t62vy2VBw6fRd3o3Y1j9Nl8FwDw2oE9B9LWzVnn3JR6U6cUVLDgMJm0BVu1b1XqlEVTWnnQ8FnUVyXd2NnkCB1AzIX6dVJMBNNxrA4FRHWUHlXYLIwrzHMcZwffBQD8QpN42IBjdfhsTkVfxZZIv4Roj9HzePoA/CS7PVLBfvs/3O5QwQ5TyQepkvqSVKrV4ZOo8l60YZOb+gCU0bC1IY3QCVPJdZHCjYWpBU8WdMcPje/iQSOGosp70R6j1zuOk83TBqCizMmZzXPum0PbJBiHJvCItYq+irhI/8low6Y7sy4BwEPSNmn+o/PTCJ0wicxWr1pc1V5XXcc9TniOsAkAYSB0wkTbH9jeU728OpGHC49Nq+irqI3kn4g4bBbGFcr5/Vs8WQC6IXTCNHKs/uCVD3Z2dXTRihBeiThsRlMgNILHCUBH0iC+fFq5c/c/3X2wsbaRZwjtyWz1e5vuTU7PTqcJPJTjxgQhANASoRMmkWr1O+vvDM64dUYnDxYqIWwCsB6hEyaZWzY3uXBjYZcMPODBQgWETQA4gdAJU+Tm5ybd86d7AiPHjqQJPHxH2ASAkxA6YQKmDkEVhE0AOA1CJ3QXmjqUvya/h4cJvxA2AeAsQqGzfFp5K2MwoaPpt0xPLHmrxEk4J4HQiZgjbAJAmBprG4PMXoeupD3Smg/WJHKPE7FG2ASAQWrY2pAWCp0yMhDQhRyrr9q3inuciCnCJgBESELn8rTl3ZuKN3USOqETucdZ8GQBrZEQE4RNAIhC79HeQM3qmuRQ6GQtoYupi6cGuMeJWCBsAoALQqHzptSbOl9b/xo7RtAC9zgRC4RNAHBRV0dXctX1VQEJnbRLgg64xwmvETYBwAMSOkM9Opvrm1liKI9+nPAKYRMAPCQ9OksnldIuCVqQfpxFO4oc5qrDTYRNAIiBULskKtehuqy8LKf4jeJASkZKKw8LbiBsAkAM9Veuj17eQxERVCaFQ3f98a5gVl4WgRNRI2wCQIz1ftKbSBERVCeFQ0U7ioJTFk0hcCIqhE0A8EmoiGhlzkpmrkNZC9cvDNIAHtEgbAKAz1oaWvpnrm9YvKGV+5xQ0WcN4CkcQgQImwCgiF2Vu4IyiWj7A9tpPwPlyD3Oe/50T4AG8BgswiYAKEQmEVUvr07kPidUNHLcSKekviSVwiEMBmETABQUus9ZPq2c+5xQSqhwiIlDCBdhEwAU1ljbGKQ/J1QkE4coHEI4CJsAoAHpz3lH5h2dddV1JE4oQwqHCjcWdlE4hDMhbAKAJuRovWJeRRKtkqCS3PzcJJk4lJSS1MmDwakQNgFAM6FWSRytQxVSqX5v073JVKrjVAibAKApjtahEikcolIdp0LYBACNcbQOlVCpjlMhbAKAAThah0qoVMdAhE0AMEjoaJ2G8PCbVKpL4IwfGs+nH8sRNgHAMDSEhyokcN72h9uSaI1kt7i+vr6IFqDyh5Xf2feHfWvD+b9tf799lIxgs32xASDWZFdp9qrZQ6bfMj2RxYdfmuubnce/93hrR3NHkIegrWkVfRW1kXzxEYdNx3HyHMfZ4caKySfvU336btrd1HH4wOEjA//f9r+5f8jHrR8fD/3vIwePDO/5qGekG18HAJgqJSOl9YZf3xCUFjWAH+QucWlOaXvb/rZUHoCW9A6bbpJPT92H/75bf+jPh7pb/thySP57d2d3QtPrTb3y3492HU08fOBwmmpfOwB4bcqiKa3zHpgXlKphINYkcK6bs65VxrCy+NohbEZKvvFb6lv6/3RoJ1WC6b4/7HOO9x7v5QoAANPIpJclm5YkZ+Vl8Wzhi4p5Fe111XXscOqFsOm1gaG04fmGg8c+PdYTOtInkALQkTTfXrJ5Cbuc8IW06ZLuCay+NgibKggd4Yd2SAmjAFSXcE5Cz/zH5vdJ1TAPC7H22vrXuquur+J7Tw+ETR1I3zvZId378t79H7734ZBDjYcIogCUkJ6d3rp0y9LgyHHUWyK2JHA+s/SZvmOfHmOLXW2ETd0NDKKhHdFDfz401vZ1ARA7tEmCX+RksOzSsm42X5RG2DRVqC2U3BP9YO8HR2U3lBAKwEvscsIPBE7lETZtMzCENr3edLT9/fZhtHMC4KYZt87onFs2lwIOxAzN35VG2MTfyQ/q/v/Y3/3uq++2S19R7oQCiAbN4BFrNH9XFmETpyc7oBJC5T7oO79/J6G1qTWVAApgMNjlRCwROJVE2MTgEEABDBa7nIglpg0ph7CJ6IUC6Fub3/qrHMFTiATgVNjlRCwxbUgZhE14Q8Ln29ve7nj31Xc/fm/Xe8O7O7tTWGoA7HIilgicSiBsIjbkWEN6grL7CUDkr8nvoS8nYoHA6TvCJvwj4VNaMO357Z5e7n4C9qEvJ2KF8Za+ImxCHaGj94atDR+/X/d+kPAJmI/pQ4gVAqdvCJtQF+ETsIfschbVFgWTRjDmGt4hcPqCsAl9hMLnv//y37s+2PvBV3h0gFkSzknoWfRvi47n5ueSOOEZAmfMETahr9Cdz//8f/8Zz4gywBy5+bntBesLUtnlhFcInDFF2IQZQtXurz75ajOtlgD9JaUkdS7ZtCQ5Ky+LpwlPSOB8Zukzfcc+PcanGm8RNmEmaTT/5q/e7L/v2bS7iYZ+gKZoBA8vyfWsskvLuqkJ8BRhE3ao31Lf3+OzYWtDEruegF5oBA8vETg9R9iEfUK7nhQaAfqgRRK8ROD0FGETdpO7nnUb67rf2vxW694X99JeCVBcVl5W65LNS2iRBNcROD1D2AQGkiKj3f93d2vdxrp4jtsBNUmLpGXbliVSPAS3ETg9QdgETkfedHZX7aa1EqAoiofgBQKn6wibQDhC9zxr19YeI3gC6hg5dmR7UW1RKvPV4SYCp6sIm8Bg0VYJUEvCsITuRc8s6mPyENxE4HQNYROIRqjAaFflrlaCJ+AvJg/BbQROVxA2AbeEgudv7vnN3zhqB/xBT064jcAZNcIm4AXueAL+kZ6cC9YuiJu6eCrhAK4gcEaFsAl4LRQ8a+6vGdLV0UXlLBAjHKvDTQTOiBE2gViSN6sdj+2gjycQIxyrw03Si7l8WjlrOjiETcAvMq/91SdfbWZyEeAtjtXhptfWv9ZddX0V30vhI2wCKpA3LyraAW9xrA63EDgHhbAJqIT7nYC3OFaHWwicYSNsAqqS+53Pr3j+4Nu/e/vLHLMD7uFYHW4hcIaFsAnoQN7QXnrkpSMH9hxI44EB7piyaErrwvULaU2GqBA4z4qwCehEjtlfeeKVzp1P7DxONTsQPZmtXlJfwj1ORGVT8abOmtU1XH06NcImoCupZq9ZXdNMUREQnYRzEnqWbVuWmJWXxUoiYhXzKtrrqutSWcEvIGwCumO3E3BH/pr8num3TE9kOREpAucpETYBk7DbCUQnKy+rdcnmJUGO1REpAucXEDYBE8lu5wulL7S+UfXGl6hkBwaH9kiI1sqcla0tDS0Un/1dxGFziAdfDACXjBw30pEq28c/eTxQ8GRB95iJYw6ytkB4Opo7gjIDu666roslQySKaouCUnzG4kWHnU1AM6G+nQ1bG2ifBISJ9kiIVNfhLqc0p7S9bX+b7UfqHKMDtpE3wG1l2ygoAsKUnp3eKjtV3OPEYMn77R2Zd3RaPhGOY3TANvILc27Z3OSHDz+cwhE7cHZy904Cg5wOAIMh77c3v3xzcsKwhG4WbvDY2QQMwhE7cHYSGBY9s6gvNz+XLU4MirzHyj1gSws22dkE4DhSdbt0y9K0VX9Z5cy4dUYnn8KBL5KgUDGvIkmmxbA8GAx5j11Ws4zOIINE2AQMJFXscsS+5uCa/ir2pJQkfqkCJ5GxhOXTylvlPh4QLplQJe+rLFj4CJuAweSe0dTFUwMPtT+UvGTzEod7ncDnNdY2Bvsrjfe1sTIIm7yvEjjDR9gELJEzO8f5+X/9PK1oR5Ez8TsTqZAATpCWNnd97a7uxtpGlgRhk8ApLbVYsbMjbAKWkSOgn77w0wy515l9bTY7ncCJe5zl08qd19a/xm4Vwia9W3Pzc2n6fhaETcBScq9Tioke6niIYiLghKrrq6R4iPCAsBVuLEyVHq6s2OkRNgHLhfp1SjERoRNwnLrqulSZiU3hEMLFWMszI2wC6BcKnaE57FSww2bSAP6er9/TSgN4hEPeP0vqS1J53zw1wiaALwhVsBM6YbOO5o6gNPCmcAjhYMrQ6RE2AZwWoRO2o3AIgyFN34vfKA7ED43nDsYAhE0AZ0XohO2kcGjD4g0UgeCsJHAuWLsgjpX6H4RNAGELhU7p1UmDeNhmV+WuoFSqUziEs6Hp++cRNgEMmvTqDDWIJ3TCJlKpLhOHCJw4Gwmc9OD8O8ImgIiFQmfhxsIujtdhC5k4dEfmHZ1UquNspAdnVl6W9dcvCJsAopabn5vEnU7YpKujK5lKdYRjyeYl1vfgJGwCcA2FRLAJleoIBz04CZsAPEDohE2kUn1T8Sa+z3FatvfgJGwC8EwodOavye+h0TFMVrO6JpmZ6jgTaYm0rGZZwMZFImwC8Nz0W6YnMnsdpmOmOs5GiiptbIlE2AQQE6HZ6xI6pyyaYn11JswkM9VpjYQzkRMf294DCZsAYkpC58L1C4Or/rLKyb42mx6dMI60Rlo+enkPrZFwOvIeaFNLJMImAF+MHDfSWbplaVrJWyU0hodxej/pTZTWSAROnI5NLZEImwB8JZfmQ9OIUjJSOF6HMaQ10n3fuK+L1kg4lVBLpIRzEnpMXyDCJgAlyMX5svfLgrRLgkmOfXosSVojEThxKhI4i3cXJ8YPjTf6ki9hE4BS5PL8vU33JlO5DpPQixOnI6c7C9YuiDN5gQibAJQzsHKdIiKYgl6cOB35kC0fsE1dIMImAGVJ6KSICCaRXpwETpyKfMDOzc818nuDsAlAeaEiosKNhV3c54TuJHDePu52enHiCwrWF6SaWKFO2ASgjdz83CQZf8l9TuhOenHS/B0nM7VCnbAJQDvc54QJQoGzbV8bzxOfMbFCnbAJQEvc54QJJHDe9bW7aP6OzzGtQp2wCUBrofuc0p/ThubIMI80f2faEE5mUoU6YROAEeSNec0HaxKnLJrCFCJoh8CJU5ErQybMUCdsAjCGHK0vXL8wyNE6dMR4S5yKCTPUCZsAjMPROnTFeEucTD5EF9UWpercgYOwCcBYHK1DVwRODDRy3EhnWc2ygK6LQtgEYDSO1qErAicGysrLcvLX5Gt5UkPYBGCF0NG6vFnTEB66kMC5/YHtXAVBv+m3TE/UcaQlYROAVeTNWhrCm1DhCTtUL69OZJ46QnQcaUnYBGCd/gv3O4qCRTuKHGatQwcyT53ACUfTkZaETQDWkjtQ9zbdm2xK42SYjcCJkNBIS10WhLAJwGrypi2Nkykggg4InAiRe+jS3k2HBSFsAsBJBUTxQ+O7WBOoisCJEGnvpkPBEGETAAaQAqKVjSuT0rPTKSCCsgicCNGhYIiwCQAnkQbKd9bfGSzcWNjFBCKoisAJR5MJQ4RNADiN3PzcJJlARJskqIrACUeDCUOETQA4g1CbJHY5oSoCJxzFJwzF9fX1RfQH9/1h33ePdh19/nT//4ERgf4L9wBgiq7DXc66OetaG2sbgzxUqEYKRQo3FqbyYOwmHzzkA4gHizCtoq+iNpI/GHHYLIwrzHMcZ0dEf3iAEWNGHByWNOwLSTzzssyEQHKgN/S/44fGJ2bPyk4b+H8jKR4AYq2uuq6r8oeVQ3o/6dWmzx3sQOCEfCi+5+v3tHY0d7j9oVjfsOkWuRibekHqIfnrhiQMSbj4Xy7uD6oDQyq7rQDcwi4nVEXgRHN9s1N2aVl379FeN+9xEjYHK5Ac6Dj3vHOPDAym468cP1buZ8lFW/kPAJwNu5xQEYET8t5UMa8iycWFIGx6IbRbOjw4fMjYS8YeHzFmxJczJ2emsEMKYCB2OaEiAic2LN7Quqtyl1vvS4RNP4TC6KisUUPO++p5x0M7o9wlBezUv8u5oDLO5aMrIGIETqzMWdna0tDiRuAkbKpmYBAdPX70MLk3yo4oYL62fW3O2tlr3XpzB6JG4LSbnLwsH728x4WrPoRNnUgFfuoFqUflaF52Q+V+KCEUMMv2B7b3bLl9y/Fjnx5z884UEBECp92kYKh0Umm0a0DYNIGE0PSc9KOhndD0nPT+htIA9CRv8I9/73EvWpAAg0bgtJt8AK5eXh3N7iZh01RyHB/MDLZLxbzsgsoOKJXygF42FW/qrFldk8xjg98InHYrn1YeTSEjYdMmBFBAP421jc66ues6uzq6CJ3wFYHTXnJ/847MOyJ9HyJs2i4UQCd+Z2ICR/CAmuSNvmpxlVej5ICwETjtJdd77vvGfV0R3CcnbOKLpHH9V6d89eOLLr9o+ISZE1IoQgLUQIskqCB/TX7P9FumM4zAQq+tf6276vqqwb7/EDZxdifvftIPFPAPLZKggoInC7qnLp7Khx4LVcyrGOwpC2ETkRl14aj9mZdlJkyaM+krEj45egdii+Ih+I3AaSe51nPP1+8ZTLcMwibcIe2Xxl89vpfwCcQOxUPwG4HTToO8v0nYhDckfE749oT4yf97cpBjd8A7zFeH3wicdhrE/U3CJmJj9PjRf/3mv34ziYIjwBsuNF4GIhI/NL7rtj/clsR7u33CvL9J2ETsScHR+KvHt06aMymYOy83wJE74A452nrwygc5VkfMyft68RvFAQKnXcK8v0nYhP84cgfcw7E6/ELgtFMY9zcJm1ALu56AOzhWhx/kPfyeP90TYDqdXc5yf5OwCbWlZKS05i3Ni7/kB5ek8OYFDA7H6vDDyLEj20vqS1LZLLDLGe5vEjahD5lslDsv99i0n0wLckwDhIdjdfiBwGmfM9zfJGxCT6Hj9suvvzwjZ3YOTxE4C47VEWsSOFftW8UcdYuc5v5mxGFziO0LCn/JbOg9v92TsW7OOueGc27ofvSaR5vrt9TzVIDTkFnWJW+VOAnnJPSwRoiFtv1tqXK0ymLbQ04dF6xdEOfWCyZsQhkETyA88otgzQdrEtOz01tZMsSC3OEjcNpFGvxn5WW58h5D2ISSCJ7Amckdujvr7wzOuHVGJ0uFWJDAKbP8WWx7LNm8JJiUkhT1MydsQnkET+D05pbNTS7cWNgl959ZJnitZnVNsrTHYaHtIB9qb3755qi7YBA2oZWTg+fa2WsPykVmwGa5+blJ0oRbWozxjQCvSR9GAqc95NpO/pr8ntHjRw+P9EVTjQ4jhNopXVNyTZA+nrCVtCypWlwVzoxjICrMUbfPvj/smzXuG+N+E8kLJ2zCOLK78927vvslJhfBVrRHQiww1tI60xzHoc8mcLLMyZnNM26dQQ9PWKexttF5ZMYj3XL1hKcPr0jxyL1N9ybzwd4KhE3gTOQT+KUFl/6NY3bYpG1fm1OeV94ufRJ58PAKU4asQdgEwsUxO2zCPU7EgvR8lVZcLLbRIg6bVKPDOjLvVaopl6ctp5odxpMPVIUbC1PpxwkvtTS0BGn6jtNhZxNgtxOWqKuu66pcUBnHPU54RT7USO9XFthIHKMDbpC7nRO+PeHIrBWz0qiwhIlkJ//BKx/s7OroIhDAEwVPFnTLqENW1ziETcBtod1O3jRhGrnHWZ5X3ipHnzxceKFoR5GTlZfF2pqFO5uA20J3O2VS0YbFG1qlshcwQWiuem5+Lnfs4Alpu8V9eIQQNoGzkPttuyp3BW//h9ud1d9c3Sz9CwETSOGQHHnyMOE2ed/sv65xuIu1BWETGIym3U0Z5dPKnZtSb+qU2cC8kUJ3ck1EjjzlvjIPE26Se8GlOaXtvE+CsAlEQN5EQ+2TOGKH7uRunYwdlGkwPEy4SQYKSJ9XFtVuhE0gCgOP2B+95lGO2KEt6b4gYwdlGgxPEW6SgQLyoZxFtRdhE3DJnt/u6T9iv/uf7j74+tOvs6zQjhQOrdq3KpXCIbhNPpTL1SMW1k6ETcBlB/YcSPvl//nlZ/c6WV/oholD8IJcPaJC3U6ETcAjoXud0jppU/EmqjKhFZkCQ6U63FZ2aVk3d9ztQ9gEPCb3OmtW1yRTTATdUKkOt8n7YXleORXqliFsAjEysJho7ey1Bwmd0AGV6nCbVKjLBCsW1h6ETcAHDVsb0gid0AWV6nCbjEqlQt0ehE3AR6HQKRXstE2CyqRSvaS+JDU9O52AAFdQoW4PwiagAKlgD7VNInRCVcxUh9uoULcDYRNQCKETOpDWSFMWTWGHE66gQt18hE1AQYROqG7h+oVBWiPBDVSom4+wCSiM0AmVSWskCZzxQ+NJCYgKM9TNRtgENDAwdHK/CSqRwHnbH25LohcnoiUz1GUABgtpHsImoBEJnaWTSmmZBKVIayTpxUngRLRkAEZddR075YYhbAIaok8nVCOB854/3ROgFyeiVbmgMo4THLMQNgGNhUKnNEfmcj38NnLcyP5enAROREMKhh7/3uO8pxmEsAkYQJojy+x1ue/EGzT8FGr+TuBENDqaO4Lr5qyjvZYhCJuAIWQ3QO47LR+9vIepHPCTBM5V+1al0vwd0WisbQxSMGQGwiZgmN5PehNlKsdNqTd1ctEefpLm7wRORIOCITMQNgFDdXV0JVfMq0iiRyf8ROBEtCgY0h9hEzBcqEcnlevwC+MtEQ0KhvRH2AQsEapcp4gIfmC8JaIhBUNMGNIXYROwDEVE8EtovCUPAJGQCUPbH9jew+Lph7AJWChURFR8QXEr9zkRSwRORKN6eXUi71n6IWwCFpOjKbnPWT6tvJX7nIgVAiei8cjMR3q4CqQXwiaA/n52d2bd2UVPO8QKgRORkpOZ8rxyCs40QtgE0O/Yp8eS5D4n/TkRKxI4S94qcRKGJRA6MSgtDS1BGdPLqumBsAngc0L9OVfmrORoHZ7LyMlwit8oDhA4MVgyppcPxnogbAI4Jdk5oFUSYoHAiUhJw3c+FKuPsAngjORo/Y7MOzqpAIWXCJyIhDR8L88rp/+m4gibAM5KjtapWofXCJyIRNv+ttSKeRUEToURNgGELVS1TmNleIXAiUhIw3cGVaiLsAlgUKRqXRorS0P45vpmFg+uI3AiEs8sfaaP9yQ1ETYBREQawpdOKnWk/QgFRHAbgRODJR+EH//e47wfKYiwCSAq0n5ECohoQQK3ETgxWPIhuGpxFfc3FUPYBBC1UG9OKSBiVwFuInBisLi/qR7CJgDXSAHR8tHLe3ijh5sInBgsub9J5wx1EDYBuErmFlddXxVgAhHcRODEYMj9TfpvqoOwCcATMoGINklwE4ETgyH9N5mfrgbCJgDPhNokscsJt0jgXPTMoj4WFOFgfroaCJsAPMcuJ9yUm5+bVAuDwNkAACAASURBVPBkAbubCEvlDyuHULjoL8ImgJhglxNumrp4aoDAiXDIPfLyvHKO031E2AQQU+xywi0EToRL3nc2FW/qZMH8QdgEEHMDdzk53kI0CJwIV83qmmTGWfqDsAnAN7LbIH05ucCPaBA4Ea4Hr3ywkw+4sUfYBOAruU/F9CFESwJnbn4ufRVxRjLtjHGWsUfYBKAEmT4kM9Ybaxt5IIhI4cbCVAInzkbGWXKaEluETQDKkF2H8mnlDo2YESkCJ8JRuaAyjq4YsUPYBKAcacRcfEFxK5f5EQkJnFl5WXxgwWn1Hu0NrJ29lu+RGCFsAlBSR3NH8L5v3EeLJERkyeYlwZFjR7LDidOiHVLsEDYBKCvUIoniIQxW0ogkp6S+JJXAiTOhHVJsEDYBKE+Kh6RFEsVDGIxQ4ExKSWL3Cqf1+Pce58OsxwibALTQP3JuWrnDsRcGQwLnzS/fnJwwLIE+nDglubKz8ZaN3N/0EGETgFbk2Iv56hiMjJwMp/iN4gCBE6cjRYmcnHiHsAlAO3Kx/66v3dVNrzyESwLnspplARYMp/PIzEd6OE73BmETgJakdYlMHqInJ8KVlZflMNYSpyNXddbNWcf7iQcImwC0Jsdft4+7vZ1jdYSDOeo4EylG5MTEfYRNANpr29+WyrE6wsUcdZxJ5Q8rh3Cc7i7CJgAjhI7VqVZHOBhridPp73yRV85xuosImwCMEqpWZ2cCZyOBk6bvOBUpQmR6mXsImwCMI78opAk8k0FwNkwZwulsuX3Lce6Cu4OwCcBIchRWOqnUYXcCZyJN34tqi1LpwYmTybjctbPXcpzugvgVK1ZE9LccevfQP37a/enUL6V+qXPgf4YmDv2k56Oe4Yq9TgCWeuf37yQc2HOg/R+n/2NgaOJQvg3wBRI4vz7r60Nf/8Xr3cePHeebBJ85cvBI0jnDz+n56mVfTWBVnF86jrMvkj8Y19fXF+k/muc4zo7B/qFTdehveL7h4LFPj322+yC/HI73Hu+V//7Rhx99ubuzOyXSLxIAhByVyg7WyHEjWQ+cknQzkCIzVgcDxQ+N71rZuDKJ9w5nmuM4tZH8wZiHzWjIhf+W+pb+v+HQnw91t/yx5ZAzIJwSTAGciRyVyhQZae4NnMpr61/rrrq+iklD+Jz07PTWO+vvDFq+KnaEzXANDKWhXdP9b+4f8nHrx8cP/fnQWBW/ZgCxk78mv2f6LdMTWXKcSsW8iva66rpUFgcD8b5B2Bw0Oc6XULr35b37uzu7E5peb+ptf799lPTq0+ylAIiA9FgsWF+QKvf1gJOVTytvlWkyLAxCOE4nbLpqYBCVHdH299uHHT5wOM2glwiAe5w4A/kdUJpT2i7TqVgnhFh+nE7YjAXp2Sc9tySEyj3Rzv/uTOKOKKA3ucdZ/EZxICMngyeJz5HAKf1apY0WK4MQi4/TCZt+Cd0Pbdrd1PHuq+9+3FLfwi4ooKGCJwu6ZWY2zw4DySbDfd+4r0t6LrIwcOw+TidsqkaO4gmggF7kHqeMMOSxYSAq1HGyrLys1qIdRbYdpxM2dSABVKrjm15vOvp+3ftBipEA9cidrKLaoiCFQxhoU/GmTpm7z6IgpHBjYVdufq5NbxSETR3J/c93Xnyn+91X323f++LeBHY/ATWkZKS03vDrG4Lc48RAtETCQAnnJPSs+WBNokUfTAmbJpD7n7L7+dbmt/5K+AT8ReEQTkaFOk5m2XE6YdNEhE/AfxQOYSAq1HGyoh1FjiVTyQibNhgYPhu2NtB2CYiRKYumtC5cv5AG3+gnFeqlk0pZDPRLSknqvLfp3mQLjtMJmzYK3fncVbmrlYIjwFtUqmMgKtQxkCUfSAmb+Pun7d1Vuw/+5//7z/iO5g52YQCXycShkvoSRlyi34bFG1p3Ve7ivRb9St4qcQy/403YxOcN3PVs2t1EhQPgEirVMdDKnJWtLQ0tBE70vzeUvV9m8vcCYRNnVr+l3nn1yVeb39v13nDuegLRoVIdIXKX/o7MOzq7OrrowQlnxq0zOueWzTX1e4GwifDJcfuOx3a01m2siyd4ApGRwDn/8fkOlepgpCVCDB9lSdhEZELB8+3fvX2M1krA4NEaCQ4FQxhAppDdWX+nicfphE1ET+55vvmrNztq7q8ZwpEQED7Dj84QJgqGEGLoKEvCJtzFUTswOLRGgkPBEE4wdJQlYRPeCQXPN6re+BK9PIHTk8BZsL6A1kgWo2AIIQb23iRsIjZCVe17fruHMlzgFOjFCSYMIcSw3puETcSWfHqv21jX/dIjLx05sOcAhUXAAAROUDAEx7zem4RN+EcKi1554pXOnU/sPM79TuDvZF7yzS/fnEwvTntVzKtor6uu4x6v5fLX5PdMv2V6ogGrQNiEGjhmB/4Hzd/tJidApTml7W372wicFpP3gTUH1wQMOOkgbEIt8ia784mdtFGC9QicdpOTn7u+dlc3xZV2y742++DSLUt1v3IWcdgc4v7XAjiOfIKbWTwz5aH2h5KLdhQ5E78zsZllgY0kZJRdWtbdWNvI87eQTJJZ9MyiiHd1YIaGrQ1pNr8HsLOJmJHdzm1l27jbCWsxbcheNHyHAcVC7GxCfbLbKVNWHj78cMqSzUucMRPHHOSxwSZSnSxVyjx0+0i/RelSYPs62KyjuSO4/YHtPTYuATub8JXcZ3ruxucOvv27t7/MnSbYgh1OO8npzvLRy3t6P+k1oTIZEdC8WIidTehJ7jPJpWn54Ztz35wOaRfDo4Tp2OG0kwSMZduWETQtJpsqT1/3tHWnevErVqyI9M+OcxznOne/HNhqaOJQ58KpFwZm3jozMSU9pbv1L63tHx36aDjfEDDVH5//41D5Xr8g94KhPGR7yAfsT3s+7Xxv13uETksd/NPB4V/L+1r/94Jmfuk4zr5IvmSO0aEsqdyrWVNDz04YbcatMzrlLjNP2S4rc1a2tjS0UDBkKU2LhThGh3my8rKcn77w04xVf1nV36OMRwwT1ayuSZZJMzxcuyzdsjQo9/dsXwdbSbGQTVdpCJtQXuhe50MdD/XvAvEGDdPISEMCp13ov4lnf/JsnBSN2YCwCW2EWidJMRGhE6YhcNonNz83acqiKa22r4OtpCvBxls2WvH8ubMJrckxRPXPqo8yEhOmyM3PbS/cWMgsbYvcPu525qdbTK6KaVIsxJ1N2El6FcpITOlbSNskmIAdTvsU1Ralxg+Nt+M8FV+wdvZa43c3CZswAqETJiFw2kV2tRasXRBn+zrYSroSmD43nbAJoxA6YQoCp13kvUuuUNi+DrZaN3ed0b+vCJswEqETJiBw2qVgfUEq71d2kroDk+emEzZhtIGhM+GcBGN/kGEuCZybijcRQCwgHTdufvlmih0ttfWOrX2mtkJiXCWsICMBp/1kWoLjOJ3739zfd/zYcUYEQhsy2pDRlnZIHp3MOEtLye+lj1s/bs3+XnaSoisQ8bhKdjZhjZP7dFL9CZ1UXV8VsGniiM3kfSo9O53+mxbaVbkr2LavzbgXTtiEdUKhc2XjyiTGYEInBE57yDhLPhDbycRWSIRNWCs0BlMa6rKLAF0QOO1AOyR7mdgKibAJ68mb+p31dwaLdhQ5KRkphE4oj8BpBylwzMrL4j3JQk8tfMqo507YBE7Iystyyt4vC9IuCTqQwNlc38yzMtySzUuCvB/Zp6O5I2jSB0rCJnAS2U24t+neZIqIoLqyS8u6CZxmkzvmSzYtoR2Shap/Vn3UlFZIhE3gFCgigg56j/YGCJzmk1OXKYumcJxuGWn0vq1smxG72oRN4AxCRUTc54SqCJx2mPfAPI7TLfTSQy8NM2F3k7AJhCF0nzN/TX5PwrAECjOgFAmcj3/v8VZTp4+A6UK2kp/tp697WvvTNcImMAjTb5meKE3hOdKCaqSgoDSntJ3Aaa6MnAxH7pLbvg62adjakKZ7o3fCJjBIssOwcP3CYMlbJc6YiWO4zwlltO1vSyVwmk3uknOlxz7P3fic1r9rCJtAhGSX4ef/9fM0jtahEgmcVYur2nko5rrh1zcEbV8D28jups6N3gmbQJRCR+tUrUMVddV1qRXzKgichuI43U7P/vRZbX/HEDYBF8jReqhqnYpRqEAC56biTXwvGorjdPsc2HNA291NwibgIqlaf6j9oWR2HaCCmtU1yYy1NBfH6fbRdYwlYRPwgOw6UEAEFchYy7rqOiqGDMRxun10HWNJ2AQ8MrCAiLGX8FPlgso4mr6bieN0+8gYS91eNGET8JgUEMnYy/TsdH4hwBehKUO69+rDqXGcbhcZY6nb7iZhE4gBGXt5Z/2dQXY54RcJnOV55fTgNBDH6faR3U2dfpYJm0AMscsJP4WavvMQzMNxul1kd3Nb2TZtPmAQNoEYY5cTfpLASQ9OM3GcbpeXHnppmC67m4RNwCfscsIv9OA0kxynT1k0hfcTS8jVGF12NwmbgI/Y5YRf6MFppnkPzAsyWMIeuuxuEjYBBYR2OUeOHcnxJmJGenDSEsksMs1syaYlybavgy102d0kbAKKkF3OVftWpVJViliiJZJ5ZJJZ9rXZDJSwhA67m4RNQDGh6UMchSEWaIlkpuuevi4t4ZyEHtvXwQY67G4SNgEFyUX/e5vuTc7Nz+VYHZ6TCvV1c9ZRWGIQOU5f9G+Ljtu+DraQO9gqn1AQNgFFyS+Lwo2FqYUbC7sShiVQyAFPNdY2Bjcs3kDgNEhufi7dLizy3I3PKXt1grAJKE5+Ydzzp3sCFA/Ba7sqdwWpUDfL0i1Lg3S6sEPD1oY0VXc3CZuABigeQqxQoW4Wee+4+uarP7V9HWyh6u4mYRPQiBQPFe0ocrj4Dy9RoW4WRlnaQ9XdTcImoBlpa7LmgzWJ3MWCV6hQN8+PNvyIUZaWUHF3k7AJaEiKh2TyEMfq8IpUqFctruKesCHovWkPFXc3CZuAxjhWh5dkhvr2B7bzvWWI/t6bdLawgmq7m4RNQHOhY3Wq1eGF6uXViY21jaytAeRE5Np7r42zfR1sILubKl2DIWwCBpBfIlKtPmXRFO5xwnWPzHiEgiFDTL9leuKYiWM4TreASlOFCJuAQRauXxgseLKgm756cBMFQ2b5UdWP0mxfAxuoNDOdsAkYZuriqYHb/nBbErPV4SYKhswh43A5BTGfSjPTCZuAgUKz1bPysviFAtdIwRAThsww74F5QQoLzafK7iZhEzCU3OMs2lFEeyS4iglDZpD3h/mPze+zfR1Mp8ruJmETMJy0R+IeJ9z04JUPdnJ/U39y5YZiIfOpsLtJ2AQswD1OuKmroyu5PK+cKxoGmP/ofIqFDKfC7iZhE7BE6B4n/TjhhpaGluCm4k18eNEck4XssPOJncf9fKGETcAioX6cufm5BE5ErWZ1TTIN3/XHZCHzdXd2p/hZ3EfYBCxUuLEwNX9NPpWoiNojMx/p4f6m3pgsZIfqn1Uf9euFEjYBS8kkkcKNhV3saCAavZ/0JnJ/U3/yfsCdbrPJXWu/djcJm4DFcvNzk4rfKA7wSwbR4P6mGZZsWpJs+xqY7jf3/OZvfrxEwiZgOQqH4Abub+pPioXSs9PZpTZYR3NH0I+fU8ImgP47WyX1JRQOISrc39Tf0i1Lg7avgeme/emzMe8+QNgE0E8CpxQOETgRKe5v6m/kuJHMTTfcgT0H0mK9u0nYBPA5Ejhl4hCrgkhwf1N//XPTKRw0Ws2ampjOnCVsAvgCmThE4ESk5P4m89P1RSsk8+357Z6Mtn1tMXudEYfNfX/YN1y2YbkQDphJAmfJWyUOOxyIBPPT9UYrJPM9d+NzMbu7GdfX1xfRHyyMK8xzHGfHYP7MqAtH7R/4v4cHhw8Ze8nYz0YopX89fdSoC0cF5L8HRgT6q2QB+Et2qMoml/XIfTweBQYjKy+rtWhHEQUnmqqrruuqmFeRZPs6mEo2EtYcXBOQnewwTXMcpzaS5Yhp2IxUIDnQce555x4ZkjAk4eJ/ubjXGRBM5TKz/AeAd2SHqjSntL1tf1sqy4zBkOsYskvOounp7n+6+6AUlNi+DqaaceuMzrllc8Ptr2p22AxHKJCOyho15Lyvnnd8/JXjx0pal75hAKJH4EQk4ofGd61sXJnEpoCe5Kpc+bRy25fBWLK7+fgnj4f7YZCweSaymKkXpB7KvCwzYXhweEL2rOw0dkSBwZPAKa1tpOKY5UO4ZGDAqn2r+JCiqbWz1x5s2NrA7qahBnH6QNiMxMAQev7F5ydlTs5MYScUOLuKeRXtddV1hAeEbZDHdVCIVC3f/g+380gMJYVgD7U/FM7PJmHTTSPGjDiYnpN+9KLLLxpOAAVOjcCJwZLuBhR+6mnD4g2tuyp3caJhqKIdReFcOyRsek0C6Pirx/dedPlFqRdffXGAI3iAwInBkR0UmcM/iOpXKEKu0CxPW97de7SXYi8DjZk45uDP/+vnZ7sqQdiMNSlIOv/i8z/OvjZ7+ISZE1L4tA5bybQYaeLNNwDCIaMQF65fyA6ZhvhZN9uqv6w6Wy0LYdNvcv/zgtwLWgmfsNFr61/rrrq+ih0PhKVwY2FXbn4u25uakd3NOzLv6Ozq6CJwGij72uyDS7csPdPuJmFTNaHwOWXRlCDH7rABgRPhSjgnoWfNB2sSOU7XDz/n5gqjyXvEYZPZ6B6Rey1Nu5sy5IdSqvhuHHFjxy/+9Rd/rd9Sb+TrBZinjnDJNKp1c9a1smD6kZ9zxliaSXLLtrJtnjxbwmaMdHd2p+zesPsr6+ask11hZ/U3VzdvK9vWEctB+IDXCJwIV2NtY1DGIbJg+sm/P3+Y7Wtgqp1P7DzuxUvjGF0BKRkprf/8v/752OSCyWnc9YQJOGpDODhO19ft425nmpihztDknWN0nXU0dwRffPDFtNJJpf3H7dLPrLm+2fZlgcbY4UQ4OE7X13VPX0fQNNRLj7x0xO1XRthUjBy3S+Ncgid0R+BEODhO15M0AJfejLavg4kO7DmQ5nbuIGwqjOAJ3RE4EY7KH1YOkbY60Mv8R+czL91Qz6943tUPEoRNTQwMnjel3tRJcRF0QeDE2XCcrid2N83VsLUhzc0PgIRNDUlD3c23bU6Rlkp3/9PdB6UYg10BqIzAibPhOF1P7G6aa+cTOzvcenGETc3J3Qqp+pWZtY9e82hzY22j7UsCRRE4cTYcp+tHdjfTs9PZlTZQzf01rmVEwqYhpBnrnt/uySifVv7ZMTtv2lANgRNnwnG6npZuWcqsewPJKapbg2gImwYKHbPflHKTw24nVEPgxJlwnK4fGccsc7VtXwcT1ayucaUqmbBpOHY7oSIJnLn5ue08HJxK1fVVn/JepZfvP/x97m4aSMZuu1GMTNi0RGi3U+52rp299iCV7PBb4cbCVAInTkXerzbespHjdI2wu2muF0pfiPpnkbBpGbnbKS0NQpXsHLHDTwROnI60euP9SS/sbprpjao3vhTtCyNsWkwq2UNH7NI+yfb1gD8InDiddXPXdbI4+mB300yySRVtRiBsov/ISton3XDODd2bijd1clcKsVawviB15NiRBE58jrw3yXsSq6IPdjfNFO28dMImPiOfXmpW1yTLvU4Zjcm9TsRK0ogkp6S+hMCJL5D3JN6L9MHuppnkJHR31e7Rkb44wia+QEKn3JeSe50UEyFWQoEzJSOFwhB8ztrZa/me0Ai7m2b6xcJffBDpCyNs4oxCxUSETsSCBM4bfn1DMGFYAneI8ZmWhpYg98r1IbubmZMzXenPCDMQNhEWQidiJSMnwyl+ozhA4MRAz/7k2Tjuk+tjzn1zMmxfA/wPwiYGhdCJWJDAuaxmWYDFRoiMsqT3pj5kZvqYiWO4u4l+hE1EhNAJr8kvK8ZaYiB6b+pl/qPzubuJfoRNRGVg6OSIC26TsZYzbp1B6xt85qmFT7G7qQl2NxFC2IQrJHRKyyT6dMJtc8vmJtP0HSEdzR3B7Q9s72FB9MDuJhzCJtw0sE8nvwzgJpkylJ6dzo4W+m29Y2sfH2r1ILubtDMDYROuk9BZvbw6UcZg1lXX8RsBriiqLQrS9B3OifeYp697muNZTXz3ru9GPVsbeiNswjMyaq5iXkXS3f9098HmelquITrSg7OotiiVlkhwTlzdoVhID3L3OiklibvXFiNswnMy5qp0UilFRIiaNIuWHpzxQ+P5RgLFQhrJvz9/mO1rYDPCJmJmYBERq45ISQ/OBWsXxLGAkGIhJgvpQXY3A8mBDtvXwVaETcRUqIhI7nNyBIZI0RIJIUwW0scVP76CzGEpHjx8Ifc5y6eVO+XTyltpCo9I0BIJDpOFtDKzeGYyd67tRNiErxprG4N3Zt3ZRaskRKJgfUEqFeqQyUJ8aFWfFPldWnDp32xfBxsRNuG7Y58eS5JWScUXFLdytI7BoEIdIWtnr2V3UwPXlFwTtH0NbETYhDLksr8crW9YvKGVO1gIV6hCnQWzW0tDC3PTNSA/r9nXZtMj1TKETShHjsTuyLyDhvAIm1SoFzxZwO6m5dbNXUfRmAZmrZjFCEvLEDahpFBDeCkgYpcT4ZAKdQqG7CbvG7RCUp98OBwzcQy7mxYhbEJpUkC0fPTyHnY5EQ6ZoU7BkN1ohaSH+Y/OZ3fTIoRNKE9am7DLiXCV1JekJpyTQHcDS8n7xbaybRynKy4rL8thhKU9CJvQBrucCIdUqC/btiyRxbKXDI6gFZL6GGFpD8ImtMIuJ8Ihuyb5a/LZ3bTYczc+x51AxeXOyw3QtswOhE1oSXY5pWKdVic4nem3TE/Mysui96KlGrY2pDXXN9u+DEqTU4irbrrqqO3rYAPCJrQVGnkpfTl5ijiVJZuXBFMyUvj+sNRTBU+xu6m4b/34W8m2r4ENCJvQnvTllOlD7GLgZLJzcsOvbwjGD43nzoWFDuw5kMbph9qkyfvE70zkzdtwhE0YQaYP3feN+5ixji+Qnn4L1i6IY2Xs9NTCp9jZVtyM5TMybF8D0xE2YYzQjHWKh3AyGr7bSz6I0uhdbVLQx3UXsxE2YZxQ8RDH6hioYH1BKr/Q7FT9s2qKUBT33bu++yXb18BkhE0YSYqHSieVOhyrI4T7m/ZijKX65PSBNkjmImzCaByrYyDub9qLMZbqow2SuQibMB7H6hiI+5t2Yoyl+miDZC7CJqwgx2hSrc5RGpwT9zeZy2yflx56aRi7m+qSNkiZkzPZFTAQYRPWkGr1quurAhXzKtjVspzc37z55ZvZRbFM79HeALubaptz3xzaIBmIsAnr1FXXpd4+7vZ2djjsJvc3Z9w6g+BhGXY31SZtkDh1MA9hE1Zq29+Wunz08h7ucdptbtnc5PTsdNohWYTdTfXN+NmM47avgWkIm7CWFAxIeyTucdpt6ZalQVqu2IXdTbVd8eMrUmxfA9MQNmE9uce5YfEGdrcsJUUJi55Z1Gf7OtiE3U21yZ1q5qWbhbAJOI6zq3JXcGXOSvpxWio3PzcpKy+LDxwWqVldk9y2r832ZVAW89LNQtgETmhpaAmW5pS28wvITks2LwlSmGCX52587qDta6AqCoXMQtgEBpDCobu+dlc3hUP2kaO7JZuW0A7JIg1bG9L4cKkuCoXMQdgETiL3uSgcspPspkxZNIXjdIu88sQr7J4pikIhcxA2gdOQwqHtD2zvYX3sMu+BeRynW4TKdHVRKGQOwiZwBtXLqxOZOGQXjtPtQmW62igUMgNhEzgLmTgkgZPdD3vIcTrThezB7qa6KBQyA2ETCIMETqlU5xeSPWS6UEpGCvc3LcDuptooFNIfYRMIk1SqEzjt8qMNPwravga2YHdTXRQK6Y+wCQwCM9XtQnW6PdjdVJfco86cnMmbrsYIm8AgyUz1skvL6MVpCarT7SG7m7avgapm3EqhkM4Im0AEZBeEwGkHqtPtIT/X9NdVU87sHCdhWALPRlOETSBCocDZWNvIEhqO43R7VP+s+qjta6CqSwsu/Zvta6ArwiYQBQmc5dPKmTZkATlOTzgngSb/huvq6Erm51lN15RcQ8GepgibgAtk2hC/oMwmx+mL/m0RLVgswO6mmkaOG+nQjkxPhE3AJQRO8+Xm5yZl5WXxy85wsrvJ9Rg15S3Ni7d9DXRE2ARcROA033W/uC4YPzSehoyGe/anzx60fQ1URM9NPRE2AZcROM0mR3mzV83mvdNwB/YcSKPbhHrouakn3jABDxA4zTb9lumJ3B0z3/Mrnmd3U0H03NQPYRPwCIHTbIyyNF/D1oa0tn1tti+Dcui5qR/CJuAhAqe5pPdm9rXZ7HwZ7oXSF9jBVtCEb084Yvsa6ISwCXiMwGmu656+Lo3em2Z7o+qNL3Udph5MNbNWzEqzfQ10QtgEYkACJ61UzCPFCvMfm99n+zqYTAY31G2s48OiYjJyMpxAcqDD9nXQBWETiJFHZjzCLHUDTV08NTBm4hiO0w1Gk3c15c7LPWb7GuiCsAnESGiWOoHTPPMfnc+RnsGkyXv9lnrbl0E5034yjSI9TRA2gRgicJqJYiHzbb1zK89XMXKUTgsyPRA2gRiTwPnglQ92UnRglv5iIdqxGEuavNMGST2Mr9QDYRPwgRzLleaUthM4zSHFQlfddBV3+wz23I3PsbupmEt+cAnjKzVA2AR80ra/LZXAaZa5ZXOTk1KSOm1fB1O9/bu3v8zPq1pkfCxH6eojbAI+ksBZtbiqnWdgjiWbliTbvgamkiswO5/YSbsdxXCUrj7CJuCzuuq61Ip5FQROQ0ixEK2QzFVzfw2/NxXDUbr6+KEBFCCBc/sD25lEY4gfVf2IVkiGog2SejhKVx9hE1BE9fLqRMZamkFastAKyVw1q2voXaYYjtLVRtgEFPLM0mf66MFpBlohmatpd1MGbZDUwlG62gibgEKOfXosSZq+84tMf7RCMtsrT7xC1wGFcJSuNsImoBipeC3PK6clLQTbJQAAFGFJREFUkgFmFs9MTjgngbu4Btr5xM7jtq+BajhKVxdhE1CQtERaN2cdn9I1J7ub8x+b32f7Opiou7M7hTvWauEoXV2ETUBRjbWNwQ2LNxA4NTd18dQAjd7N9NIjLx2xfQ1UwlG6ugibgMJ2Ve4Ksnuiv/z784fZvgYmYl66ejhKVxNhE1Bc1fVVASrU9Sa7mzR6N9MLpS+wk6YQjtLVRNgENFA2uayHgiG9zX90Po3eDVS3sY6dNIVwlK4mwiaggd5PehNLc0oZaakxxliaSQqFmCikFo7S1UPYBDQhFerMUNcbu5tmYqKQWibMnMBRumIIm4BGZIY6BUP6YnfTTEwUUouMiw0kBzpsXweVEDYBzTDSUm/sbprpzV+9SbhRSO683GO2r4FKCJuAZmSk5YNXPthJwZCeZHcz+9psdjcNU3N/Db9PFTLtJ9OCtq+BSvjhADTU1dGVzIQhfX3/4e+zu2kY+ZnkxEEdcpSeMCyBK0eKIGwCmpIJQ9sf2M7cbQ1JexZ2N83z/IrneaYKGX/1eD6QK4KwCWisenl1IrspemJ30zxv/+7tL9u+Biq5/PrLM2xfA1UQNgHNcX9TT+xumqf3aG+AbhHqkPvRUANhE9Ac9zf1NWvFLHY3DbOrchc/i4pIGpHkZE7O5OhHAYRNwAByf5MdFf1IEQN9N80iPTc5aVBH9rXZw21fAxUQNgFDSP9NGkvrh76b5tn5xE56birikh9cwjQhBRA2AUNI/83yvHLGWWqGqULmqV1bS0NxRcjd6BFjRvDz5TPCJmAQmZ++qXhTJ89UL+xumqWjuSPIKYM6Jnx7Qrzta+A3wiZgmJrVNcmNtY08Vo2wu2meF0pfoFBIEZP/92SmCfmMsAkYaN3cdbRD0sxVy66iR6NB6jbWsZumCPkwxzQhfxE2AQNJO6SNt2xkZ0UjUxdPDSSlJHEFwhDdnd0pDFxQxwW5F/B+6CPCJmCoXZW7gnXVdWxvaiT//vxhtq+BSXY8toOAo4gpi6ZwlO4jwiZgsMofVg7hOF0fsrvJcZ85OEpXx8VXXxywfQ38RNgEDNb7SW8i04X0ctVNVx21fQ1MIUfpFOupgRZI/iJsAoaT6UIcp+tjZvHMZHY3zVGzpoaLm4oYf/X4XtvXwC+ETcACHKfrQ+Y5T/j2hCO2r4Mp9r64l7uCipg0Z9JXbF8DvxA2AQvIcTrV6fr4/sPfp8m7IXqP9gbqt9TbvgxKyJmdY/sS+IawCVhCqtO5P6YHuV+WOTmT41dDvPrkqzxLRYweP/qvtq+BHwibgEVo9q6POffNybB9DUzBUbo6vvmv30yyfQ38QNgELCLN3reVbaNxuAZk6glN3s3AUbo6JsyckGL7GviBsAlYRmanM9lEDzR5N8dbm9/i+FYBGTkZjK70AWETsNBTBU/Rb04DNHk3R8PWBo5vFcHoytgjbAIWOrDnQNr2B7b38OzVd2nBpX+zfQ1MwKx0dTC6MvYIm4Cltt6xtY9iIfVdU3INvxgNwax0NTC6MvYIm4ClpGjh6eue5jhdcbRBMgez0tUgP1OB5ECH7esQS4RNwGINWxvS6L2pvhm3zqANkgE4SlfHV6d89WPb1yCWCJuA5Z5a+BRHe4qTySfsxJjh7W1v8xwVMGnOJK6nxBBhE7BcR3NH8LX1r1HxrLgrfnwF79cGqF1be8z2NVAB9zZjizcvAM6zP3k2jmIhtc0snpls+xqYQD7cte1rs30ZfMe9zdgibAJwej/pTWSykNqSRiQ5E78zkQt/BnjnxXc4SVAA9zZjh7AJoJ9MFmLHRW2XX385hUIG2FW5i3vSCuDeZuwQNgF85un/8zS/BBVGoZAZmnY38aFBAdzbjB3CJoDPNNY2BmmFpDYKhcxQv6Xe9iXwHfc2Y4c3LQCf8+xPn6XRu8K+9eNvUShkgLc2v/VX29dABdzbjA3CJoDPkbnptEJSFxOFzNCwtSHJ9jVQAfc2Y4OwCeALqn9WfZRVUdeURVP4Bak5pgmpYez/N5Z7mzFA2ATwBV0dXcnbH9jew8qoaeriqYGEYQnsPmuOaUL+y8jJcPhZ8h5hE8Apbb1jax+N3tU14dsTjti+Brr791/+Oz9gCrgg9wK6cHiMsAnglHqP9gZo9K6uWStmpdm+Brr7YO8HX7F9DVSQfW32cNvXwGuETQCn9dJDLw1jd1NNcvxH2xb90QLJf5mTM1NsXwOvETYBnBa7m2qj56b+aIHkv6y8LNuXwHO8UQE4I3Y31UXPTf3RAkkNoy4ctd/2NfASYRPAGbG7qS7puZmSkUJxg8akBVLbvjbbl8F3mZdlJli+BJ4ibAI4K3Y31ZW3NC/e9jXQ3TsvvkPrHZ9NmjOJYi0PETYBnBW7m+q64sdXUNyguV2Vu9id9pkU3ME7hE0AYWF3U01JI5IYX6m59+veZyKUz+RKCt0dvEPYBBAWdjfVxfhKvcnPFqMr/Xf+xed/bPsaeIWwCSBs7G6qKXdeLvOdNcfoSv9lXpY5zPY18AphE0DY2N1UE0fp+mvY2sCums+yZ2UzlcsjhE0Ag8Luppo4Stcb9zb9R3N37xA2AQyK7G7ufGInR36K4Shdb9zbVMOIMSMO2r4GXiBsAhi0mvtreO9QDEfp+ttdtZug47P0nPSjVi+AR/iFAWDQujq6kl9b/xqNqBXDUbre9vx2T6/ta+C3iy6/aLjdK+ANwiaAiPzmnt/8jZVTC0fpevvwvQ9p0O+zzMmZPAMPEDYBRKSjuSPYWNvI4imEo3S9Hfv0WBL3Nv1FkZA3CJsAIrb5ts38ZlRM9rXZHANqjH6b/qNIyH2ETQARa9rdlNG2r40FVMglP7iEY0CN0W/TfxQJuY+wCSAqz934HLsACpEZzykZKa22r4Ou6LfpP4qE3EfYBBCVt3/39pdp8q6Wbyz4xlDb10BX9Nv0H0VC7iNsAogKTd7Vc8kPLkm2fQ10tv8/9tNWzEcUCbmPsAkgajR5V0tGToYTSA7wAUBTb21+i2sQPqNIyF38ggAQNWnyThsktWRfm83dBk29t+s97gz6LPWCVIqEXETYBOAK2iCpZdKcSV+xfQ101d3ZncI9aH9lXpY5zObX7zbCJgBX0AZJLTmzc2xfAq1xUuCv7FnZaTa/frcRNgG45pUnXulkNdXBNCF97X15737b18BP6Tnp9r54DxA2Abhm5xM7j7Oa6mCakL7e+f07CbavgZ9k9GvCsAS6AriEsAnANXLXrH5LPQuqCKYJ6euDvR9w59Znwcxgu9UL4CLCJgBXvfrkqxzdKkKmCdECSV80d/fXxf9yca/Nr99NhE0Artrz2z0ZVNKqgxZI+qK5u7/Sv54+yubX7ybCJgDXMVFIHbRA0hfN3f016sJRAZtfv5sImwBcV7u29hirqgZG7+mrpb6FXo8+4mfHPYRNAK7raO4Ict9MDVJVm5KRwg6Zhg4fOEyvR59x59kdhE0Antjx2A4CjiL++X/9MzvNmqK5u7+Sz0/mzrMLCJsAPFG3sS6elVUD01D01bS7iZ01H1GR7g7CJgBP0HNTHdw909e7r777se1r4Ccq0t1B2ATgGXpuqmP0+NF/tX0NdESRkL+oSHcHYROAZ/a+uDfI6qph4ncmMv5QQxQJ+YtTAXcQNgF4pvdob4CjdDVwb1NfFAn5i4r06BE2AXiKo3Q1sEOjL4qE/HXueecesfn1u4GwCcBTHKWrg3ubevrvd/6b9js+yrwskysoUSJsAvAUR+nq4N6mnppeb6L9jo/Ov/j8JGtfvEsImwA8x1G6Gri3qadDfz401vY18FPm5MwUe1+9OwibADzHUboauLepr7Z9bbYvgW9Gjhtp6St3D2ETgOc4SlfHiDEjDtq+BjpqrudwwC+EzegRNgHEBEfpahh/9Xju/2lo78t799u+Bn4adeEo1j8KhE0AMcFRuhomzZn0FdvXQEf739zP72sfDQ8OZ/2jwOIBiAk5Suco0H8ZORm2L4GW2t9vZ2ylj8ZeMva4tS/eBYRNADGz47Edray2v+T+GRNR9MPYSn+lfz19lM2vP1qETQAx8/bv3j7Gavvv/IvP/9j2NdARJwP+GXXhqICtr90NhE0AMSO7M7Rw8V/mZZkcyWqInx3/UJEeHcImgJh681dvcoTrM5q764mKdP8QNqND2AQQUw1bGzjC9RnN3fVERbq/6FEbOb5xAcRU0+4myqEVwC9O/VCR7q9hScN6bH790SBsAoi5xtpGFt1n6TnpR61eAA1Rke6vCd+eYPPLjwphE0DM7f6/u2mB5LOLLr9ouNULoCmKhPwTPzQ+0dbXHi3CJoCYowWS/zInZ6bYvgY6Imz6h8K6yBE2AcScHAd2He5i4X1EkZCeGp5v4K4ttEPYBOAL7m36j0lC+vm49eNe29fAL3xAixxhE4AvXn3yVcah+IxJQvpper2JsAntEDYB+OK9Xe9RoOIzJgnp56MPP/qy7WvgJ1qGRYawCcAX3Z3dKRQ7+IuCB/3Iz43ta+Anem1GhrAJwDfvvPhON6vvH0bw6am5nhsofsm8LDPBzlceHcImAN+8++q77ay+fyRsJgxLIPBrpvswj8wvgeQAd2YjQNgE4Ju9L+5ll8BnqRekHrJ6ATRE+yP/pH89fZStrz0ahE0AvqHfpv84FtTPsU+PcW/QJ6MuHBWw8oVHibAJwFf02/TX+Refn2Tz69fRO79/hw8IPgmMIGtGgrAJwFd7X967nyfgH8ZW6qfnSA9h0ycZORlWvu5oETYB+IpdGn+l56Tb/PK1JNdPbF8D6IWwCcBXH+z94Cs8Af8kjUiiIl1D3HX2z6gLR3EaM0iETQC+o2+gv6hI109LfYvtSwCNEDYB+G7/f+xnZ81Ho7JG8bsACBM/L4PHggHw3R9/88cjPAX/jB4/mhnpmqHXpn/O++p5x2197ZEibALw3f43uQLlJ2ak64dem9AJYROA76iu9Re9A/VDFwf/jL9y/FhbX3ukCJsAlECRkH/oHaif473HmdHtE+nggMEhbAJQAkVC/gokBzpsfv26aX+/nRndPuEkYPAImwCU8O6r77bzJPxz7nnnUqSlkd6jvSQen3ASMHiETQBKaHq9iWNBH2VelskdQM207WuzfQmgCcImACUc+vMhLt37KJAcIOxrhrDpH6ZuDQ5hE4Ay+OXpHypsgfAxdWtwCJsAlEHY9A8VtvqhsTt0QdgEoAx+efonPSfd1peuLRq7+2d4cDj5aRBYLADK+GDvB0d5Gv5gZ1M/3Z3dFHX5ZOwlYxlZOQiETQDKONR4iDdwH40YM4KdZY3QwQG6IGwCUAYV6f4aljSMY1kgDPFD4xNZp/ARNgEopetwFw/EJ6OyRvE7QSMfffjRl21fA79kz8pOs/OVR4Y3FgBKaalv4YH45Lyvnsc1Bo10d3an2L4G0ANhE4BSmnY3MaPbJyPGjGCnDIDrCJsAlHL4wGFmdPskc3ImO2WaoTetP0aOG2njy44YYROAUt75/Tu0cwHCRNj0B2FzcAibAJRyvPc47Vx8kpWXZeXrBuAtwiYApdD+CAjfoT8f6ma5oDrCJgDgMwnDEggvGmn5Y8sh29fAL4HkAMWMYSJsAlBOY20jD8UnqRekEl6AMJx73rkUM4Yp4rBZ0VdRG+svFgAAAHphZxOAchqeb2BGt0+YIqQXujcghuoj/aeifVPZz1MG4LZjnx5jRrdPmCKkF7o3+Gd4cLhVH8wq+ioOR/pno12ofVH+eQD4gv1v7md3DYDSxl4y1qYPZg3R/OFo39C5twnAdR+3fszumk/Sv54+ysoXDuBMIj5Cd1wIm1H94wBwKh99+BEzun0y6sJRAStfuKboS4sYiWpzkZ1NAMrp7uxmRjcAqMO/sHnisuhWvhkAAIBN4ofGJ1rycvdX9FVEVaPjxiX8LS78HQDwOc31zSyID5iPDoQne1Z2miVLFXXOI2wCUFL3YaYmAuHoOtzFOsFLD0f7d0cdNk8cpf+SxwwAQOy11Lew6vDKK9EeoTsuThCKOvUCwEBNu5s6WBAA8NUKN/5xV8JmRV+FtEB6xY2/CwDE4QOHj7AQ/hh14SimwwGQXU1Xug65OaXjOhf/LgAAAPjHlV1Nx82weeJM/xG3/j4AdvvwvQ8ZWQlAWek56SY/nK1u7Wo6Lu9sOidSMMcvAKJ2qPEQIyuBMBz68yFaN/ggaUSSqS+t03GcG938C10Nmycq0zlOBwCNDUkYksDz00fLH1sO2b4GcNWNblSgD+T6MdWJbde73f57AQCxcfG/XNzLUgNW+mVFX8XTbr9wT+5EVfRVrGCMJYBoHO06assoOABQQYPbx+chXl7Av+7EFw4Ag3b4wGFbRsEBgN8kr+WduA7pOs/C5okvOI/ACQAAoCxPg6bj8c4mgRMAAEBdngdNx+uw6Xw+cDI/HQAAQA2vxCJoipi0twi1RCqMK5Sxlg/F4t8EAEQmfmg8xVmA2e4+UcwdEzGd0FHRV/Gw4ziTOFYHEI6uw12skw+yZ2VTnKURpm35J5Ac6NDsS5bBO9NiGTSdWIdN5++Bs76iryLnRC/Ozlj/+wD00VLfwtMCzoJpW/4597xzj2jypXaeyF05bo6hDJdvn4ZOpOpxhE4AAADP/PJEyFwRi/uZp+LrSLITL3pFYVzhwyf6ckoz0bF+fk0AAACak+NymQT0sF8BcyAl5t+eWAgJnA8XxhXmnAieUsGercCXBwAAoDqph5Ej8qflyqJKX6sSYXOgEwvUPy6pMK5whGz9ngieof8OwBJDEoYMdxznY553bLHuejl31LlHHcfZZ/s6+EHW/tCfD/m19pKXDp8ImPUq7GCeTlxfX5+aXxkAAAC0R7sEAAAAeIawCQAAAM8QNgEAAOAZwiYAAAA8Q9gEAACAZwibAAAA8AxhEwAAAJ4hbAIAAMAzhE0AAAB4hrAJAAAAzxA2AQAA4BnCJgAAADxD2AQAAIBnCJsAAADwhuM4/z+DfeZXkImKhAAAAABJRU5ErkJggg==;fontSize=8;fontStyle=1;fontColor=light-dark(#660066, #25a599);" vertex="1" parent="1">
                    <mxGeometry x="610" y="76" width="40.54" height="40" as="geometry"/>
                </mxCell>
                <mxCell id="37" value="&lt;font style=&quot;color: rgb(0, 149, 135);&quot;&gt;Location&lt;/font&gt;" style="sketch=0;outlineConnect=0;fontColor=#232F3E;gradientColor=none;fillColor=light-dark(#009587, #61820b);strokeColor=none;dashed=0;verticalLabelPosition=bottom;verticalAlign=top;align=center;html=1;fontSize=8;fontStyle=1;aspect=fixed;pointerEvents=1;shape=mxgraph.aws4.iot_core_device_location;" vertex="1" parent="1">
                    <mxGeometry x="560.54" y="145" width="40" height="40" as="geometry"/>
                </mxCell>
                <mxCell id="38" value="&lt;font style=&quot;color: rgb(0, 149, 135);&quot;&gt;Sleep&lt;/font&gt;" style="image;aspect=fixed;perimeter=ellipsePerimeter;html=1;align=center;shadow=0;dashed=0;fontColor=#000000;labelBackgroundColor=default;fontSize=8;spacingTop=0;image=img/lib/ibm/management/push_notifications.svg;fontStyle=1" vertex="1" parent="1">
                    <mxGeometry x="610.54" y="145" width="40" height="40" as="geometry"/>
                </mxCell>
                <mxCell id="40" value="&lt;b&gt;&lt;font style=&quot;color: rgb(0, 149, 135);&quot;&gt;Setup&lt;/font&gt;&lt;/b&gt;" style="rounded=1;whiteSpace=wrap;html=1;strokeWidth=2;strokeColor=light-dark(#009587, #ededed);" vertex="1" parent="1">
                    <mxGeometry x="495" y="124.5" width="50" height="30" as="geometry"/>
                </mxCell>
                <mxCell id="42" value="&lt;font style=&quot;color: rgb(0, 149, 135);&quot;&gt;EEPROM&lt;/font&gt;" style="sketch=0;outlineConnect=0;fontColor=#232F3E;gradientColor=none;fillColor=#009587;strokeColor=none;dashed=0;verticalLabelPosition=bottom;verticalAlign=top;align=center;html=1;fontSize=16;fontStyle=1;aspect=fixed;pointerEvents=1;shape=mxgraph.aws4.elastic_file_system_standard;" vertex="1" parent="1">
                    <mxGeometry x="532.54" y="260" width="78" height="78" as="geometry"/>
                </mxCell>
                <mxCell id="45" value="" style="shape=process;whiteSpace=wrap;html=1;backgroundOutline=1;strokeWidth=2;strokeColor=#009587;" vertex="1" parent="1">
                    <mxGeometry x="219" y="259" width="242" height="80" as="geometry"/>
                </mxCell>
                <mxCell id="46" style="edgeStyle=none;html=1;strokeWidth=2;strokeColor=#009587;entryX=1;entryY=0.5;entryDx=0;entryDy=0;" edge="1" parent="1" source="42" target="45">
                    <mxGeometry relative="1" as="geometry">
                        <mxPoint x="581" y="222" as="sourcePoint"/>
                        <mxPoint x="581" y="270" as="targetPoint"/>
                    </mxGeometry>
                </mxCell>
                <mxCell id="47" value="&lt;b&gt;&lt;font style=&quot;color: rgb(0, 149, 135);&quot;&gt;Config&lt;/font&gt;&lt;/b&gt;" style="rounded=1;whiteSpace=wrap;html=1;strokeWidth=2;strokeColor=light-dark(#009587, #ededed);" vertex="1" parent="1">
                    <mxGeometry x="260" y="284" width="50" height="30" as="geometry"/>
                </mxCell>
                <mxCell id="48" value="&lt;font style=&quot;color: rgb(0, 122, 255);&quot;&gt;WiFi&lt;/font&gt;" style="html=1;strokeWidth=1;shadow=0;dashed=0;shape=mxgraph.ios7.misc.wifi;fillColor=#007AFF;strokeColor=none;buttonText=;strokeColor2=#222222;fontColor=#222222;fontSize=8;verticalLabelPosition=bottom;verticalAlign=top;align=center;sketch=0;fontStyle=1" vertex="1" parent="1">
                    <mxGeometry x="330" y="275" width="40" height="40" as="geometry"/>
                </mxCell>
                <mxCell id="49" value="MQTT" style="shape=image;verticalLabelPosition=bottom;labelBackgroundColor=default;verticalAlign=top;aspect=fixed;imageAspect=0;image=data:image/png,iVBORw0KGgoAAAANSUhEUgAAApsAAAKcCAYAAACnl3HcAAAACXBIWXMAABcRAAAXEQHKJvM/AAAgAElEQVR4nO3dDXSV5Znv/yckYHaKDQlbgjQRJtUUB6YJmb+VCtqgDtBaKhDOaqEnjKfgSsF2oUZq1GhRIgYxviwVzJJYS85oXYfwUmtLqEpEcbDOxKSDSxprCiZlBPNC0CYRA/mvK2U7EXnZ2ft59nO/fD9rda32nAGy7yfZ+e37vq/riuvr63MAAAAALwxhVQEAAOAVwiYAAAA8Q9gEAACAZwibAAAA8AxhEwAAAJ4hbAIAAMAzhE0AAAB4hrAJAAAAzxA2AQAA4BnCJgAAADxD2AQAAIBnCJsAAADwDGETAAAAniFsAgAAwDMJOixtYVxhnuM4IxzHyVHgywG0cdHlF42fu3ruB5nfzDzMUwMi96uf/iprx2M7GllCKKTecZzDFX0Vtao/lLi+vj4FvozPK4wrnO04Tt6J/2Sr9LUBOkrJSGnNW5oXf8WPr0hJGpHEMwQGqetwl7NuzrrWxtrGIGsHBTU4jiOhs7air2KLal+eMmGzMK5Qdi1vdBxHgmayAl8SYKTMyZnNM26dkZEzm4MCYLDqquu6KhdUxvUe7Q2weFBUp+M4EjifVmXX0/eweeKIfIXjON/y9QsBLJMwLKF7wrcnHJm1YlZaRk4Gjx8IU9u+Nmft7LWtLQ0t7HJCdbLj+XBFX8XTfn6dvoVNQiagDo7ZgcHb/sD2nurl1YksHTQgofNGv3Y6Yx42C+MKR5wImcti+g8DCAvH7ED4muubnce/93hrR3MHu5zQwVbHca6r6KuIadFoTMPmiXuZco9gbMz+UQARCSQHOnLn5R67puSa4MhxI1lE4DSkeGjjLRtbd1XuInBCB3Knc3YsdzljFjYL4wqvcxznFzH5xwC4aszEMQevWnbVl6cunkpRBHAajbWNziMzH+np/aSXo3Xo4O6KvooVsfg6YxI2C+MK5WLqv3r+DwHwlBQVXVpw6d/Y7QROjRZJ0MwvK/oqrvP6S/Y8bBI0ATOx2wmcnhQPbbl9y/Fjnx6j4g6q8zxweho2CZqA+djtBE6N4iFoxNPA6VnYLIwrlHsAP/fkLwegJCrZgS/asHgDxUPQgWeB05OweWLc5GbX/2IAWpBK9it+fMWQmcUzk+nbCZyYPPTDyiEUD0FxN1X0VTzs9pfoetgsjCscd2I4PCMnATgTvzOxecbyGRlZeVksBqwmxUPleeVMHoLqJlX0VdS7+TV6ETZrmQoE4GQypei7d333SxQUwXZMHoLi9juOk+Nm43dXw2ZhXOGNjuM85NpfCMA4UlB01U1XHf3Wj7+VTEERbCXFQw9e+WBnV0cXp4BQkas9OF0LmyfGUO7j+BxAuDhih83oyQnF/UNFX8U+N75EN8Pmw8w7BxAJenbCZq+tf637maXP9NGTE4pxrTrdlbB5oijoL2qtEQDdUMUOW9GTE4pyZXdziEuvzfNRRwDM193ZnVKzuiZ5edry7rWz1x5s29fGU4cVMnIynLv+eFcwNz+3nScOhbhyb9Otnc3D3NUE4AXudcI2/T05F1TG9R7t5VoJVJASbWV61GGTBu4AYkHudV678to0phPBBrKrX55X3t62vy2VBw6fRd3o3Y1j9Nl8FwDw2oE9B9LWzVnn3JR6U6cUVLDgMJm0BVu1b1XqlEVTWnnQ8FnUVyXd2NnkCB1AzIX6dVJMBNNxrA4FRHWUHlXYLIwrzHMcZwffBQD8QpN42IBjdfhsTkVfxZZIv4Roj9HzePoA/CS7PVLBfvs/3O5QwQ5TyQepkvqSVKrV4ZOo8l60YZOb+gCU0bC1IY3QCVPJdZHCjYWpBU8WdMcPje/iQSOGosp70R6j1zuOk83TBqCizMmZzXPum0PbJBiHJvCItYq+irhI/8low6Y7sy4BwEPSNmn+o/PTCJ0wicxWr1pc1V5XXcc9TniOsAkAYSB0wkTbH9jeU728OpGHC49Nq+irqI3kn4g4bBbGFcr5/Vs8WQC6IXTCNHKs/uCVD3Z2dXTRihBeiThsRlMgNILHCUBH0iC+fFq5c/c/3X2wsbaRZwjtyWz1e5vuTU7PTqcJPJTjxgQhANASoRMmkWr1O+vvDM64dUYnDxYqIWwCsB6hEyaZWzY3uXBjYZcMPODBQgWETQA4gdAJU+Tm5ybd86d7AiPHjqQJPHxH2ASAkxA6YQKmDkEVhE0AOA1CJ3QXmjqUvya/h4cJvxA2AeAsQqGzfFp5K2MwoaPpt0xPLHmrxEk4J4HQiZgjbAJAmBprG4PMXoeupD3Smg/WJHKPE7FG2ASAQWrY2pAWCp0yMhDQhRyrr9q3inuciCnCJgBESELn8rTl3ZuKN3USOqETucdZ8GQBrZEQE4RNAIhC79HeQM3qmuRQ6GQtoYupi6cGuMeJWCBsAoALQqHzptSbOl9b/xo7RtAC9zgRC4RNAHBRV0dXctX1VQEJnbRLgg64xwmvETYBwAMSOkM9Opvrm1liKI9+nPAKYRMAPCQ9OksnldIuCVqQfpxFO4oc5qrDTYRNAIiBULskKtehuqy8LKf4jeJASkZKKw8LbiBsAkAM9Veuj17eQxERVCaFQ3f98a5gVl4WgRNRI2wCQIz1ftKbSBERVCeFQ0U7ioJTFk0hcCIqhE0A8EmoiGhlzkpmrkNZC9cvDNIAHtEgbAKAz1oaWvpnrm9YvKGV+5xQ0WcN4CkcQgQImwCgiF2Vu4IyiWj7A9tpPwPlyD3Oe/50T4AG8BgswiYAKEQmEVUvr07kPidUNHLcSKekviSVwiEMBmETABQUus9ZPq2c+5xQSqhwiIlDCBdhEwAU1ljbGKQ/J1QkE4coHEI4CJsAoAHpz3lH5h2dddV1JE4oQwqHCjcWdlE4hDMhbAKAJuRovWJeRRKtkqCS3PzcJJk4lJSS1MmDwakQNgFAM6FWSRytQxVSqX5v073JVKrjVAibAKApjtahEikcolIdp0LYBACNcbQOlVCpjlMhbAKAAThah0qoVMdAhE0AMEjoaJ2G8PCbVKpL4IwfGs+nH8sRNgHAMDSEhyokcN72h9uSaI1kt7i+vr6IFqDyh5Xf2feHfWvD+b9tf799lIxgs32xASDWZFdp9qrZQ6bfMj2RxYdfmuubnce/93hrR3NHkIegrWkVfRW1kXzxEYdNx3HyHMfZ4caKySfvU336btrd1HH4wOEjA//f9r+5f8jHrR8fD/3vIwePDO/5qGekG18HAJgqJSOl9YZf3xCUFjWAH+QucWlOaXvb/rZUHoCW9A6bbpJPT92H/75bf+jPh7pb/thySP57d2d3QtPrTb3y3492HU08fOBwmmpfOwB4bcqiKa3zHpgXlKphINYkcK6bs65VxrCy+NohbEZKvvFb6lv6/3RoJ1WC6b4/7HOO9x7v5QoAANPIpJclm5YkZ+Vl8Wzhi4p5Fe111XXscOqFsOm1gaG04fmGg8c+PdYTOtInkALQkTTfXrJ5Cbuc8IW06ZLuCay+NgibKggd4Yd2SAmjAFSXcE5Cz/zH5vdJ1TAPC7H22vrXuquur+J7Tw+ETR1I3zvZId378t79H7734ZBDjYcIogCUkJ6d3rp0y9LgyHHUWyK2JHA+s/SZvmOfHmOLXW2ETd0NDKKhHdFDfz401vZ1ARA7tEmCX+RksOzSsm42X5RG2DRVqC2U3BP9YO8HR2U3lBAKwEvscsIPBE7lETZtMzCENr3edLT9/fZhtHMC4KYZt87onFs2lwIOxAzN35VG2MTfyQ/q/v/Y3/3uq++2S19R7oQCiAbN4BFrNH9XFmETpyc7oBJC5T7oO79/J6G1qTWVAApgMNjlRCwROJVE2MTgEEABDBa7nIglpg0ph7CJ6IUC6Fub3/qrHMFTiATgVNjlRCwxbUgZhE14Q8Ln29ve7nj31Xc/fm/Xe8O7O7tTWGoA7HIilgicSiBsIjbkWEN6grL7CUDkr8nvoS8nYoHA6TvCJvwj4VNaMO357Z5e7n4C9qEvJ2KF8Za+ImxCHaGj94atDR+/X/d+kPAJmI/pQ4gVAqdvCJtQF+ETsIfschbVFgWTRjDmGt4hcPqCsAl9hMLnv//y37s+2PvBV3h0gFkSzknoWfRvi47n5ueSOOEZAmfMETahr9Cdz//8f/8Zz4gywBy5+bntBesLUtnlhFcInDFF2IQZQtXurz75ajOtlgD9JaUkdS7ZtCQ5Ky+LpwlPSOB8Zukzfcc+PcanGm8RNmEmaTT/5q/e7L/v2bS7iYZ+gKZoBA8vyfWsskvLuqkJ8BRhE3ao31Lf3+OzYWtDEruegF5oBA8vETg9R9iEfUK7nhQaAfqgRRK8ROD0FGETdpO7nnUb67rf2vxW694X99JeCVBcVl5W65LNS2iRBNcROD1D2AQGkiKj3f93d2vdxrp4jtsBNUmLpGXbliVSPAS3ETg9QdgETkfedHZX7aa1EqAoiofgBQKn6wibQDhC9zxr19YeI3gC6hg5dmR7UW1RKvPV4SYCp6sIm8Bg0VYJUEvCsITuRc8s6mPyENxE4HQNYROIRqjAaFflrlaCJ+AvJg/BbQROVxA2AbeEgudv7vnN3zhqB/xBT064jcAZNcIm4AXueAL+kZ6cC9YuiJu6eCrhAK4gcEaFsAl4LRQ8a+6vGdLV0UXlLBAjHKvDTQTOiBE2gViSN6sdj+2gjycQIxyrw03Si7l8WjlrOjiETcAvMq/91SdfbWZyEeAtjtXhptfWv9ZddX0V30vhI2wCKpA3LyraAW9xrA63EDgHhbAJqIT7nYC3OFaHWwicYSNsAqqS+53Pr3j+4Nu/e/vLHLMD7uFYHW4hcIaFsAnoQN7QXnrkpSMH9hxI44EB7piyaErrwvULaU2GqBA4z4qwCehEjtlfeeKVzp1P7DxONTsQPZmtXlJfwj1ORGVT8abOmtU1XH06NcImoCupZq9ZXdNMUREQnYRzEnqWbVuWmJWXxUoiYhXzKtrrqutSWcEvIGwCumO3E3BH/pr8num3TE9kOREpAucpETYBk7DbCUQnKy+rdcnmJUGO1REpAucXEDYBE8lu5wulL7S+UfXGl6hkBwaH9kiI1sqcla0tDS0Un/1dxGFziAdfDACXjBw30pEq28c/eTxQ8GRB95iJYw6ytkB4Opo7gjIDu666roslQySKaouCUnzG4kWHnU1AM6G+nQ1bG2ifBISJ9kiIVNfhLqc0p7S9bX+b7UfqHKMDtpE3wG1l2ygoAsKUnp3eKjtV3OPEYMn77R2Zd3RaPhGOY3TANvILc27Z3OSHDz+cwhE7cHZy904Cg5wOAIMh77c3v3xzcsKwhG4WbvDY2QQMwhE7cHYSGBY9s6gvNz+XLU4MirzHyj1gSws22dkE4DhSdbt0y9K0VX9Z5cy4dUYnn8KBL5KgUDGvIkmmxbA8GAx5j11Ws4zOIINE2AQMJFXscsS+5uCa/ir2pJQkfqkCJ5GxhOXTylvlPh4QLplQJe+rLFj4CJuAweSe0dTFUwMPtT+UvGTzEod7ncDnNdY2Bvsrjfe1sTIIm7yvEjjDR9gELJEzO8f5+X/9PK1oR5Ez8TsTqZAATpCWNnd97a7uxtpGlgRhk8ApLbVYsbMjbAKWkSOgn77w0wy515l9bTY7ncCJe5zl08qd19a/xm4Vwia9W3Pzc2n6fhaETcBScq9Tioke6niIYiLghKrrq6R4iPCAsBVuLEyVHq6s2OkRNgHLhfp1SjERoRNwnLrqulSZiU3hEMLFWMszI2wC6BcKnaE57FSww2bSAP6er9/TSgN4hEPeP0vqS1J53zw1wiaALwhVsBM6YbOO5o6gNPCmcAjhYMrQ6RE2AZwWoRO2o3AIgyFN34vfKA7ED43nDsYAhE0AZ0XohO2kcGjD4g0UgeCsJHAuWLsgjpX6H4RNAGELhU7p1UmDeNhmV+WuoFSqUziEs6Hp++cRNgEMmvTqDDWIJ3TCJlKpLhOHCJw4Gwmc9OD8O8ImgIiFQmfhxsIujtdhC5k4dEfmHZ1UquNspAdnVl6W9dcvCJsAopabn5vEnU7YpKujK5lKdYRjyeYl1vfgJGwCcA2FRLAJleoIBz04CZsAPEDohE2kUn1T8Sa+z3FatvfgJGwC8EwodOavye+h0TFMVrO6JpmZ6jgTaYm0rGZZwMZFImwC8Nz0W6YnMnsdpmOmOs5GiiptbIlE2AQQE6HZ6xI6pyyaYn11JswkM9VpjYQzkRMf294DCZsAYkpC58L1C4Or/rLKyb42mx6dMI60Rlo+enkPrZFwOvIeaFNLJMImAF+MHDfSWbplaVrJWyU0hodxej/pTZTWSAROnI5NLZEImwB8JZfmQ9OIUjJSOF6HMaQ10n3fuK+L1kg4lVBLpIRzEnpMXyDCJgAlyMX5svfLgrRLgkmOfXosSVojEThxKhI4i3cXJ8YPjTf6ki9hE4BS5PL8vU33JlO5DpPQixOnI6c7C9YuiDN5gQibAJQzsHKdIiKYgl6cOB35kC0fsE1dIMImAGVJ6KSICCaRXpwETpyKfMDOzc818nuDsAlAeaEiosKNhV3c54TuJHDePu52enHiCwrWF6SaWKFO2ASgjdz83CQZf8l9TuhOenHS/B0nM7VCnbAJQDvc54QJQoGzbV8bzxOfMbFCnbAJQEvc54QJJHDe9bW7aP6OzzGtQp2wCUBrofuc0p/ThubIMI80f2faEE5mUoU6YROAEeSNec0HaxKnLJrCFCJoh8CJU5ErQybMUCdsAjCGHK0vXL8wyNE6dMR4S5yKCTPUCZsAjMPROnTFeEucTD5EF9UWpercgYOwCcBYHK1DVwRODDRy3EhnWc2ygK6LQtgEYDSO1qErAicGysrLcvLX5Gt5UkPYBGCF0NG6vFnTEB66kMC5/YHtXAVBv+m3TE/UcaQlYROAVeTNWhrCm1DhCTtUL69OZJ46QnQcaUnYBGCd/gv3O4qCRTuKHGatQwcyT53ACUfTkZaETQDWkjtQ9zbdm2xK42SYjcCJkNBIS10WhLAJwGrypi2Nkykggg4InAiRe+jS3k2HBSFsAsBJBUTxQ+O7WBOoisCJEGnvpkPBEGETAAaQAqKVjSuT0rPTKSCCsgicCNGhYIiwCQAnkQbKd9bfGSzcWNjFBCKoisAJR5MJQ4RNADiN3PzcJJlARJskqIrACUeDCUOETQA4g1CbJHY5oSoCJxzFJwzF9fX1RfQH9/1h33ePdh19/nT//4ERgf4L9wBgiq7DXc66OetaG2sbgzxUqEYKRQo3FqbyYOwmHzzkA4gHizCtoq+iNpI/GHHYLIwrzHMcZ0dEf3iAEWNGHByWNOwLSTzzssyEQHKgN/S/44fGJ2bPyk4b+H8jKR4AYq2uuq6r8oeVQ3o/6dWmzx3sQOCEfCi+5+v3tHY0d7j9oVjfsOkWuRibekHqIfnrhiQMSbj4Xy7uD6oDQyq7rQDcwi4nVEXgRHN9s1N2aVl379FeN+9xEjYHK5Ac6Dj3vHOPDAym468cP1buZ8lFW/kPAJwNu5xQEYET8t5UMa8iycWFIGx6IbRbOjw4fMjYS8YeHzFmxJczJ2emsEMKYCB2OaEiAic2LN7Quqtyl1vvS4RNP4TC6KisUUPO++p5x0M7o9wlBezUv8u5oDLO5aMrIGIETqzMWdna0tDiRuAkbKpmYBAdPX70MLk3yo4oYL62fW3O2tlr3XpzB6JG4LSbnLwsH728x4WrPoRNnUgFfuoFqUflaF52Q+V+KCEUMMv2B7b3bLl9y/Fjnx5z884UEBECp92kYKh0Umm0a0DYNIGE0PSc9KOhndD0nPT+htIA9CRv8I9/73EvWpAAg0bgtJt8AK5eXh3N7iZh01RyHB/MDLZLxbzsgsoOKJXygF42FW/qrFldk8xjg98InHYrn1YeTSEjYdMmBFBAP421jc66ues6uzq6CJ3wFYHTXnJ/847MOyJ9HyJs2i4UQCd+Z2ICR/CAmuSNvmpxlVej5ICwETjtJdd77vvGfV0R3CcnbOKLpHH9V6d89eOLLr9o+ISZE1IoQgLUQIskqCB/TX7P9FumM4zAQq+tf6276vqqwb7/EDZxdifvftIPFPAPLZKggoInC7qnLp7Khx4LVcyrGOwpC2ETkRl14aj9mZdlJkyaM+krEj45egdii+Ih+I3AaSe51nPP1+8ZTLcMwibcIe2Xxl89vpfwCcQOxUPwG4HTToO8v0nYhDckfE749oT4yf97cpBjd8A7zFeH3wicdhrE/U3CJmJj9PjRf/3mv34ziYIjwBsuNF4GIhI/NL7rtj/clsR7u33CvL9J2ETsScHR+KvHt06aMymYOy83wJE74A452nrwygc5VkfMyft68RvFAQKnXcK8v0nYhP84cgfcw7E6/ELgtFMY9zcJm1ALu56AOzhWhx/kPfyeP90TYDqdXc5yf5OwCbWlZKS05i3Ni7/kB5ek8OYFDA7H6vDDyLEj20vqS1LZLLDLGe5vEjahD5lslDsv99i0n0wLckwDhIdjdfiBwGmfM9zfJGxCT6Hj9suvvzwjZ3YOTxE4C47VEWsSOFftW8UcdYuc5v5mxGFziO0LCn/JbOg9v92TsW7OOueGc27ofvSaR5vrt9TzVIDTkFnWJW+VOAnnJPSwRoiFtv1tqXK0ymLbQ04dF6xdEOfWCyZsQhkETyA88otgzQdrEtOz01tZMsSC3OEjcNpFGvxn5WW58h5D2ISSCJ7Amckdujvr7wzOuHVGJ0uFWJDAKbP8WWx7LNm8JJiUkhT1MydsQnkET+D05pbNTS7cWNgl959ZJnitZnVNsrTHYaHtIB9qb3755qi7YBA2oZWTg+fa2WsPykVmwGa5+blJ0oRbWozxjQCvSR9GAqc95NpO/pr8ntHjRw+P9EVTjQ4jhNopXVNyTZA+nrCVtCypWlwVzoxjICrMUbfPvj/smzXuG+N+E8kLJ2zCOLK78927vvslJhfBVrRHQiww1tI60xzHoc8mcLLMyZnNM26dQQ9PWKexttF5ZMYj3XL1hKcPr0jxyL1N9ybzwd4KhE3gTOQT+KUFl/6NY3bYpG1fm1OeV94ufRJ58PAKU4asQdgEwsUxO2zCPU7EgvR8lVZcLLbRIg6bVKPDOjLvVaopl6ctp5odxpMPVIUbC1PpxwkvtTS0BGn6jtNhZxNgtxOWqKuu66pcUBnHPU54RT7USO9XFthIHKMDbpC7nRO+PeHIrBWz0qiwhIlkJ//BKx/s7OroIhDAEwVPFnTLqENW1ziETcBtod1O3jRhGrnHWZ5X3ipHnzxceKFoR5GTlZfF2pqFO5uA20J3O2VS0YbFG1qlshcwQWiuem5+Lnfs4Alpu8V9eIQQNoGzkPttuyp3BW//h9ud1d9c3Sz9CwETSOGQHHnyMOE2ed/sv65xuIu1BWETGIym3U0Z5dPKnZtSb+qU2cC8kUJ3ck1EjjzlvjIPE26Se8GlOaXtvE+CsAlEQN5EQ+2TOGKH7uRunYwdlGkwPEy4SQYKSJ9XFtVuhE0gCgOP2B+95lGO2KEt6b4gYwdlGgxPEW6SgQLyoZxFtRdhE3DJnt/u6T9iv/uf7j74+tOvs6zQjhQOrdq3KpXCIbhNPpTL1SMW1k6ETcBlB/YcSPvl//nlZ/c6WV/oholD8IJcPaJC3U6ETcAjoXud0jppU/EmqjKhFZkCQ6U63FZ2aVk3d9ztQ9gEPCb3OmtW1yRTTATdUKkOt8n7YXleORXqliFsAjEysJho7ey1Bwmd0AGV6nCbVKjLBCsW1h6ETcAHDVsb0gid0AWV6nCbjEqlQt0ehE3AR6HQKRXstE2CyqRSvaS+JDU9O52AAFdQoW4PwiagAKlgD7VNInRCVcxUh9uoULcDYRNQCKETOpDWSFMWTWGHE66gQt18hE1AQYROqG7h+oVBWiPBDVSom4+wCSiM0AmVSWskCZzxQ+NJCYgKM9TNRtgENDAwdHK/CSqRwHnbH25LohcnoiUz1GUABgtpHsImoBEJnaWTSmmZBKVIayTpxUngRLRkAEZddR075YYhbAIaok8nVCOB854/3ROgFyeiVbmgMo4THLMQNgGNhUKnNEfmcj38NnLcyP5enAROREMKhh7/3uO8pxmEsAkYQJojy+x1ue/EGzT8FGr+TuBENDqaO4Lr5qyjvZYhCJuAIWQ3QO47LR+9vIepHPCTBM5V+1al0vwd0WisbQxSMGQGwiZgmN5PehNlKsdNqTd1ctEefpLm7wRORIOCITMQNgFDdXV0JVfMq0iiRyf8ROBEtCgY0h9hEzBcqEcnlevwC+MtEQ0KhvRH2AQsEapcp4gIfmC8JaIhBUNMGNIXYROwDEVE8EtovCUPAJGQCUPbH9jew+Lph7AJWChURFR8QXEr9zkRSwRORKN6eXUi71n6IWwCFpOjKbnPWT6tvJX7nIgVAiei8cjMR3q4CqQXwiaA/n52d2bd2UVPO8QKgRORkpOZ8rxyCs40QtgE0O/Yp8eS5D4n/TkRKxI4S94qcRKGJRA6MSgtDS1BGdPLqumBsAngc0L9OVfmrORoHZ7LyMlwit8oDhA4MVgyppcPxnogbAI4Jdk5oFUSYoHAiUhJw3c+FKuPsAngjORo/Y7MOzqpAIWXCJyIhDR8L88rp/+m4gibAM5KjtapWofXCJyIRNv+ttSKeRUEToURNgGELVS1TmNleIXAiUhIw3cGVaiLsAlgUKRqXRorS0P45vpmFg+uI3AiEs8sfaaP9yQ1ETYBREQawpdOKnWk/QgFRHAbgRODJR+EH//e47wfKYiwCSAq0n5ECohoQQK3ETgxWPIhuGpxFfc3FUPYBBC1UG9OKSBiVwFuInBisLi/qR7CJgDXSAHR8tHLe3ijh5sInBgsub9J5wx1EDYBuErmFlddXxVgAhHcRODEYMj9TfpvqoOwCcATMoGINklwE4ETgyH9N5mfrgbCJgDPhNokscsJt0jgXPTMoj4WFOFgfroaCJsAPMcuJ9yUm5+bVAuDwNkAACAASURBVPBkAbubCEvlDyuHULjoL8ImgJhglxNumrp4aoDAiXDIPfLyvHKO031E2AQQU+xywi0EToRL3nc2FW/qZMH8QdgEEHMDdzk53kI0CJwIV83qmmTGWfqDsAnAN7LbIH05ucCPaBA4Ea4Hr3ywkw+4sUfYBOAruU/F9CFESwJnbn4ufRVxRjLtjHGWsUfYBKAEmT4kM9Ybaxt5IIhI4cbCVAInzkbGWXKaEluETQDKkF2H8mnlDo2YESkCJ8JRuaAyjq4YsUPYBKAcacRcfEFxK5f5EQkJnFl5WXxgwWn1Hu0NrJ29lu+RGCFsAlBSR3NH8L5v3EeLJERkyeYlwZFjR7LDidOiHVLsEDYBKCvUIoniIQxW0ogkp6S+JJXAiTOhHVJsEDYBKE+Kh6RFEsVDGIxQ4ExKSWL3Cqf1+Pce58OsxwibALTQP3JuWrnDsRcGQwLnzS/fnJwwLIE+nDglubKz8ZaN3N/0EGETgFbk2Iv56hiMjJwMp/iN4gCBE6cjRYmcnHiHsAlAO3Kx/66v3dVNrzyESwLnspplARYMp/PIzEd6OE73BmETgJakdYlMHqInJ8KVlZflMNYSpyNXddbNWcf7iQcImwC0Jsdft4+7vZ1jdYSDOeo4EylG5MTEfYRNANpr29+WyrE6wsUcdZxJ5Q8rh3Cc7i7CJgAjhI7VqVZHOBhridPp73yRV85xuosImwCMEqpWZ2cCZyOBk6bvOBUpQmR6mXsImwCMI78opAk8k0FwNkwZwulsuX3Lce6Cu4OwCcBIchRWOqnUYXcCZyJN34tqi1LpwYmTybjctbPXcpzugvgVK1ZE9LccevfQP37a/enUL6V+qXPgf4YmDv2k56Oe4Yq9TgCWeuf37yQc2HOg/R+n/2NgaOJQvg3wBRI4vz7r60Nf/8Xr3cePHeebBJ85cvBI0jnDz+n56mVfTWBVnF86jrMvkj8Y19fXF+k/muc4zo7B/qFTdehveL7h4LFPj322+yC/HI73Hu+V//7Rhx99ubuzOyXSLxIAhByVyg7WyHEjWQ+cknQzkCIzVgcDxQ+N71rZuDKJ9w5nmuM4tZH8wZiHzWjIhf+W+pb+v+HQnw91t/yx5ZAzIJwSTAGciRyVyhQZae4NnMpr61/rrrq+iklD+Jz07PTWO+vvDFq+KnaEzXANDKWhXdP9b+4f8nHrx8cP/fnQWBW/ZgCxk78mv2f6LdMTWXKcSsW8iva66rpUFgcD8b5B2Bw0Oc6XULr35b37uzu7E5peb+ptf799lPTq0+ylAIiA9FgsWF+QKvf1gJOVTytvlWkyLAxCOE4nbLpqYBCVHdH299uHHT5wOM2glwiAe5w4A/kdUJpT2i7TqVgnhFh+nE7YjAXp2Sc9tySEyj3Rzv/uTOKOKKA3ucdZ/EZxICMngyeJz5HAKf1apY0WK4MQi4/TCZt+Cd0Pbdrd1PHuq+9+3FLfwi4ooKGCJwu6ZWY2zw4DySbDfd+4r0t6LrIwcOw+TidsqkaO4gmggF7kHqeMMOSxYSAq1HGyrLys1qIdRbYdpxM2dSABVKrjm15vOvp+3ftBipEA9cidrKLaoiCFQxhoU/GmTpm7z6IgpHBjYVdufq5NbxSETR3J/c93Xnyn+91X323f++LeBHY/ATWkZKS03vDrG4Lc48RAtETCQAnnJPSs+WBNokUfTAmbJpD7n7L7+dbmt/5K+AT8ReEQTkaFOk5m2XE6YdNEhE/AfxQOYSAq1HGyoh1FjiVTyQibNhgYPhu2NtB2CYiRKYumtC5cv5AG3+gnFeqlk0pZDPRLSknqvLfp3mQLjtMJmzYK3fncVbmrlYIjwFtUqmMgKtQxkCUfSAmb+Pun7d1Vuw/+5//7z/iO5g52YQCXycShkvoSRlyi34bFG1p3Ve7ivRb9St4qcQy/403YxOcN3PVs2t1EhQPgEirVMdDKnJWtLQ0tBE70vzeUvV9m8vcCYRNnVr+l3nn1yVeb39v13nDuegLRoVIdIXKX/o7MOzq7OrrowQlnxq0zOueWzTX1e4GwifDJcfuOx3a01m2siyd4ApGRwDn/8fkOlepgpCVCDB9lSdhEZELB8+3fvX2M1krA4NEaCQ4FQxhAppDdWX+nicfphE1ET+55vvmrNztq7q8ZwpEQED7Dj84QJgqGEGLoKEvCJtzFUTswOLRGgkPBEE4wdJQlYRPeCQXPN6re+BK9PIHTk8BZsL6A1kgWo2AIIQb23iRsIjZCVe17fruHMlzgFOjFCSYMIcSw3puETcSWfHqv21jX/dIjLx05sOcAhUXAAAROUDAEx7zem4RN+EcKi1554pXOnU/sPM79TuDvZF7yzS/fnEwvTntVzKtor6uu4x6v5fLX5PdMv2V6ogGrQNiEGjhmB/4Hzd/tJidApTml7W372wicFpP3gTUH1wQMOOkgbEIt8ia784mdtFGC9QicdpOTn7u+dlc3xZV2y742++DSLUt1v3IWcdgc4v7XAjiOfIKbWTwz5aH2h5KLdhQ5E78zsZllgY0kZJRdWtbdWNvI87eQTJJZ9MyiiHd1YIaGrQ1pNr8HsLOJmJHdzm1l27jbCWsxbcheNHyHAcVC7GxCfbLbKVNWHj78cMqSzUucMRPHHOSxwSZSnSxVyjx0+0i/RelSYPs62KyjuSO4/YHtPTYuATub8JXcZ3ruxucOvv27t7/MnSbYgh1OO8npzvLRy3t6P+k1oTIZEdC8WIidTehJ7jPJpWn54Ztz35wOaRfDo4Tp2OG0kwSMZduWETQtJpsqT1/3tHWnevErVqyI9M+OcxznOne/HNhqaOJQ58KpFwZm3jozMSU9pbv1L63tHx36aDjfEDDVH5//41D5Xr8g94KhPGR7yAfsT3s+7Xxv13uETksd/NPB4V/L+1r/94Jmfuk4zr5IvmSO0aEsqdyrWVNDz04YbcatMzrlLjNP2S4rc1a2tjS0UDBkKU2LhThGh3my8rKcn77w04xVf1nV36OMRwwT1ayuSZZJMzxcuyzdsjQo9/dsXwdbSbGQTVdpCJtQXuhe50MdD/XvAvEGDdPISEMCp13ov4lnf/JsnBSN2YCwCW2EWidJMRGhE6YhcNonNz83acqiKa22r4OtpCvBxls2WvH8ubMJrckxRPXPqo8yEhOmyM3PbS/cWMgsbYvcPu525qdbTK6KaVIsxJ1N2El6FcpITOlbSNskmIAdTvsU1Ralxg+Nt+M8FV+wdvZa43c3CZswAqETJiFw2kV2tRasXRBn+zrYSroSmD43nbAJoxA6YQoCp13kvUuuUNi+DrZaN3ed0b+vCJswEqETJiBw2qVgfUEq71d2kroDk+emEzZhtIGhM+GcBGN/kGEuCZybijcRQCwgHTdufvlmih0ttfWOrX2mtkJiXCWsICMBp/1kWoLjOJ3739zfd/zYcUYEQhsy2pDRlnZIHp3MOEtLye+lj1s/bs3+XnaSoisQ8bhKdjZhjZP7dFL9CZ1UXV8VsGniiM3kfSo9O53+mxbaVbkr2LavzbgXTtiEdUKhc2XjyiTGYEInBE57yDhLPhDbycRWSIRNWCs0BlMa6rKLAF0QOO1AOyR7mdgKibAJ68mb+p31dwaLdhQ5KRkphE4oj8BpBylwzMrL4j3JQk8tfMqo507YBE7Iystyyt4vC9IuCTqQwNlc38yzMtySzUuCvB/Zp6O5I2jSB0rCJnAS2U24t+neZIqIoLqyS8u6CZxmkzvmSzYtoR2Shap/Vn3UlFZIhE3gFCgigg56j/YGCJzmk1OXKYumcJxuGWn0vq1smxG72oRN4AxCRUTc54SqCJx2mPfAPI7TLfTSQy8NM2F3k7AJhCF0nzN/TX5PwrAECjOgFAmcj3/v8VZTp4+A6UK2kp/tp697WvvTNcImMAjTb5meKE3hOdKCaqSgoDSntJ3Aaa6MnAxH7pLbvg62adjakKZ7o3fCJjBIssOwcP3CYMlbJc6YiWO4zwlltO1vSyVwmk3uknOlxz7P3fic1r9rCJtAhGSX4ef/9fM0jtahEgmcVYur2nko5rrh1zcEbV8D28jups6N3gmbQJRCR+tUrUMVddV1qRXzKgichuI43U7P/vRZbX/HEDYBF8jReqhqnYpRqEAC56biTXwvGorjdPsc2HNA291NwibgIqlaf6j9oWR2HaCCmtU1yYy1NBfH6fbRdYwlYRPwgOw6UEAEFchYy7rqOiqGDMRxun10HWNJ2AQ8MrCAiLGX8FPlgso4mr6bieN0+8gYS91eNGET8JgUEMnYy/TsdH4hwBehKUO69+rDqXGcbhcZY6nb7iZhE4gBGXt5Z/2dQXY54RcJnOV55fTgNBDH6faR3U2dfpYJm0AMscsJP4WavvMQzMNxul1kd3Nb2TZtPmAQNoEYY5cTfpLASQ9OM3GcbpeXHnppmC67m4RNwCfscsIv9OA0kxynT1k0hfcTS8jVGF12NwmbgI/Y5YRf6MFppnkPzAsyWMIeuuxuEjYBBYR2OUeOHcnxJmJGenDSEsksMs1syaYlybavgy102d0kbAKKkF3OVftWpVJViliiJZJ5ZJJZ9rXZDJSwhA67m4RNQDGh6UMchSEWaIlkpuuevi4t4ZyEHtvXwQY67G4SNgEFyUX/e5vuTc7Nz+VYHZ6TCvV1c9ZRWGIQOU5f9G+Ljtu+DraQO9gqn1AQNgFFyS+Lwo2FqYUbC7sShiVQyAFPNdY2Bjcs3kDgNEhufi7dLizy3I3PKXt1grAJKE5+Ydzzp3sCFA/Ba7sqdwWpUDfL0i1Lg3S6sEPD1oY0VXc3CZuABigeQqxQoW4Wee+4+uarP7V9HWyh6u4mYRPQiBQPFe0ocrj4Dy9RoW4WRlnaQ9XdTcImoBlpa7LmgzWJ3MWCV6hQN8+PNvyIUZaWUHF3k7AJaEiKh2TyEMfq8IpUqFctruKesCHovWkPFXc3CZuAxjhWh5dkhvr2B7bzvWWI/t6bdLawgmq7m4RNQHOhY3Wq1eGF6uXViY21jaytAeRE5Np7r42zfR1sILubKl2DIWwCBpBfIlKtPmXRFO5xwnWPzHiEgiFDTL9leuKYiWM4TreASlOFCJuAQRauXxgseLKgm756cBMFQ2b5UdWP0mxfAxuoNDOdsAkYZuriqYHb/nBbErPV4SYKhswh43A5BTGfSjPTCZuAgUKz1bPysviFAtdIwRAThsww74F5QQoLzafK7iZhEzCU3OMs2lFEeyS4iglDZpD3h/mPze+zfR1Mp8ruJmETMJy0R+IeJ9z04JUPdnJ/U39y5YZiIfOpsLtJ2AQswD1OuKmroyu5PK+cKxoGmP/ofIqFDKfC7iZhE7BE6B4n/TjhhpaGluCm4k18eNEck4XssPOJncf9fKGETcAioX6cufm5BE5ErWZ1TTIN3/XHZCHzdXd2p/hZ3EfYBCxUuLEwNX9NPpWoiNojMx/p4f6m3pgsZIfqn1Uf9euFEjYBS8kkkcKNhV3saCAavZ/0JnJ/U3/yfsCdbrPJXWu/djcJm4DFcvNzk4rfKA7wSwbR4P6mGZZsWpJs+xqY7jf3/OZvfrxEwiZgOQqH4Abub+pPioXSs9PZpTZYR3NH0I+fU8ImgP47WyX1JRQOISrc39Tf0i1Lg7avgeme/emzMe8+QNgE0E8CpxQOETgRKe5v6m/kuJHMTTfcgT0H0mK9u0nYBPA5Ejhl4hCrgkhwf1N//XPTKRw0Ws2ampjOnCVsAvgCmThE4ESk5P4m89P1RSsk8+357Z6Mtn1tMXudEYfNfX/YN1y2YbkQDphJAmfJWyUOOxyIBPPT9UYrJPM9d+NzMbu7GdfX1xfRHyyMK8xzHGfHYP7MqAtH7R/4v4cHhw8Ze8nYz0YopX89fdSoC0cF5L8HRgT6q2QB+Et2qMoml/XIfTweBQYjKy+rtWhHEQUnmqqrruuqmFeRZPs6mEo2EtYcXBOQnewwTXMcpzaS5Yhp2IxUIDnQce555x4ZkjAk4eJ/ubjXGRBM5TKz/AeAd2SHqjSntL1tf1sqy4zBkOsYskvOounp7n+6+6AUlNi+DqaaceuMzrllc8Ptr2p22AxHKJCOyho15Lyvnnd8/JXjx0pal75hAKJH4EQk4ofGd61sXJnEpoCe5Kpc+bRy25fBWLK7+fgnj4f7YZCweSaymKkXpB7KvCwzYXhweEL2rOw0dkSBwZPAKa1tpOKY5UO4ZGDAqn2r+JCiqbWz1x5s2NrA7qahBnH6QNiMxMAQev7F5ydlTs5MYScUOLuKeRXtddV1hAeEbZDHdVCIVC3f/g+380gMJYVgD7U/FM7PJmHTTSPGjDiYnpN+9KLLLxpOAAVOjcCJwZLuBhR+6mnD4g2tuyp3caJhqKIdReFcOyRsek0C6Pirx/dedPlFqRdffXGAI3iAwInBkR0UmcM/iOpXKEKu0CxPW97de7SXYi8DjZk45uDP/+vnZ7sqQdiMNSlIOv/i8z/OvjZ7+ISZE1L4tA5bybQYaeLNNwDCIaMQF65fyA6ZhvhZN9uqv6w6Wy0LYdNvcv/zgtwLWgmfsNFr61/rrrq+ih0PhKVwY2FXbn4u25uakd3NOzLv6Ozq6CJwGij72uyDS7csPdPuJmFTNaHwOWXRlCDH7rABgRPhSjgnoWfNB2sSOU7XDz/n5gqjyXvEYZPZ6B6Rey1Nu5sy5IdSqvhuHHFjxy/+9Rd/rd9Sb+TrBZinjnDJNKp1c9a1smD6kZ9zxliaSXLLtrJtnjxbwmaMdHd2p+zesPsr6+ask11hZ/U3VzdvK9vWEctB+IDXCJwIV2NtY1DGIbJg+sm/P3+Y7Wtgqp1P7DzuxUvjGF0BKRkprf/8v/752OSCyWnc9YQJOGpDODhO19ft425nmpihztDknWN0nXU0dwRffPDFtNJJpf3H7dLPrLm+2fZlgcbY4UQ4OE7X13VPX0fQNNRLj7x0xO1XRthUjBy3S+Ncgid0R+BEODhO15M0AJfejLavg4kO7DmQ5nbuIGwqjOAJ3RE4EY7KH1YOkbY60Mv8R+czL91Qz6943tUPEoRNTQwMnjel3tRJcRF0QeDE2XCcrid2N83VsLUhzc0PgIRNDUlD3c23bU6Rlkp3/9PdB6UYg10BqIzAibPhOF1P7G6aa+cTOzvcenGETc3J3Qqp+pWZtY9e82hzY22j7UsCRRE4cTYcp+tHdjfTs9PZlTZQzf01rmVEwqYhpBnrnt/uySifVv7ZMTtv2lANgRNnwnG6npZuWcqsewPJKapbg2gImwYKHbPflHKTw24nVEPgxJlwnK4fGccsc7VtXwcT1ayucaUqmbBpOHY7oSIJnLn5ue08HJxK1fVVn/JepZfvP/x97m4aSMZuu1GMTNi0RGi3U+52rp299iCV7PBb4cbCVAInTkXerzbespHjdI2wu2muF0pfiPpnkbBpGbnbKS0NQpXsHLHDTwROnI60euP9SS/sbprpjao3vhTtCyNsWkwq2UNH7NI+yfb1gD8InDiddXPXdbI4+mB300yySRVtRiBsov/ISton3XDODd2bijd1clcKsVawviB15NiRBE58jrw3yXsSq6IPdjfNFO28dMImPiOfXmpW1yTLvU4Zjcm9TsRK0ogkp6S+hMCJL5D3JN6L9MHuppnkJHR31e7Rkb44wia+QEKn3JeSe50UEyFWQoEzJSOFwhB8ztrZa/me0Ai7m2b6xcJffBDpCyNs4oxCxUSETsSCBM4bfn1DMGFYAneI8ZmWhpYg98r1IbubmZMzXenPCDMQNhEWQidiJSMnwyl+ozhA4MRAz/7k2Tjuk+tjzn1zMmxfA/wPwiYGhdCJWJDAuaxmWYDFRoiMsqT3pj5kZvqYiWO4u4l+hE1EhNAJr8kvK8ZaYiB6b+pl/qPzubuJfoRNRGVg6OSIC26TsZYzbp1B6xt85qmFT7G7qQl2NxFC2IQrJHRKyyT6dMJtc8vmJtP0HSEdzR3B7Q9s72FB9MDuJhzCJtw0sE8nvwzgJpkylJ6dzo4W+m29Y2sfH2r1ILubtDMDYROuk9BZvbw6UcZg1lXX8RsBriiqLQrS9B3OifeYp697muNZTXz3ru9GPVsbeiNswjMyaq5iXkXS3f9098HmelquITrSg7OotiiVlkhwTlzdoVhID3L3OiklibvXFiNswnMy5qp0UilFRIiaNIuWHpzxQ+P5RgLFQhrJvz9/mO1rYDPCJmJmYBERq45ISQ/OBWsXxLGAkGIhJgvpQXY3A8mBDtvXwVaETcRUqIhI7nNyBIZI0RIJIUwW0scVP76CzGEpHjx8Ifc5y6eVO+XTyltpCo9I0BIJDpOFtDKzeGYyd67tRNiErxprG4N3Zt3ZRaskRKJgfUEqFeqQyUJ8aFWfFPldWnDp32xfBxsRNuG7Y58eS5JWScUXFLdytI7BoEIdIWtnr2V3UwPXlFwTtH0NbETYhDLksr8crW9YvKGVO1gIV6hCnQWzW0tDC3PTNSA/r9nXZtMj1TKETShHjsTuyLyDhvAIm1SoFzxZwO6m5dbNXUfRmAZmrZjFCEvLEDahpFBDeCkgYpcT4ZAKdQqG7CbvG7RCUp98OBwzcQy7mxYhbEJpUkC0fPTyHnY5EQ6ZoU7BkN1ohaSH+Y/OZ3fTIoRNKE9am7DLiXCV1JekJpyTQHcDS8n7xbaybRynKy4rL8thhKU9CJvQBrucCIdUqC/btiyRxbKXDI6gFZL6GGFpD8ImtMIuJ8Ihuyb5a/LZ3bTYczc+x51AxeXOyw3QtswOhE1oSXY5pWKdVic4nem3TE/Mysui96KlGrY2pDXXN9u+DEqTU4irbrrqqO3rYAPCJrQVGnkpfTl5ijiVJZuXBFMyUvj+sNRTBU+xu6m4b/34W8m2r4ENCJvQnvTllOlD7GLgZLJzcsOvbwjGD43nzoWFDuw5kMbph9qkyfvE70zkzdtwhE0YQaYP3feN+5ixji+Qnn4L1i6IY2Xs9NTCp9jZVtyM5TMybF8D0xE2YYzQjHWKh3AyGr7bSz6I0uhdbVLQx3UXsxE2YZxQ8RDH6hioYH1BKr/Q7FT9s2qKUBT33bu++yXb18BkhE0YSYqHSieVOhyrI4T7m/ZijKX65PSBNkjmImzCaByrYyDub9qLMZbqow2SuQibMB7H6hiI+5t2Yoyl+miDZC7CJqwgx2hSrc5RGpwT9zeZy2yflx56aRi7m+qSNkiZkzPZFTAQYRPWkGr1quurAhXzKtjVspzc37z55ZvZRbFM79HeALubaptz3xzaIBmIsAnr1FXXpd4+7vZ2djjsJvc3Z9w6g+BhGXY31SZtkDh1MA9hE1Zq29+Wunz08h7ucdptbtnc5PTsdNohWYTdTfXN+NmM47avgWkIm7CWFAxIeyTucdpt6ZalQVqu2IXdTbVd8eMrUmxfA9MQNmE9uce5YfEGdrcsJUUJi55Z1Gf7OtiE3U21yZ1q5qWbhbAJOI6zq3JXcGXOSvpxWio3PzcpKy+LDxwWqVldk9y2r832ZVAW89LNQtgETmhpaAmW5pS28wvITks2LwlSmGCX52587qDta6AqCoXMQtgEBpDCobu+dlc3hUP2kaO7JZuW0A7JIg1bG9L4cKkuCoXMQdgETiL3uSgcspPspkxZNIXjdIu88sQr7J4pikIhcxA2gdOQwqHtD2zvYX3sMu+BeRynW4TKdHVRKGQOwiZwBtXLqxOZOGQXjtPtQmW62igUMgNhEzgLmTgkgZPdD3vIcTrThezB7qa6KBQyA2ETCIMETqlU5xeSPWS6UEpGCvc3LcDuptooFNIfYRMIk1SqEzjt8qMNPwravga2YHdTXRQK6Y+wCQwCM9XtQnW6PdjdVJfco86cnMmbrsYIm8AgyUz1skvL6MVpCarT7SG7m7avgapm3EqhkM4Im0AEZBeEwGkHqtPtIT/X9NdVU87sHCdhWALPRlOETSBCocDZWNvIEhqO43R7VP+s+qjta6CqSwsu/Zvta6ArwiYQBQmc5dPKmTZkATlOTzgngSb/huvq6Erm51lN15RcQ8GepgibgAtk2hC/oMwmx+mL/m0RLVgswO6mmkaOG+nQjkxPhE3AJQRO8+Xm5yZl5WXxy85wsrvJ9Rg15S3Ni7d9DXRE2ARcROA033W/uC4YPzSehoyGe/anzx60fQ1URM9NPRE2AZcROM0mR3mzV83mvdNwB/YcSKPbhHrouakn3jABDxA4zTb9lumJ3B0z3/Mrnmd3U0H03NQPYRPwCIHTbIyyNF/D1oa0tn1tti+Dcui5qR/CJuAhAqe5pPdm9rXZ7HwZ7oXSF9jBVtCEb084Yvsa6ISwCXiMwGmu656+Lo3em2Z7o+qNL3Udph5MNbNWzEqzfQ10QtgEYkACJ61UzCPFCvMfm99n+zqYTAY31G2s48OiYjJyMpxAcqDD9nXQBWETiJFHZjzCLHUDTV08NTBm4hiO0w1Gk3c15c7LPWb7GuiCsAnESGiWOoHTPPMfnc+RnsGkyXv9lnrbl0E5034yjSI9TRA2gRgicJqJYiHzbb1zK89XMXKUTgsyPRA2gRiTwPnglQ92UnRglv5iIdqxGEuavNMGST2Mr9QDYRPwgRzLleaUthM4zSHFQlfddBV3+wz23I3PsbupmEt+cAnjKzVA2AR80ra/LZXAaZa5ZXOTk1KSOm1fB1O9/bu3v8zPq1pkfCxH6eojbAI+ksBZtbiqnWdgjiWbliTbvgamkiswO5/YSbsdxXCUrj7CJuCzuuq61Ip5FQROQ0ixEK2QzFVzfw2/NxXDUbr6+KEBFCCBc/sD25lEY4gfVf2IVkiGog2SejhKVx9hE1BE9fLqRMZamkFastAKyVw1q2voXaYYjtLVRtgEFPLM0mf66MFpBlohmatpd1MGbZDUwlG62gibgEKOfXosSZq+84tMf7RCMtsrT7xC1wGFcJSuNsImoBipeC3PK6clLQTbJQAAFGFJREFUkgFmFs9MTjgngbu4Btr5xM7jtq+BajhKVxdhE1CQtERaN2cdn9I1J7ub8x+b32f7Opiou7M7hTvWauEoXV2ETUBRjbWNwQ2LNxA4NTd18dQAjd7N9NIjLx2xfQ1UwlG6ugibgMJ2Ve4Ksnuiv/z784fZvgYmYl66ejhKVxNhE1Bc1fVVASrU9Sa7mzR6N9MLpS+wk6YQjtLVRNgENFA2uayHgiG9zX90Po3eDVS3sY6dNIVwlK4mwiaggd5PehNLc0oZaakxxliaSQqFmCikFo7S1UPYBDQhFerMUNcbu5tmYqKQWibMnMBRumIIm4BGZIY6BUP6YnfTTEwUUouMiw0kBzpsXweVEDYBzTDSUm/sbprpzV+9SbhRSO683GO2r4FKCJuAZmSk5YNXPthJwZCeZHcz+9psdjcNU3N/Db9PFTLtJ9OCtq+BSvjhADTU1dGVzIQhfX3/4e+zu2kY+ZnkxEEdcpSeMCyBK0eKIGwCmpIJQ9sf2M7cbQ1JexZ2N83z/IrneaYKGX/1eD6QK4KwCWisenl1IrspemJ30zxv/+7tL9u+Biq5/PrLM2xfA1UQNgHNcX9TT+xumqf3aG+AbhHqkPvRUANhE9Ac9zf1NWvFLHY3DbOrchc/i4pIGpHkZE7O5OhHAYRNwAByf5MdFf1IEQN9N80iPTc5aVBH9rXZw21fAxUQNgFDSP9NGkvrh76b5tn5xE56birikh9cwjQhBRA2AUNI/83yvHLGWWqGqULmqV1bS0NxRcjd6BFjRvDz5TPCJmAQmZ++qXhTJ89UL+xumqWjuSPIKYM6Jnx7Qrzta+A3wiZgmJrVNcmNtY08Vo2wu2meF0pfoFBIEZP/92SmCfmMsAkYaN3cdbRD0sxVy66iR6NB6jbWsZumCPkwxzQhfxE2AQNJO6SNt2xkZ0UjUxdPDSSlJHEFwhDdnd0pDFxQxwW5F/B+6CPCJmCoXZW7gnXVdWxvaiT//vxhtq+BSXY8toOAo4gpi6ZwlO4jwiZgsMofVg7hOF0fsrvJcZ85OEpXx8VXXxywfQ38RNgEDNb7SW8i04X0ctVNVx21fQ1MIUfpFOupgRZI/iJsAoaT6UIcp+tjZvHMZHY3zVGzpoaLm4oYf/X4XtvXwC+ETcACHKfrQ+Y5T/j2hCO2r4Mp9r64l7uCipg0Z9JXbF8DvxA2AQvIcTrV6fr4/sPfp8m7IXqP9gbqt9TbvgxKyJmdY/sS+IawCVhCqtO5P6YHuV+WOTmT41dDvPrkqzxLRYweP/qvtq+BHwibgEVo9q6POffNybB9DUzBUbo6vvmv30yyfQ38QNgELCLN3reVbaNxuAZk6glN3s3AUbo6JsyckGL7GviBsAlYRmanM9lEDzR5N8dbm9/i+FYBGTkZjK70AWETsNBTBU/Rb04DNHk3R8PWBo5vFcHoytgjbAIWOrDnQNr2B7b38OzVd2nBpX+zfQ1MwKx0dTC6MvYIm4Cltt6xtY9iIfVdU3INvxgNwax0NTC6MvYIm4ClpGjh6eue5jhdcbRBMgez0tUgP1OB5ECH7esQS4RNwGINWxvS6L2pvhm3zqANkgE4SlfHV6d89WPb1yCWCJuA5Z5a+BRHe4qTySfsxJjh7W1v8xwVMGnOJK6nxBBhE7BcR3NH8LX1r1HxrLgrfnwF79cGqF1be8z2NVAB9zZjizcvAM6zP3k2jmIhtc0snpls+xqYQD7cte1rs30ZfMe9zdgibAJwej/pTWSykNqSRiQ5E78zkQt/BnjnxXc4SVAA9zZjh7AJoJ9MFmLHRW2XX385hUIG2FW5i3vSCuDeZuwQNgF85un/8zS/BBVGoZAZmnY38aFBAdzbjB3CJoDPNNY2BmmFpDYKhcxQv6Xe9iXwHfc2Y4c3LQCf8+xPn6XRu8K+9eNvUShkgLc2v/VX29dABdzbjA3CJoDPkbnptEJSFxOFzNCwtSHJ9jVQAfc2Y4OwCeALqn9WfZRVUdeURVP4Bak5pgmpYez/N5Z7mzFA2ATwBV0dXcnbH9jew8qoaeriqYGEYQnsPmuOaUL+y8jJcPhZ8h5hE8Apbb1jax+N3tU14dsTjti+Brr791/+Oz9gCrgg9wK6cHiMsAnglHqP9gZo9K6uWStmpdm+Brr7YO8HX7F9DVSQfW32cNvXwGuETQCn9dJDLw1jd1NNcvxH2xb90QLJf5mTM1NsXwOvETYBnBa7m2qj56b+aIHkv6y8LNuXwHO8UQE4I3Y31UXPTf3RAkkNoy4ctd/2NfASYRPAGbG7qS7puZmSkUJxg8akBVLbvjbbl8F3mZdlJli+BJ4ibAI4K3Y31ZW3NC/e9jXQ3TsvvkPrHZ9NmjOJYi0PETYBnBW7m+q64sdXUNyguV2Vu9id9pkU3ME7hE0AYWF3U01JI5IYX6m59+veZyKUz+RKCt0dvEPYBBAWdjfVxfhKvcnPFqMr/Xf+xed/bPsaeIWwCSBs7G6qKXdeLvOdNcfoSv9lXpY5zPY18AphE0DY2N1UE0fp+mvY2sCums+yZ2UzlcsjhE0Ag8Luppo4Stcb9zb9R3N37xA2AQyK7G7ufGInR36K4Shdb9zbVMOIMSMO2r4GXiBsAhi0mvtreO9QDEfp+ttdtZug47P0nPSjVi+AR/iFAWDQujq6kl9b/xqNqBXDUbre9vx2T6/ta+C3iy6/aLjdK+ANwiaAiPzmnt/8jZVTC0fpevvwvQ9p0O+zzMmZPAMPEDYBRKSjuSPYWNvI4imEo3S9Hfv0WBL3Nv1FkZA3CJsAIrb5ts38ZlRM9rXZHANqjH6b/qNIyH2ETQARa9rdlNG2r40FVMglP7iEY0CN0W/TfxQJuY+wCSAqz934HLsACpEZzykZKa22r4Ou6LfpP4qE3EfYBBCVt3/39pdp8q6Wbyz4xlDb10BX9Nv0H0VC7iNsAogKTd7Vc8kPLkm2fQ10tv8/9tNWzEcUCbmPsAkgajR5V0tGToYTSA7wAUBTb21+i2sQPqNIyF38ggAQNWnyThsktWRfm83dBk29t+s97gz6LPWCVIqEXETYBOAK2iCpZdKcSV+xfQ101d3ZncI9aH9lXpY5zObX7zbCJgBX0AZJLTmzc2xfAq1xUuCv7FnZaTa/frcRNgG45pUnXulkNdXBNCF97X15737b18BP6Tnp9r54DxA2Abhm5xM7j7Oa6mCakL7e+f07CbavgZ9k9GvCsAS6AriEsAnANXLXrH5LPQuqCKYJ6euDvR9w59Znwcxgu9UL4CLCJgBXvfrkqxzdKkKmCdECSV80d/fXxf9yca/Nr99NhE0Artrz2z0ZVNKqgxZI+qK5u7/Sv54+yubX7ybCJgDXMVFIHbRA0hfN3f016sJRAZtfv5sImwBcV7u29hirqgZG7+mrpb6FXo8+4mfHPYRNAK7raO4Ict9MDVJVm5KRwg6Zhg4fOEyvR59x59kdhE0Antjx2A4CjiL++X/9MzvNmqK5u7+Sz0/mzrMLCJsAPFG3sS6elVUD01D01bS7iZ01H1GR7g7CJgBP0HNTHdw909e7r777se1r4Ccq0t1B2ATgGXpuqmP0+NF/tX0NdESRkL+oSHcHYROAZ/a+uDfI6qph4ncmMv5QQxQJ+YtTAXcQNgF4pvdob4CjdDVwb1NfFAn5i4r06BE2AXiKo3Q1sEOjL4qE/HXueecesfn1u4GwCcBTHKWrg3ubevrvd/6b9js+yrwskysoUSJsAvAUR+nq4N6mnppeb6L9jo/Ov/j8JGtfvEsImwA8x1G6Gri3qadDfz401vY18FPm5MwUe1+9OwibADzHUboauLepr7Z9bbYvgW9Gjhtp6St3D2ETgOc4SlfHiDEjDtq+BjpqrudwwC+EzegRNgHEBEfpahh/9Xju/2lo78t799u+Bn4adeEo1j8KhE0AMcFRuhomzZn0FdvXQEf739zP72sfDQ8OZ/2jwOIBiAk5Suco0H8ZORm2L4GW2t9vZ2ylj8ZeMva4tS/eBYRNADGz47Edray2v+T+GRNR9MPYSn+lfz19lM2vP1qETQAx8/bv3j7Gavvv/IvP/9j2NdARJwP+GXXhqICtr90NhE0AMSO7M7Rw8V/mZZkcyWqInx3/UJEeHcImgJh681dvcoTrM5q764mKdP8QNqND2AQQUw1bGzjC9RnN3fVERbq/6FEbOb5xAcRU0+4myqEVwC9O/VCR7q9hScN6bH790SBsAoi5xtpGFt1n6TnpR61eAA1Rke6vCd+eYPPLjwphE0DM7f6/u2mB5LOLLr9ouNULoCmKhPwTPzQ+0dbXHi3CJoCYowWS/zInZ6bYvgY6Imz6h8K6yBE2AcScHAd2He5i4X1EkZCeGp5v4K4ttEPYBOAL7m36j0lC+vm49eNe29fAL3xAixxhE4AvXn3yVcah+IxJQvpper2JsAntEDYB+OK9Xe9RoOIzJgnp56MPP/qy7WvgJ1qGRYawCcAX3Z3dKRQ7+IuCB/3Iz43ta+Anem1GhrAJwDfvvPhON6vvH0bw6am5nhsofsm8LDPBzlceHcImAN+8++q77ay+fyRsJgxLIPBrpvswj8wvgeQAd2YjQNgE4Ju9L+5ll8BnqRekHrJ6ATRE+yP/pH89fZStrz0ahE0AvqHfpv84FtTPsU+PcW/QJ6MuHBWw8oVHibAJwFf02/TX+Refn2Tz69fRO79/hw8IPgmMIGtGgrAJwFd7X967nyfgH8ZW6qfnSA9h0ycZORlWvu5oETYB+IpdGn+l56Tb/PK1JNdPbF8D6IWwCcBXH+z94Cs8Af8kjUiiIl1D3HX2z6gLR3EaM0iETQC+o2+gv6hI109LfYvtSwCNEDYB+G7/f+xnZ81Ho7JG8bsACBM/L4PHggHw3R9/88cjPAX/jB4/mhnpmqHXpn/O++p5x2197ZEibALw3f43uQLlJ2ak64dem9AJYROA76iu9Re9A/VDFwf/jL9y/FhbX3ukCJsAlECRkH/oHaif473HmdHtE+nggMEhbAJQAkVC/gokBzpsfv26aX+/nRndPuEkYPAImwCU8O6r77bzJPxz7nnnUqSlkd6jvSQen3ASMHiETQBKaHq9iWNBH2VelskdQM207WuzfQmgCcImACUc+vMhLt37KJAcIOxrhrDpH6ZuDQ5hE4Ay+OXpHypsgfAxdWtwCJsAlEHY9A8VtvqhsTt0QdgEoAx+efonPSfd1peuLRq7+2d4cDj5aRBYLADK+GDvB0d5Gv5gZ1M/3Z3dFHX5ZOwlYxlZOQiETQDKONR4iDdwH40YM4KdZY3QwQG6IGwCUAYV6f4aljSMY1kgDPFD4xNZp/ARNgEopetwFw/EJ6OyRvE7QSMfffjRl21fA79kz8pOs/OVR4Y3FgBKaalv4YH45Lyvnsc1Bo10d3an2L4G0ANhE4BSmnY3MaPbJyPGjGCnDIDrCJsAlHL4wGFmdPskc3ImO2WaoTetP0aOG2njy44YYROAUt75/Tu0cwHCRNj0B2FzcAibAJRyvPc47Vx8kpWXZeXrBuAtwiYApdD+CAjfoT8f6ma5oDrCJgDgMwnDEggvGmn5Y8sh29fAL4HkAMWMYSJsAlBOY20jD8UnqRekEl6AMJx73rkUM4Yp4rBZ0VdRG+svFgAAAHphZxOAchqeb2BGt0+YIqQXujcghuoj/aeifVPZz1MG4LZjnx5jRrdPmCKkF7o3+Gd4cLhVH8wq+ioOR/pno12ofVH+eQD4gv1v7md3DYDSxl4y1qYPZg3R/OFo39C5twnAdR+3fszumk/Sv54+ysoXDuBMIj5Cd1wIm1H94wBwKh99+BEzun0y6sJRAStfuKboS4sYiWpzkZ1NAMrp7uxmRjcAqMO/sHnisuhWvhkAAIBN4ofGJ1rycvdX9FVEVaPjxiX8LS78HQDwOc31zSyID5iPDoQne1Z2miVLFXXOI2wCUFL3YaYmAuHoOtzFOsFLD0f7d0cdNk8cpf+SxwwAQOy11Lew6vDKK9EeoTsuThCKOvUCwEBNu5s6WBAA8NUKN/5xV8JmRV+FtEB6xY2/CwDE4QOHj7AQ/hh14SimwwGQXU1Xug65OaXjOhf/LgAAAPjHlV1Nx82weeJM/xG3/j4AdvvwvQ8ZWQlAWek56SY/nK1u7Wo6Lu9sOidSMMcvAKJ2qPEQIyuBMBz68yFaN/ggaUSSqS+t03GcG938C10Nmycq0zlOBwCNDUkYksDz00fLH1sO2b4GcNWNblSgD+T6MdWJbde73f57AQCxcfG/XNzLUgNW+mVFX8XTbr9wT+5EVfRVrGCMJYBoHO06assoOABQQYPbx+chXl7Av+7EFw4Ag3b4wGFbRsEBgN8kr+WduA7pOs/C5okvOI/ACQAAoCxPg6bj8c4mgRMAAEBdngdNx+uw6Xw+cDI/HQAAQA2vxCJoipi0twi1RCqMK5Sxlg/F4t8EAEQmfmg8xVmA2e4+UcwdEzGd0FHRV/Gw4ziTOFYHEI6uw12skw+yZ2VTnKURpm35J5Ac6NDsS5bBO9NiGTSdWIdN5++Bs76iryLnRC/Ozlj/+wD00VLfwtMCzoJpW/4597xzj2jypXaeyF05bo6hDJdvn4ZOpOpxhE4AAADP/PJEyFwRi/uZp+LrSLITL3pFYVzhwyf6ckoz0bF+fk0AAACak+NymQT0sF8BcyAl5t+eWAgJnA8XxhXmnAieUsGercCXBwAAoDqph5Ej8qflyqJKX6sSYXOgEwvUPy6pMK5whGz9ngieof8OwBJDEoYMdxznY553bLHuejl31LlHHcfZZ/s6+EHW/tCfD/m19pKXDp8ImPUq7GCeTlxfX5+aXxkAAAC0R7sEAAAAeIawCQAAAM8QNgEAAOAZwiYAAAA8Q9gEAACAZwibAAAA8AxhEwAAAJ4hbAIAAMAzhE0AAAB4hrAJAAAAzxA2AQAA4BnCJgAAADxD2AQAAIBnCJsAAADwhuM4/z+DfeZXkImKhAAAAABJRU5ErkJggg==;fontSize=8;fontStyle=1;fontColor=light-dark(#660066, #25a599);" vertex="1" parent="1">
                    <mxGeometry x="380" y="275" width="40.54" height="40" as="geometry"/>
                </mxCell>
                <mxCell id="50" value="&lt;font style=&quot;color: rgb(0, 149, 135);&quot;&gt;Setup Sensors&lt;/font&gt;" style="sketch=0;outlineConnect=0;fontColor=#232F3E;gradientColor=none;fillColor=#009587;strokeColor=none;dashed=0;verticalLabelPosition=bottom;verticalAlign=top;align=center;html=1;fontSize=12;fontStyle=1;aspect=fixed;pointerEvents=1;shape=mxgraph.aws4.sensor;" vertex="1" parent="1">
                    <mxGeometry x="70" y="380" width="70" height="78" as="geometry"/>
                </mxCell>
                <mxCell id="51" style="edgeStyle=none;html=1;strokeWidth=2;strokeColor=#009587;exitX=-0.012;exitY=0.494;exitDx=0;exitDy=0;exitPerimeter=0;" edge="1" parent="1" source="45" target="50">
                    <mxGeometry relative="1" as="geometry">
                        <mxPoint x="410" y="230" as="sourcePoint"/>
                        <mxPoint x="462" y="309" as="targetPoint"/>
                        <Array as="points">
                            <mxPoint x="105" y="299"/>
                        </Array>
                    </mxGeometry>
                </mxCell>
                <mxCell id="57" value="&lt;font style=&quot;color: rgb(0, 149, 135);&quot;&gt;JSON Data&lt;/font&gt;" style="sketch=0;outlineConnect=0;fontColor=#232F3E;gradientColor=none;fillColor=#009587;strokeColor=none;dashed=0;verticalLabelPosition=bottom;verticalAlign=top;align=center;html=1;fontSize=14;fontStyle=1;aspect=fixed;pointerEvents=1;shape=mxgraph.aws4.json_script;" vertex="1" parent="1">
                    <mxGeometry x="240" y="380" width="57" height="78" as="geometry"/>
                </mxCell>
                <mxCell id="59" style="edgeStyle=none;html=1;strokeWidth=2;strokeColor=#009587;" edge="1" parent="1" source="50" target="57">
                    <mxGeometry relative="1" as="geometry">
                        <mxPoint x="543" y="309" as="sourcePoint"/>
                        <mxPoint x="471" y="309" as="targetPoint"/>
                    </mxGeometry>
                </mxCell>
                <mxCell id="60" value="&amp;nbsp;GET&amp;nbsp;" style="edgeLabel;html=1;align=center;verticalAlign=middle;resizable=0;points=[];fontStyle=1;fontSize=14;fontColor=#009587;" vertex="1" connectable="0" parent="59">
                    <mxGeometry x="-0.0783" y="1" relative="1" as="geometry">
                        <mxPoint as="offset"/>
                    </mxGeometry>
                </mxCell>
                <mxCell id="62" value="MQTT" style="shape=image;verticalLabelPosition=bottom;labelBackgroundColor=default;verticalAlign=top;aspect=fixed;imageAspect=0;image=data:image/png,iVBORw0KGgoAAAANSUhEUgAAApsAAAKcCAYAAACnl3HcAAAACXBIWXMAABcRAAAXEQHKJvM/AAAgAElEQVR4nO3dDXSV5Znv/yckYHaKDQlbgjQRJtUUB6YJmb+VCtqgDtBaKhDOaqEnjKfgSsF2oUZq1GhRIgYxviwVzJJYS85oXYfwUmtLqEpEcbDOxKSDSxprCiZlBPNC0CYRA/mvK2U7EXnZ2ft59nO/fD9rda32nAGy7yfZ+e37vq/riuvr63MAAAAALwxhVQEAAOAVwiYAAAA8Q9gEAACAZwibAAAA8AxhEwAAAJ4hbAIAAMAzhE0AAAB4hrAJAAAAzxA2AQAA4BnCJgAAADxD2AQAAIBnCJsAAADwDGETAAAAniFsAgAAwDMJOixtYVxhnuM4IxzHyVHgywG0cdHlF42fu3ruB5nfzDzMUwMi96uf/iprx2M7GllCKKTecZzDFX0Vtao/lLi+vj4FvozPK4wrnO04Tt6J/2Sr9LUBOkrJSGnNW5oXf8WPr0hJGpHEMwQGqetwl7NuzrrWxtrGIGsHBTU4jiOhs7air2KLal+eMmGzMK5Qdi1vdBxHgmayAl8SYKTMyZnNM26dkZEzm4MCYLDqquu6KhdUxvUe7Q2weFBUp+M4EjifVmXX0/eweeKIfIXjON/y9QsBLJMwLKF7wrcnHJm1YlZaRk4Gjx8IU9u+Nmft7LWtLQ0t7HJCdbLj+XBFX8XTfn6dvoVNQiagDo7ZgcHb/sD2nurl1YksHTQgofNGv3Y6Yx42C+MKR5wImcti+g8DCAvH7ED4muubnce/93hrR3MHu5zQwVbHca6r6KuIadFoTMPmiXuZco9gbMz+UQARCSQHOnLn5R67puSa4MhxI1lE4DSkeGjjLRtbd1XuInBCB3Knc3YsdzljFjYL4wqvcxznFzH5xwC4aszEMQevWnbVl6cunkpRBHAajbWNziMzH+np/aSXo3Xo4O6KvooVsfg6YxI2C+MK5WLqv3r+DwHwlBQVXVpw6d/Y7QROjRZJ0MwvK/oqrvP6S/Y8bBI0ATOx2wmcnhQPbbl9y/Fjnx6j4g6q8zxweho2CZqA+djtBE6N4iFoxNPA6VnYLIwrlHsAP/fkLwegJCrZgS/asHgDxUPQgWeB05OweWLc5GbX/2IAWpBK9it+fMWQmcUzk+nbCZyYPPTDyiEUD0FxN1X0VTzs9pfoetgsjCscd2I4PCMnATgTvzOxecbyGRlZeVksBqwmxUPleeVMHoLqJlX0VdS7+TV6ETZrmQoE4GQypei7d333SxQUwXZMHoLi9juOk+Nm43dXw2ZhXOGNjuM85NpfCMA4UlB01U1XHf3Wj7+VTEERbCXFQw9e+WBnV0cXp4BQkas9OF0LmyfGUO7j+BxAuDhih83oyQnF/UNFX8U+N75EN8Pmw8w7BxAJenbCZq+tf637maXP9NGTE4pxrTrdlbB5oijoL2qtEQDdUMUOW9GTE4pyZXdziEuvzfNRRwDM193ZnVKzuiZ5edry7rWz1x5s29fGU4cVMnIynLv+eFcwNz+3nScOhbhyb9Otnc3D3NUE4AXudcI2/T05F1TG9R7t5VoJVJASbWV61GGTBu4AYkHudV678to0phPBBrKrX55X3t62vy2VBw6fRd3o3Y1j9Nl8FwDw2oE9B9LWzVnn3JR6U6cUVLDgMJm0BVu1b1XqlEVTWnnQ8FnUVyXd2NnkCB1AzIX6dVJMBNNxrA4FRHWUHlXYLIwrzHMcZwffBQD8QpN42IBjdfhsTkVfxZZIv4Roj9HzePoA/CS7PVLBfvs/3O5QwQ5TyQepkvqSVKrV4ZOo8l60YZOb+gCU0bC1IY3QCVPJdZHCjYWpBU8WdMcPje/iQSOGosp70R6j1zuOk83TBqCizMmZzXPum0PbJBiHJvCItYq+irhI/8low6Y7sy4BwEPSNmn+o/PTCJ0wicxWr1pc1V5XXcc9TniOsAkAYSB0wkTbH9jeU728OpGHC49Nq+irqI3kn4g4bBbGFcr5/Vs8WQC6IXTCNHKs/uCVD3Z2dXTRihBeiThsRlMgNILHCUBH0iC+fFq5c/c/3X2wsbaRZwjtyWz1e5vuTU7PTqcJPJTjxgQhANASoRMmkWr1O+vvDM64dUYnDxYqIWwCsB6hEyaZWzY3uXBjYZcMPODBQgWETQA4gdAJU+Tm5ybd86d7AiPHjqQJPHxH2ASAkxA6YQKmDkEVhE0AOA1CJ3QXmjqUvya/h4cJvxA2AeAsQqGzfFp5K2MwoaPpt0xPLHmrxEk4J4HQiZgjbAJAmBprG4PMXoeupD3Smg/WJHKPE7FG2ASAQWrY2pAWCp0yMhDQhRyrr9q3inuciCnCJgBESELn8rTl3ZuKN3USOqETucdZ8GQBrZEQE4RNAIhC79HeQM3qmuRQ6GQtoYupi6cGuMeJWCBsAoALQqHzptSbOl9b/xo7RtAC9zgRC4RNAHBRV0dXctX1VQEJnbRLgg64xwmvETYBwAMSOkM9Opvrm1liKI9+nPAKYRMAPCQ9OksnldIuCVqQfpxFO4oc5qrDTYRNAIiBULskKtehuqy8LKf4jeJASkZKKw8LbiBsAkAM9Veuj17eQxERVCaFQ3f98a5gVl4WgRNRI2wCQIz1ftKbSBERVCeFQ0U7ioJTFk0hcCIqhE0A8EmoiGhlzkpmrkNZC9cvDNIAHtEgbAKAz1oaWvpnrm9YvKGV+5xQ0WcN4CkcQgQImwCgiF2Vu4IyiWj7A9tpPwPlyD3Oe/50T4AG8BgswiYAKEQmEVUvr07kPidUNHLcSKekviSVwiEMBmETABQUus9ZPq2c+5xQSqhwiIlDCBdhEwAU1ljbGKQ/J1QkE4coHEI4CJsAoAHpz3lH5h2dddV1JE4oQwqHCjcWdlE4hDMhbAKAJuRovWJeRRKtkqCS3PzcJJk4lJSS1MmDwakQNgFAM6FWSRytQxVSqX5v073JVKrjVAibAKApjtahEikcolIdp0LYBACNcbQOlVCpjlMhbAKAAThah0qoVMdAhE0AMEjoaJ2G8PCbVKpL4IwfGs+nH8sRNgHAMDSEhyokcN72h9uSaI1kt7i+vr6IFqDyh5Xf2feHfWvD+b9tf799lIxgs32xASDWZFdp9qrZQ6bfMj2RxYdfmuubnce/93hrR3NHkIegrWkVfRW1kXzxEYdNx3HyHMfZ4caKySfvU336btrd1HH4wOEjA//f9r+5f8jHrR8fD/3vIwePDO/5qGekG18HAJgqJSOl9YZf3xCUFjWAH+QucWlOaXvb/rZUHoCW9A6bbpJPT92H/75bf+jPh7pb/thySP57d2d3QtPrTb3y3492HU08fOBwmmpfOwB4bcqiKa3zHpgXlKphINYkcK6bs65VxrCy+NohbEZKvvFb6lv6/3RoJ1WC6b4/7HOO9x7v5QoAANPIpJclm5YkZ+Vl8Wzhi4p5Fe111XXscOqFsOm1gaG04fmGg8c+PdYTOtInkALQkTTfXrJ5Cbuc8IW06ZLuCay+NgibKggd4Yd2SAmjAFSXcE5Cz/zH5vdJ1TAPC7H22vrXuquur+J7Tw+ETR1I3zvZId378t79H7734ZBDjYcIogCUkJ6d3rp0y9LgyHHUWyK2JHA+s/SZvmOfHmOLXW2ETd0NDKKhHdFDfz401vZ1ARA7tEmCX+RksOzSsm42X5RG2DRVqC2U3BP9YO8HR2U3lBAKwEvscsIPBE7lETZtMzCENr3edLT9/fZhtHMC4KYZt87onFs2lwIOxAzN35VG2MTfyQ/q/v/Y3/3uq++2S19R7oQCiAbN4BFrNH9XFmETpyc7oBJC5T7oO79/J6G1qTWVAApgMNjlRCwROJVE2MTgEEABDBa7nIglpg0ph7CJ6IUC6Fub3/qrHMFTiATgVNjlRCwxbUgZhE14Q8Ln29ve7nj31Xc/fm/Xe8O7O7tTWGoA7HIilgicSiBsIjbkWEN6grL7CUDkr8nvoS8nYoHA6TvCJvwj4VNaMO357Z5e7n4C9qEvJ2KF8Za+ImxCHaGj94atDR+/X/d+kPAJmI/pQ4gVAqdvCJtQF+ETsIfschbVFgWTRjDmGt4hcPqCsAl9hMLnv//y37s+2PvBV3h0gFkSzknoWfRvi47n5ueSOOEZAmfMETahr9Cdz//8f/8Zz4gywBy5+bntBesLUtnlhFcInDFF2IQZQtXurz75ajOtlgD9JaUkdS7ZtCQ5Ky+LpwlPSOB8Zukzfcc+PcanGm8RNmEmaTT/5q/e7L/v2bS7iYZ+gKZoBA8vyfWsskvLuqkJ8BRhE3ao31Lf3+OzYWtDEruegF5oBA8vETg9R9iEfUK7nhQaAfqgRRK8ROD0FGETdpO7nnUb67rf2vxW694X99JeCVBcVl5W65LNS2iRBNcROD1D2AQGkiKj3f93d2vdxrp4jtsBNUmLpGXbliVSPAS3ETg9QdgETkfedHZX7aa1EqAoiofgBQKn6wibQDhC9zxr19YeI3gC6hg5dmR7UW1RKvPV4SYCp6sIm8Bg0VYJUEvCsITuRc8s6mPyENxE4HQNYROIRqjAaFflrlaCJ+AvJg/BbQROVxA2AbeEgudv7vnN3zhqB/xBT064jcAZNcIm4AXueAL+kZ6cC9YuiJu6eCrhAK4gcEaFsAl4LRQ8a+6vGdLV0UXlLBAjHKvDTQTOiBE2gViSN6sdj+2gjycQIxyrw03Si7l8WjlrOjiETcAvMq/91SdfbWZyEeAtjtXhptfWv9ZddX0V30vhI2wCKpA3LyraAW9xrA63EDgHhbAJqIT7nYC3OFaHWwicYSNsAqqS+53Pr3j+4Nu/e/vLHLMD7uFYHW4hcIaFsAnoQN7QXnrkpSMH9hxI44EB7piyaErrwvULaU2GqBA4z4qwCehEjtlfeeKVzp1P7DxONTsQPZmtXlJfwj1ORGVT8abOmtU1XH06NcImoCupZq9ZXdNMUREQnYRzEnqWbVuWmJWXxUoiYhXzKtrrqutSWcEvIGwCumO3E3BH/pr8num3TE9kOREpAucpETYBk7DbCUQnKy+rdcnmJUGO1REpAucXEDYBE8lu5wulL7S+UfXGl6hkBwaH9kiI1sqcla0tDS0Un/1dxGFziAdfDACXjBw30pEq28c/eTxQ8GRB95iJYw6ytkB4Opo7gjIDu666roslQySKaouCUnzG4kWHnU1AM6G+nQ1bG2ifBISJ9kiIVNfhLqc0p7S9bX+b7UfqHKMDtpE3wG1l2ygoAsKUnp3eKjtV3OPEYMn77R2Zd3RaPhGOY3TANvILc27Z3OSHDz+cwhE7cHZy904Cg5wOAIMh77c3v3xzcsKwhG4WbvDY2QQMwhE7cHYSGBY9s6gvNz+XLU4MirzHyj1gSws22dkE4DhSdbt0y9K0VX9Z5cy4dUYnn8KBL5KgUDGvIkmmxbA8GAx5j11Ws4zOIINE2AQMJFXscsS+5uCa/ir2pJQkfqkCJ5GxhOXTylvlPh4QLplQJe+rLFj4CJuAweSe0dTFUwMPtT+UvGTzEod7ncDnNdY2Bvsrjfe1sTIIm7yvEjjDR9gELJEzO8f5+X/9PK1oR5Ez8TsTqZAATpCWNnd97a7uxtpGlgRhk8ApLbVYsbMjbAKWkSOgn77w0wy515l9bTY7ncCJe5zl08qd19a/xm4Vwia9W3Pzc2n6fhaETcBScq9Tioke6niIYiLghKrrq6R4iPCAsBVuLEyVHq6s2OkRNgHLhfp1SjERoRNwnLrqulSZiU3hEMLFWMszI2wC6BcKnaE57FSww2bSAP6er9/TSgN4hEPeP0vqS1J53zw1wiaALwhVsBM6YbOO5o6gNPCmcAjhYMrQ6RE2AZwWoRO2o3AIgyFN34vfKA7ED43nDsYAhE0AZ0XohO2kcGjD4g0UgeCsJHAuWLsgjpX6H4RNAGELhU7p1UmDeNhmV+WuoFSqUziEs6Hp++cRNgEMmvTqDDWIJ3TCJlKpLhOHCJw4Gwmc9OD8O8ImgIiFQmfhxsIujtdhC5k4dEfmHZ1UquNspAdnVl6W9dcvCJsAopabn5vEnU7YpKujK5lKdYRjyeYl1vfgJGwCcA2FRLAJleoIBz04CZsAPEDohE2kUn1T8Sa+z3FatvfgJGwC8EwodOavye+h0TFMVrO6JpmZ6jgTaYm0rGZZwMZFImwC8Nz0W6YnMnsdpmOmOs5GiiptbIlE2AQQE6HZ6xI6pyyaYn11JswkM9VpjYQzkRMf294DCZsAYkpC58L1C4Or/rLKyb42mx6dMI60Rlo+enkPrZFwOvIeaFNLJMImAF+MHDfSWbplaVrJWyU0hodxej/pTZTWSAROnI5NLZEImwB8JZfmQ9OIUjJSOF6HMaQ10n3fuK+L1kg4lVBLpIRzEnpMXyDCJgAlyMX5svfLgrRLgkmOfXosSVojEThxKhI4i3cXJ8YPjTf6ki9hE4BS5PL8vU33JlO5DpPQixOnI6c7C9YuiDN5gQibAJQzsHKdIiKYgl6cOB35kC0fsE1dIMImAGVJ6KSICCaRXpwETpyKfMDOzc818nuDsAlAeaEiosKNhV3c54TuJHDePu52enHiCwrWF6SaWKFO2ASgjdz83CQZf8l9TuhOenHS/B0nM7VCnbAJQDvc54QJQoGzbV8bzxOfMbFCnbAJQEvc54QJJHDe9bW7aP6OzzGtQp2wCUBrofuc0p/ThubIMI80f2faEE5mUoU6YROAEeSNec0HaxKnLJrCFCJoh8CJU5ErQybMUCdsAjCGHK0vXL8wyNE6dMR4S5yKCTPUCZsAjMPROnTFeEucTD5EF9UWpercgYOwCcBYHK1DVwRODDRy3EhnWc2ygK6LQtgEYDSO1qErAicGysrLcvLX5Gt5UkPYBGCF0NG6vFnTEB66kMC5/YHtXAVBv+m3TE/UcaQlYROAVeTNWhrCm1DhCTtUL69OZJ46QnQcaUnYBGCd/gv3O4qCRTuKHGatQwcyT53ACUfTkZaETQDWkjtQ9zbdm2xK42SYjcCJkNBIS10WhLAJwGrypi2Nkykggg4InAiRe+jS3k2HBSFsAsBJBUTxQ+O7WBOoisCJEGnvpkPBEGETAAaQAqKVjSuT0rPTKSCCsgicCNGhYIiwCQAnkQbKd9bfGSzcWNjFBCKoisAJR5MJQ4RNADiN3PzcJJlARJskqIrACUeDCUOETQA4g1CbJHY5oSoCJxzFJwzF9fX1RfQH9/1h33ePdh19/nT//4ERgf4L9wBgiq7DXc66OetaG2sbgzxUqEYKRQo3FqbyYOwmHzzkA4gHizCtoq+iNpI/GHHYLIwrzHMcZ0dEf3iAEWNGHByWNOwLSTzzssyEQHKgN/S/44fGJ2bPyk4b+H8jKR4AYq2uuq6r8oeVQ3o/6dWmzx3sQOCEfCi+5+v3tHY0d7j9oVjfsOkWuRibekHqIfnrhiQMSbj4Xy7uD6oDQyq7rQDcwi4nVEXgRHN9s1N2aVl379FeN+9xEjYHK5Ac6Dj3vHOPDAym468cP1buZ8lFW/kPAJwNu5xQEYET8t5UMa8iycWFIGx6IbRbOjw4fMjYS8YeHzFmxJczJ2emsEMKYCB2OaEiAic2LN7Quqtyl1vvS4RNP4TC6KisUUPO++p5x0M7o9wlBezUv8u5oDLO5aMrIGIETqzMWdna0tDiRuAkbKpmYBAdPX70MLk3yo4oYL62fW3O2tlr3XpzB6JG4LSbnLwsH728x4WrPoRNnUgFfuoFqUflaF52Q+V+KCEUMMv2B7b3bLl9y/Fjnx5z884UEBECp92kYKh0Umm0a0DYNIGE0PSc9KOhndD0nPT+htIA9CRv8I9/73EvWpAAg0bgtJt8AK5eXh3N7iZh01RyHB/MDLZLxbzsgsoOKJXygF42FW/qrFldk8xjg98InHYrn1YeTSEjYdMmBFBAP421jc66ues6uzq6CJ3wFYHTXnJ/847MOyJ9HyJs2i4UQCd+Z2ICR/CAmuSNvmpxlVej5ICwETjtJdd77vvGfV0R3CcnbOKLpHH9V6d89eOLLr9o+ISZE1IoQgLUQIskqCB/TX7P9FumM4zAQq+tf6276vqqwb7/EDZxdifvftIPFPAPLZKggoInC7qnLp7Khx4LVcyrGOwpC2ETkRl14aj9mZdlJkyaM+krEj45egdii+Ih+I3AaSe51nPP1+8ZTLcMwibcIe2Xxl89vpfwCcQOxUPwG4HTToO8v0nYhDckfE749oT4yf97cpBjd8A7zFeH3wicdhrE/U3CJmJj9PjRf/3mv34ziYIjwBsuNF4GIhI/NL7rtj/clsR7u33CvL9J2ETsScHR+KvHt06aMymYOy83wJE74A452nrwygc5VkfMyft68RvFAQKnXcK8v0nYhP84cgfcw7E6/ELgtFMY9zcJm1ALu56AOzhWhx/kPfyeP90TYDqdXc5yf5OwCbWlZKS05i3Ni7/kB5ek8OYFDA7H6vDDyLEj20vqS1LZLLDLGe5vEjahD5lslDsv99i0n0wLckwDhIdjdfiBwGmfM9zfJGxCT6Hj9suvvzwjZ3YOTxE4C47VEWsSOFftW8UcdYuc5v5mxGFziO0LCn/JbOg9v92TsW7OOueGc27ofvSaR5vrt9TzVIDTkFnWJW+VOAnnJPSwRoiFtv1tqXK0ymLbQ04dF6xdEOfWCyZsQhkETyA88otgzQdrEtOz01tZMsSC3OEjcNpFGvxn5WW58h5D2ISSCJ7Amckdujvr7wzOuHVGJ0uFWJDAKbP8WWx7LNm8JJiUkhT1MydsQnkET+D05pbNTS7cWNgl959ZJnitZnVNsrTHYaHtIB9qb3755qi7YBA2oZWTg+fa2WsPykVmwGa5+blJ0oRbWozxjQCvSR9GAqc95NpO/pr8ntHjRw+P9EVTjQ4jhNopXVNyTZA+nrCVtCypWlwVzoxjICrMUbfPvj/smzXuG+N+E8kLJ2zCOLK78927vvslJhfBVrRHQiww1tI60xzHoc8mcLLMyZnNM26dQQ9PWKexttF5ZMYj3XL1hKcPr0jxyL1N9ybzwd4KhE3gTOQT+KUFl/6NY3bYpG1fm1OeV94ufRJ58PAKU4asQdgEwsUxO2zCPU7EgvR8lVZcLLbRIg6bVKPDOjLvVaopl6ctp5odxpMPVIUbC1PpxwkvtTS0BGn6jtNhZxNgtxOWqKuu66pcUBnHPU54RT7USO9XFthIHKMDbpC7nRO+PeHIrBWz0qiwhIlkJ//BKx/s7OroIhDAEwVPFnTLqENW1ziETcBtod1O3jRhGrnHWZ5X3ipHnzxceKFoR5GTlZfF2pqFO5uA20J3O2VS0YbFG1qlshcwQWiuem5+Lnfs4Alpu8V9eIQQNoGzkPttuyp3BW//h9ud1d9c3Sz9CwETSOGQHHnyMOE2ed/sv65xuIu1BWETGIym3U0Z5dPKnZtSb+qU2cC8kUJ3ck1EjjzlvjIPE26Se8GlOaXtvE+CsAlEQN5EQ+2TOGKH7uRunYwdlGkwPEy4SQYKSJ9XFtVuhE0gCgOP2B+95lGO2KEt6b4gYwdlGgxPEW6SgQLyoZxFtRdhE3DJnt/u6T9iv/uf7j74+tOvs6zQjhQOrdq3KpXCIbhNPpTL1SMW1k6ETcBlB/YcSPvl//nlZ/c6WV/oholD8IJcPaJC3U6ETcAjoXud0jppU/EmqjKhFZkCQ6U63FZ2aVk3d9ztQ9gEPCb3OmtW1yRTTATdUKkOt8n7YXleORXqliFsAjEysJho7ey1Bwmd0AGV6nCbVKjLBCsW1h6ETcAHDVsb0gid0AWV6nCbjEqlQt0ehE3AR6HQKRXstE2CyqRSvaS+JDU9O52AAFdQoW4PwiagAKlgD7VNInRCVcxUh9uoULcDYRNQCKETOpDWSFMWTWGHE66gQt18hE1AQYROqG7h+oVBWiPBDVSom4+wCSiM0AmVSWskCZzxQ+NJCYgKM9TNRtgENDAwdHK/CSqRwHnbH25LohcnoiUz1GUABgtpHsImoBEJnaWTSmmZBKVIayTpxUngRLRkAEZddR075YYhbAIaok8nVCOB854/3ROgFyeiVbmgMo4THLMQNgGNhUKnNEfmcj38NnLcyP5enAROREMKhh7/3uO8pxmEsAkYQJojy+x1ue/EGzT8FGr+TuBENDqaO4Lr5qyjvZYhCJuAIWQ3QO47LR+9vIepHPCTBM5V+1al0vwd0WisbQxSMGQGwiZgmN5PehNlKsdNqTd1ctEefpLm7wRORIOCITMQNgFDdXV0JVfMq0iiRyf8ROBEtCgY0h9hEzBcqEcnlevwC+MtEQ0KhvRH2AQsEapcp4gIfmC8JaIhBUNMGNIXYROwDEVE8EtovCUPAJGQCUPbH9jew+Lph7AJWChURFR8QXEr9zkRSwRORKN6eXUi71n6IWwCFpOjKbnPWT6tvJX7nIgVAiei8cjMR3q4CqQXwiaA/n52d2bd2UVPO8QKgRORkpOZ8rxyCs40QtgE0O/Yp8eS5D4n/TkRKxI4S94qcRKGJRA6MSgtDS1BGdPLqumBsAngc0L9OVfmrORoHZ7LyMlwit8oDhA4MVgyppcPxnogbAI4Jdk5oFUSYoHAiUhJw3c+FKuPsAngjORo/Y7MOzqpAIWXCJyIhDR8L88rp/+m4gibAM5KjtapWofXCJyIRNv+ttSKeRUEToURNgGELVS1TmNleIXAiUhIw3cGVaiLsAlgUKRqXRorS0P45vpmFg+uI3AiEs8sfaaP9yQ1ETYBREQawpdOKnWk/QgFRHAbgRODJR+EH//e47wfKYiwCSAq0n5ECohoQQK3ETgxWPIhuGpxFfc3FUPYBBC1UG9OKSBiVwFuInBisLi/qR7CJgDXSAHR8tHLe3ijh5sInBgsub9J5wx1EDYBuErmFlddXxVgAhHcRODEYMj9TfpvqoOwCcATMoGINklwE4ETgyH9N5mfrgbCJgDPhNokscsJt0jgXPTMoj4WFOFgfroaCJsAPMcuJ9yUm5+bVAuDwNkAACAASURBVPBkAbubCEvlDyuHULjoL8ImgJhglxNumrp4aoDAiXDIPfLyvHKO031E2AQQU+xywi0EToRL3nc2FW/qZMH8QdgEEHMDdzk53kI0CJwIV83qmmTGWfqDsAnAN7LbIH05ucCPaBA4Ea4Hr3ywkw+4sUfYBOAruU/F9CFESwJnbn4ufRVxRjLtjHGWsUfYBKAEmT4kM9Ybaxt5IIhI4cbCVAInzkbGWXKaEluETQDKkF2H8mnlDo2YESkCJ8JRuaAyjq4YsUPYBKAcacRcfEFxK5f5EQkJnFl5WXxgwWn1Hu0NrJ29lu+RGCFsAlBSR3NH8L5v3EeLJERkyeYlwZFjR7LDidOiHVLsEDYBKCvUIoniIQxW0ogkp6S+JJXAiTOhHVJsEDYBKE+Kh6RFEsVDGIxQ4ExKSWL3Cqf1+Pce58OsxwibALTQP3JuWrnDsRcGQwLnzS/fnJwwLIE+nDglubKz8ZaN3N/0EGETgFbk2Iv56hiMjJwMp/iN4gCBE6cjRYmcnHiHsAlAO3Kx/66v3dVNrzyESwLnspplARYMp/PIzEd6OE73BmETgJakdYlMHqInJ8KVlZflMNYSpyNXddbNWcf7iQcImwC0Jsdft4+7vZ1jdYSDOeo4EylG5MTEfYRNANpr29+WyrE6wsUcdZxJ5Q8rh3Cc7i7CJgAjhI7VqVZHOBhridPp73yRV85xuosImwCMEqpWZ2cCZyOBk6bvOBUpQmR6mXsImwCMI78opAk8k0FwNkwZwulsuX3Lce6Cu4OwCcBIchRWOqnUYXcCZyJN34tqi1LpwYmTybjctbPXcpzugvgVK1ZE9LccevfQP37a/enUL6V+qXPgf4YmDv2k56Oe4Yq9TgCWeuf37yQc2HOg/R+n/2NgaOJQvg3wBRI4vz7r60Nf/8Xr3cePHeebBJ85cvBI0jnDz+n56mVfTWBVnF86jrMvkj8Y19fXF+k/muc4zo7B/qFTdehveL7h4LFPj322+yC/HI73Hu+V//7Rhx99ubuzOyXSLxIAhByVyg7WyHEjWQ+cknQzkCIzVgcDxQ+N71rZuDKJ9w5nmuM4tZH8wZiHzWjIhf+W+pb+v+HQnw91t/yx5ZAzIJwSTAGciRyVyhQZae4NnMpr61/rrrq+iklD+Jz07PTWO+vvDFq+KnaEzXANDKWhXdP9b+4f8nHrx8cP/fnQWBW/ZgCxk78mv2f6LdMTWXKcSsW8iva66rpUFgcD8b5B2Bw0Oc6XULr35b37uzu7E5peb+ptf799lPTq0+ylAIiA9FgsWF+QKvf1gJOVTytvlWkyLAxCOE4nbLpqYBCVHdH299uHHT5wOM2glwiAe5w4A/kdUJpT2i7TqVgnhFh+nE7YjAXp2Sc9tySEyj3Rzv/uTOKOKKA3ucdZ/EZxICMngyeJz5HAKf1apY0WK4MQi4/TCZt+Cd0Pbdrd1PHuq+9+3FLfwi4ooKGCJwu6ZWY2zw4DySbDfd+4r0t6LrIwcOw+TidsqkaO4gmggF7kHqeMMOSxYSAq1HGyrLys1qIdRbYdpxM2dSABVKrjm15vOvp+3ftBipEA9cidrKLaoiCFQxhoU/GmTpm7z6IgpHBjYVdufq5NbxSETR3J/c93Xnyn+91X323f++LeBHY/ATWkZKS03vDrG4Lc48RAtETCQAnnJPSs+WBNokUfTAmbJpD7n7L7+dbmt/5K+AT8ReEQTkaFOk5m2XE6YdNEhE/AfxQOYSAq1HGyoh1FjiVTyQibNhgYPhu2NtB2CYiRKYumtC5cv5AG3+gnFeqlk0pZDPRLSknqvLfp3mQLjtMJmzYK3fncVbmrlYIjwFtUqmMgKtQxkCUfSAmb+Pun7d1Vuw/+5//7z/iO5g52YQCXycShkvoSRlyi34bFG1p3Ve7ivRb9St4qcQy/403YxOcN3PVs2t1EhQPgEirVMdDKnJWtLQ0tBE70vzeUvV9m8vcCYRNnVr+l3nn1yVeb39v13nDuegLRoVIdIXKX/o7MOzq7OrrowQlnxq0zOueWzTX1e4GwifDJcfuOx3a01m2siyd4ApGRwDn/8fkOlepgpCVCDB9lSdhEZELB8+3fvX2M1krA4NEaCQ4FQxhAppDdWX+nicfphE1ET+55vvmrNztq7q8ZwpEQED7Dj84QJgqGEGLoKEvCJtzFUTswOLRGgkPBEE4wdJQlYRPeCQXPN6re+BK9PIHTk8BZsL6A1kgWo2AIIQb23iRsIjZCVe17fruHMlzgFOjFCSYMIcSw3puETcSWfHqv21jX/dIjLx05sOcAhUXAAAROUDAEx7zem4RN+EcKi1554pXOnU/sPM79TuDvZF7yzS/fnEwvTntVzKtor6uu4x6v5fLX5PdMv2V6ogGrQNiEGjhmB/4Hzd/tJidApTml7W372wicFpP3gTUH1wQMOOkgbEIt8ia784mdtFGC9QicdpOTn7u+dlc3xZV2y742++DSLUt1v3IWcdgc4v7XAjiOfIKbWTwz5aH2h5KLdhQ5E78zsZllgY0kZJRdWtbdWNvI87eQTJJZ9MyiiHd1YIaGrQ1pNr8HsLOJmJHdzm1l27jbCWsxbcheNHyHAcVC7GxCfbLbKVNWHj78cMqSzUucMRPHHOSxwSZSnSxVyjx0+0i/RelSYPs62KyjuSO4/YHtPTYuATub8JXcZ3ruxucOvv27t7/MnSbYgh1OO8npzvLRy3t6P+k1oTIZEdC8WIidTehJ7jPJpWn54Ztz35wOaRfDo4Tp2OG0kwSMZduWETQtJpsqT1/3tHWnevErVqyI9M+OcxznOne/HNhqaOJQ58KpFwZm3jozMSU9pbv1L63tHx36aDjfEDDVH5//41D5Xr8g94KhPGR7yAfsT3s+7Xxv13uETksd/NPB4V/L+1r/94Jmfuk4zr5IvmSO0aEsqdyrWVNDz04YbcatMzrlLjNP2S4rc1a2tjS0UDBkKU2LhThGh3my8rKcn77w04xVf1nV36OMRwwT1ayuSZZJMzxcuyzdsjQo9/dsXwdbSbGQTVdpCJtQXuhe50MdD/XvAvEGDdPISEMCp13ov4lnf/JsnBSN2YCwCW2EWidJMRGhE6YhcNonNz83acqiKa22r4OtpCvBxls2WvH8ubMJrckxRPXPqo8yEhOmyM3PbS/cWMgsbYvcPu525qdbTK6KaVIsxJ1N2El6FcpITOlbSNskmIAdTvsU1Ralxg+Nt+M8FV+wdvZa43c3CZswAqETJiFw2kV2tRasXRBn+zrYSroSmD43nbAJoxA6YQoCp13kvUuuUNi+DrZaN3ed0b+vCJswEqETJiBw2qVgfUEq71d2kroDk+emEzZhtIGhM+GcBGN/kGEuCZybijcRQCwgHTdufvlmih0ttfWOrX2mtkJiXCWsICMBp/1kWoLjOJ3739zfd/zYcUYEQhsy2pDRlnZIHp3MOEtLye+lj1s/bs3+XnaSoisQ8bhKdjZhjZP7dFL9CZ1UXV8VsGniiM3kfSo9O53+mxbaVbkr2LavzbgXTtiEdUKhc2XjyiTGYEInBE57yDhLPhDbycRWSIRNWCs0BlMa6rKLAF0QOO1AOyR7mdgKibAJ68mb+p31dwaLdhQ5KRkphE4oj8BpBylwzMrL4j3JQk8tfMqo507YBE7Iystyyt4vC9IuCTqQwNlc38yzMtySzUuCvB/Zp6O5I2jSB0rCJnAS2U24t+neZIqIoLqyS8u6CZxmkzvmSzYtoR2Shap/Vn3UlFZIhE3gFCgigg56j/YGCJzmk1OXKYumcJxuGWn0vq1smxG72oRN4AxCRUTc54SqCJx2mPfAPI7TLfTSQy8NM2F3k7AJhCF0nzN/TX5PwrAECjOgFAmcj3/v8VZTp4+A6UK2kp/tp697WvvTNcImMAjTb5meKE3hOdKCaqSgoDSntJ3Aaa6MnAxH7pLbvg62adjakKZ7o3fCJjBIssOwcP3CYMlbJc6YiWO4zwlltO1vSyVwmk3uknOlxz7P3fic1r9rCJtAhGSX4ef/9fM0jtahEgmcVYur2nko5rrh1zcEbV8D28jups6N3gmbQJRCR+tUrUMVddV1qRXzKgichuI43U7P/vRZbX/HEDYBF8jReqhqnYpRqEAC56biTXwvGorjdPsc2HNA291NwibgIqlaf6j9oWR2HaCCmtU1yYy1NBfH6fbRdYwlYRPwgOw6UEAEFchYy7rqOiqGDMRxun10HWNJ2AQ8MrCAiLGX8FPlgso4mr6bieN0+8gYS91eNGET8JgUEMnYy/TsdH4hwBehKUO69+rDqXGcbhcZY6nb7iZhE4gBGXt5Z/2dQXY54RcJnOV55fTgNBDH6faR3U2dfpYJm0AMscsJP4WavvMQzMNxul1kd3Nb2TZtPmAQNoEYY5cTfpLASQ9OM3GcbpeXHnppmC67m4RNwCfscsIv9OA0kxynT1k0hfcTS8jVGF12NwmbgI/Y5YRf6MFppnkPzAsyWMIeuuxuEjYBBYR2OUeOHcnxJmJGenDSEsksMs1syaYlybavgy102d0kbAKKkF3OVftWpVJViliiJZJ5ZJJZ9rXZDJSwhA67m4RNQDGh6UMchSEWaIlkpuuevi4t4ZyEHtvXwQY67G4SNgEFyUX/e5vuTc7Nz+VYHZ6TCvV1c9ZRWGIQOU5f9G+Ljtu+DraQO9gqn1AQNgFFyS+Lwo2FqYUbC7sShiVQyAFPNdY2Bjcs3kDgNEhufi7dLizy3I3PKXt1grAJKE5+Ydzzp3sCFA/Ba7sqdwWpUDfL0i1Lg3S6sEPD1oY0VXc3CZuABigeQqxQoW4Wee+4+uarP7V9HWyh6u4mYRPQiBQPFe0ocrj4Dy9RoW4WRlnaQ9XdTcImoBlpa7LmgzWJ3MWCV6hQN8+PNvyIUZaWUHF3k7AJaEiKh2TyEMfq8IpUqFctruKesCHovWkPFXc3CZuAxjhWh5dkhvr2B7bzvWWI/t6bdLawgmq7m4RNQHOhY3Wq1eGF6uXViY21jaytAeRE5Np7r42zfR1sILubKl2DIWwCBpBfIlKtPmXRFO5xwnWPzHiEgiFDTL9leuKYiWM4TreASlOFCJuAQRauXxgseLKgm756cBMFQ2b5UdWP0mxfAxuoNDOdsAkYZuriqYHb/nBbErPV4SYKhswh43A5BTGfSjPTCZuAgUKz1bPysviFAtdIwRAThsww74F5QQoLzafK7iZhEzCU3OMs2lFEeyS4iglDZpD3h/mPze+zfR1Mp8ruJmETMJy0R+IeJ9z04JUPdnJ/U39y5YZiIfOpsLtJ2AQswD1OuKmroyu5PK+cKxoGmP/ofIqFDKfC7iZhE7BE6B4n/TjhhpaGluCm4k18eNEck4XssPOJncf9fKGETcAioX6cufm5BE5ErWZ1TTIN3/XHZCHzdXd2p/hZ3EfYBCxUuLEwNX9NPpWoiNojMx/p4f6m3pgsZIfqn1Uf9euFEjYBS8kkkcKNhV3saCAavZ/0JnJ/U3/yfsCdbrPJXWu/djcJm4DFcvNzk4rfKA7wSwbR4P6mGZZsWpJs+xqY7jf3/OZvfrxEwiZgOQqH4Abub+pPioXSs9PZpTZYR3NH0I+fU8ImgP47WyX1JRQOISrc39Tf0i1Lg7avgeme/emzMe8+QNgE0E8CpxQOETgRKe5v6m/kuJHMTTfcgT0H0mK9u0nYBPA5Ejhl4hCrgkhwf1N//XPTKRw0Ws2ampjOnCVsAvgCmThE4ESk5P4m89P1RSsk8+357Z6Mtn1tMXudEYfNfX/YN1y2YbkQDphJAmfJWyUOOxyIBPPT9UYrJPM9d+NzMbu7GdfX1xfRHyyMK8xzHGfHYP7MqAtH7R/4v4cHhw8Ze8nYz0YopX89fdSoC0cF5L8HRgT6q2QB+Et2qMoml/XIfTweBQYjKy+rtWhHEQUnmqqrruuqmFeRZPs6mEo2EtYcXBOQnewwTXMcpzaS5Yhp2IxUIDnQce555x4ZkjAk4eJ/ubjXGRBM5TKz/AeAd2SHqjSntL1tf1sqy4zBkOsYskvOounp7n+6+6AUlNi+DqaaceuMzrllc8Ptr2p22AxHKJCOyho15Lyvnnd8/JXjx0pal75hAKJH4EQk4ofGd61sXJnEpoCe5Kpc+bRy25fBWLK7+fgnj4f7YZCweSaymKkXpB7KvCwzYXhweEL2rOw0dkSBwZPAKa1tpOKY5UO4ZGDAqn2r+JCiqbWz1x5s2NrA7qahBnH6QNiMxMAQev7F5ydlTs5MYScUOLuKeRXtddV1hAeEbZDHdVCIVC3f/g+380gMJYVgD7U/FM7PJmHTTSPGjDiYnpN+9KLLLxpOAAVOjcCJwZLuBhR+6mnD4g2tuyp3caJhqKIdReFcOyRsek0C6Pirx/dedPlFqRdffXGAI3iAwInBkR0UmcM/iOpXKEKu0CxPW97de7SXYi8DjZk45uDP/+vnZ7sqQdiMNSlIOv/i8z/OvjZ7+ISZE1L4tA5bybQYaeLNNwDCIaMQF65fyA6ZhvhZN9uqv6w6Wy0LYdNvcv/zgtwLWgmfsNFr61/rrrq+ih0PhKVwY2FXbn4u25uakd3NOzLv6Ozq6CJwGij72uyDS7csPdPuJmFTNaHwOWXRlCDH7rABgRPhSjgnoWfNB2sSOU7XDz/n5gqjyXvEYZPZ6B6Rey1Nu5sy5IdSqvhuHHFjxy/+9Rd/rd9Sb+TrBZinjnDJNKp1c9a1smD6kZ9zxliaSXLLtrJtnjxbwmaMdHd2p+zesPsr6+ask11hZ/U3VzdvK9vWEctB+IDXCJwIV2NtY1DGIbJg+sm/P3+Y7Wtgqp1P7DzuxUvjGF0BKRkprf/8v/752OSCyWnc9YQJOGpDODhO19ft425nmpihztDknWN0nXU0dwRffPDFtNJJpf3H7dLPrLm+2fZlgcbY4UQ4OE7X13VPX0fQNNRLj7x0xO1XRthUjBy3S+Ncgid0R+BEODhO15M0AJfejLavg4kO7DmQ5nbuIGwqjOAJ3RE4EY7KH1YOkbY60Mv8R+czL91Qz6943tUPEoRNTQwMnjel3tRJcRF0QeDE2XCcrid2N83VsLUhzc0PgIRNDUlD3c23bU6Rlkp3/9PdB6UYg10BqIzAibPhOF1P7G6aa+cTOzvcenGETc3J3Qqp+pWZtY9e82hzY22j7UsCRRE4cTYcp+tHdjfTs9PZlTZQzf01rmVEwqYhpBnrnt/uySifVv7ZMTtv2lANgRNnwnG6npZuWcqsewPJKapbg2gImwYKHbPflHKTw24nVEPgxJlwnK4fGccsc7VtXwcT1ayucaUqmbBpOHY7oSIJnLn5ue08HJxK1fVVn/JepZfvP/x97m4aSMZuu1GMTNi0RGi3U+52rp299iCV7PBb4cbCVAInTkXerzbespHjdI2wu2muF0pfiPpnkbBpGbnbKS0NQpXsHLHDTwROnI60euP9SS/sbprpjao3vhTtCyNsWkwq2UNH7NI+yfb1gD8InDiddXPXdbI4+mB300yySRVtRiBsov/ISton3XDODd2bijd1clcKsVawviB15NiRBE58jrw3yXsSq6IPdjfNFO28dMImPiOfXmpW1yTLvU4Zjcm9TsRK0ogkp6S+hMCJL5D3JN6L9MHuppnkJHR31e7Rkb44wia+QEKn3JeSe50UEyFWQoEzJSOFwhB8ztrZa/me0Ai7m2b6xcJffBDpCyNs4oxCxUSETsSCBM4bfn1DMGFYAneI8ZmWhpYg98r1IbubmZMzXenPCDMQNhEWQidiJSMnwyl+ozhA4MRAz/7k2Tjuk+tjzn1zMmxfA/wPwiYGhdCJWJDAuaxmWYDFRoiMsqT3pj5kZvqYiWO4u4l+hE1EhNAJr8kvK8ZaYiB6b+pl/qPzubuJfoRNRGVg6OSIC26TsZYzbp1B6xt85qmFT7G7qQl2NxFC2IQrJHRKyyT6dMJtc8vmJtP0HSEdzR3B7Q9s72FB9MDuJhzCJtw0sE8nvwzgJpkylJ6dzo4W+m29Y2sfH2r1ILubtDMDYROuk9BZvbw6UcZg1lXX8RsBriiqLQrS9B3OifeYp697muNZTXz3ru9GPVsbeiNswjMyaq5iXkXS3f9098HmelquITrSg7OotiiVlkhwTlzdoVhID3L3OiklibvXFiNswnMy5qp0UilFRIiaNIuWHpzxQ+P5RgLFQhrJvz9/mO1rYDPCJmJmYBERq45ISQ/OBWsXxLGAkGIhJgvpQXY3A8mBDtvXwVaETcRUqIhI7nNyBIZI0RIJIUwW0scVP76CzGEpHjx8Ifc5y6eVO+XTyltpCo9I0BIJDpOFtDKzeGYyd67tRNiErxprG4N3Zt3ZRaskRKJgfUEqFeqQyUJ8aFWfFPldWnDp32xfBxsRNuG7Y58eS5JWScUXFLdytI7BoEIdIWtnr2V3UwPXlFwTtH0NbETYhDLksr8crW9YvKGVO1gIV6hCnQWzW0tDC3PTNSA/r9nXZtMj1TKETShHjsTuyLyDhvAIm1SoFzxZwO6m5dbNXUfRmAZmrZjFCEvLEDahpFBDeCkgYpcT4ZAKdQqG7CbvG7RCUp98OBwzcQy7mxYhbEJpUkC0fPTyHnY5EQ6ZoU7BkN1ohaSH+Y/OZ3fTIoRNKE9am7DLiXCV1JekJpyTQHcDS8n7xbaybRynKy4rL8thhKU9CJvQBrucCIdUqC/btiyRxbKXDI6gFZL6GGFpD8ImtMIuJ8Ihuyb5a/LZ3bTYczc+x51AxeXOyw3QtswOhE1oSXY5pWKdVic4nem3TE/Mysui96KlGrY2pDXXN9u+DEqTU4irbrrqqO3rYAPCJrQVGnkpfTl5ijiVJZuXBFMyUvj+sNRTBU+xu6m4b/34W8m2r4ENCJvQnvTllOlD7GLgZLJzcsOvbwjGD43nzoWFDuw5kMbph9qkyfvE70zkzdtwhE0YQaYP3feN+5ixji+Qnn4L1i6IY2Xs9NTCp9jZVtyM5TMybF8D0xE2YYzQjHWKh3AyGr7bSz6I0uhdbVLQx3UXsxE2YZxQ8RDH6hioYH1BKr/Q7FT9s2qKUBT33bu++yXb18BkhE0YSYqHSieVOhyrI4T7m/ZijKX65PSBNkjmImzCaByrYyDub9qLMZbqow2SuQibMB7H6hiI+5t2Yoyl+miDZC7CJqwgx2hSrc5RGpwT9zeZy2yflx56aRi7m+qSNkiZkzPZFTAQYRPWkGr1quurAhXzKtjVspzc37z55ZvZRbFM79HeALubaptz3xzaIBmIsAnr1FXXpd4+7vZ2djjsJvc3Z9w6g+BhGXY31SZtkDh1MA9hE1Zq29+Wunz08h7ucdptbtnc5PTsdNohWYTdTfXN+NmM47avgWkIm7CWFAxIeyTucdpt6ZalQVqu2IXdTbVd8eMrUmxfA9MQNmE9uce5YfEGdrcsJUUJi55Z1Gf7OtiE3U21yZ1q5qWbhbAJOI6zq3JXcGXOSvpxWio3PzcpKy+LDxwWqVldk9y2r832ZVAW89LNQtgETmhpaAmW5pS28wvITks2LwlSmGCX52587qDta6AqCoXMQtgEBpDCobu+dlc3hUP2kaO7JZuW0A7JIg1bG9L4cKkuCoXMQdgETiL3uSgcspPspkxZNIXjdIu88sQr7J4pikIhcxA2gdOQwqHtD2zvYX3sMu+BeRynW4TKdHVRKGQOwiZwBtXLqxOZOGQXjtPtQmW62igUMgNhEzgLmTgkgZPdD3vIcTrThezB7qa6KBQyA2ETCIMETqlU5xeSPWS6UEpGCvc3LcDuptooFNIfYRMIk1SqEzjt8qMNPwravga2YHdTXRQK6Y+wCQwCM9XtQnW6PdjdVJfco86cnMmbrsYIm8AgyUz1skvL6MVpCarT7SG7m7avgapm3EqhkM4Im0AEZBeEwGkHqtPtIT/X9NdVU87sHCdhWALPRlOETSBCocDZWNvIEhqO43R7VP+s+qjta6CqSwsu/Zvta6ArwiYQBQmc5dPKmTZkATlOTzgngSb/huvq6Erm51lN15RcQ8GepgibgAtk2hC/oMwmx+mL/m0RLVgswO6mmkaOG+nQjkxPhE3AJQRO8+Xm5yZl5WXxy85wsrvJ9Rg15S3Ni7d9DXRE2ARcROA033W/uC4YPzSehoyGe/anzx60fQ1URM9NPRE2AZcROM0mR3mzV83mvdNwB/YcSKPbhHrouakn3jABDxA4zTb9lumJ3B0z3/Mrnmd3U0H03NQPYRPwCIHTbIyyNF/D1oa0tn1tti+Dcui5qR/CJuAhAqe5pPdm9rXZ7HwZ7oXSF9jBVtCEb084Yvsa6ISwCXiMwGmu656+Lo3em2Z7o+qNL3Udph5MNbNWzEqzfQ10QtgEYkACJ61UzCPFCvMfm99n+zqYTAY31G2s48OiYjJyMpxAcqDD9nXQBWETiJFHZjzCLHUDTV08NTBm4hiO0w1Gk3c15c7LPWb7GuiCsAnESGiWOoHTPPMfnc+RnsGkyXv9lnrbl0E5034yjSI9TRA2gRgicJqJYiHzbb1zK89XMXKUTgsyPRA2gRiTwPnglQ92UnRglv5iIdqxGEuavNMGST2Mr9QDYRPwgRzLleaUthM4zSHFQlfddBV3+wz23I3PsbupmEt+cAnjKzVA2AR80ra/LZXAaZa5ZXOTk1KSOm1fB1O9/bu3v8zPq1pkfCxH6eojbAI+ksBZtbiqnWdgjiWbliTbvgamkiswO5/YSbsdxXCUrj7CJuCzuuq61Ip5FQROQ0ixEK2QzFVzfw2/NxXDUbr6+KEBFCCBc/sD25lEY4gfVf2IVkiGog2SejhKVx9hE1BE9fLqRMZamkFastAKyVw1q2voXaYYjtLVRtgEFPLM0mf66MFpBlohmatpd1MGbZDUwlG62gibgEKOfXosSZq+84tMf7RCMtsrT7xC1wGFcJSuNsImoBipeC3PK6clLQTbJQAAFGFJREFUkgFmFs9MTjgngbu4Btr5xM7jtq+BajhKVxdhE1CQtERaN2cdn9I1J7ub8x+b32f7Opiou7M7hTvWauEoXV2ETUBRjbWNwQ2LNxA4NTd18dQAjd7N9NIjLx2xfQ1UwlG6ugibgMJ2Ve4Ksnuiv/z784fZvgYmYl66ejhKVxNhE1Bc1fVVASrU9Sa7mzR6N9MLpS+wk6YQjtLVRNgENFA2uayHgiG9zX90Po3eDVS3sY6dNIVwlK4mwiaggd5PehNLc0oZaakxxliaSQqFmCikFo7S1UPYBDQhFerMUNcbu5tmYqKQWibMnMBRumIIm4BGZIY6BUP6YnfTTEwUUouMiw0kBzpsXweVEDYBzTDSUm/sbprpzV+9SbhRSO683GO2r4FKCJuAZmSk5YNXPthJwZCeZHcz+9psdjcNU3N/Db9PFTLtJ9OCtq+BSvjhADTU1dGVzIQhfX3/4e+zu2kY+ZnkxEEdcpSeMCyBK0eKIGwCmpIJQ9sf2M7cbQ1JexZ2N83z/IrneaYKGX/1eD6QK4KwCWisenl1IrspemJ30zxv/+7tL9u+Biq5/PrLM2xfA1UQNgHNcX9TT+xumqf3aG+AbhHqkPvRUANhE9Ac9zf1NWvFLHY3DbOrchc/i4pIGpHkZE7O5OhHAYRNwAByf5MdFf1IEQN9N80iPTc5aVBH9rXZw21fAxUQNgFDSP9NGkvrh76b5tn5xE56birikh9cwjQhBRA2AUNI/83yvHLGWWqGqULmqV1bS0NxRcjd6BFjRvDz5TPCJmAQmZ++qXhTJ89UL+xumqWjuSPIKYM6Jnx7Qrzta+A3wiZgmJrVNcmNtY08Vo2wu2meF0pfoFBIEZP/92SmCfmMsAkYaN3cdbRD0sxVy66iR6NB6jbWsZumCPkwxzQhfxE2AQNJO6SNt2xkZ0UjUxdPDSSlJHEFwhDdnd0pDFxQxwW5F/B+6CPCJmCoXZW7gnXVdWxvaiT//vxhtq+BSXY8toOAo4gpi6ZwlO4jwiZgsMofVg7hOF0fsrvJcZ85OEpXx8VXXxywfQ38RNgEDNb7SW8i04X0ctVNVx21fQ1MIUfpFOupgRZI/iJsAoaT6UIcp+tjZvHMZHY3zVGzpoaLm4oYf/X4XtvXwC+ETcACHKfrQ+Y5T/j2hCO2r4Mp9r64l7uCipg0Z9JXbF8DvxA2AQvIcTrV6fr4/sPfp8m7IXqP9gbqt9TbvgxKyJmdY/sS+IawCVhCqtO5P6YHuV+WOTmT41dDvPrkqzxLRYweP/qvtq+BHwibgEVo9q6POffNybB9DUzBUbo6vvmv30yyfQ38QNgELCLN3reVbaNxuAZk6glN3s3AUbo6JsyckGL7GviBsAlYRmanM9lEDzR5N8dbm9/i+FYBGTkZjK70AWETsNBTBU/Rb04DNHk3R8PWBo5vFcHoytgjbAIWOrDnQNr2B7b38OzVd2nBpX+zfQ1MwKx0dTC6MvYIm4Cltt6xtY9iIfVdU3INvxgNwax0NTC6MvYIm4ClpGjh6eue5jhdcbRBMgez0tUgP1OB5ECH7esQS4RNwGINWxvS6L2pvhm3zqANkgE4SlfHV6d89WPb1yCWCJuA5Z5a+BRHe4qTySfsxJjh7W1v8xwVMGnOJK6nxBBhE7BcR3NH8LX1r1HxrLgrfnwF79cGqF1be8z2NVAB9zZjizcvAM6zP3k2jmIhtc0snpls+xqYQD7cte1rs30ZfMe9zdgibAJwej/pTWSykNqSRiQ5E78zkQt/BnjnxXc4SVAA9zZjh7AJoJ9MFmLHRW2XX385hUIG2FW5i3vSCuDeZuwQNgF85un/8zS/BBVGoZAZmnY38aFBAdzbjB3CJoDPNNY2BmmFpDYKhcxQv6Xe9iXwHfc2Y4c3LQCf8+xPn6XRu8K+9eNvUShkgLc2v/VX29dABdzbjA3CJoDPkbnptEJSFxOFzNCwtSHJ9jVQAfc2Y4OwCeALqn9WfZRVUdeURVP4Bak5pgmpYez/N5Z7mzFA2ATwBV0dXcnbH9jew8qoaeriqYGEYQnsPmuOaUL+y8jJcPhZ8h5hE8Apbb1jax+N3tU14dsTjti+Brr791/+Oz9gCrgg9wK6cHiMsAnglHqP9gZo9K6uWStmpdm+Brr7YO8HX7F9DVSQfW32cNvXwGuETQCn9dJDLw1jd1NNcvxH2xb90QLJf5mTM1NsXwOvETYBnBa7m2qj56b+aIHkv6y8LNuXwHO8UQE4I3Y31UXPTf3RAkkNoy4ctd/2NfASYRPAGbG7qS7puZmSkUJxg8akBVLbvjbbl8F3mZdlJli+BJ4ibAI4K3Y31ZW3NC/e9jXQ3TsvvkPrHZ9NmjOJYi0PETYBnBW7m+q64sdXUNyguV2Vu9id9pkU3ME7hE0AYWF3U01JI5IYX6m59+veZyKUz+RKCt0dvEPYBBAWdjfVxfhKvcnPFqMr/Xf+xed/bPsaeIWwCSBs7G6qKXdeLvOdNcfoSv9lXpY5zPY18AphE0DY2N1UE0fp+mvY2sCums+yZ2UzlcsjhE0Ag8Luppo4Stcb9zb9R3N37xA2AQyK7G7ufGInR36K4Shdb9zbVMOIMSMO2r4GXiBsAhi0mvtreO9QDEfp+ttdtZug47P0nPSjVi+AR/iFAWDQujq6kl9b/xqNqBXDUbre9vx2T6/ta+C3iy6/aLjdK+ANwiaAiPzmnt/8jZVTC0fpevvwvQ9p0O+zzMmZPAMPEDYBRKSjuSPYWNvI4imEo3S9Hfv0WBL3Nv1FkZA3CJsAIrb5ts38ZlRM9rXZHANqjH6b/qNIyH2ETQARa9rdlNG2r40FVMglP7iEY0CN0W/TfxQJuY+wCSAqz934HLsACpEZzykZKa22r4Ou6LfpP4qE3EfYBBCVt3/39pdp8q6Wbyz4xlDb10BX9Nv0H0VC7iNsAogKTd7Vc8kPLkm2fQ10tv8/9tNWzEcUCbmPsAkgajR5V0tGToYTSA7wAUBTb21+i2sQPqNIyF38ggAQNWnyThsktWRfm83dBk29t+s97gz6LPWCVIqEXETYBOAK2iCpZdKcSV+xfQ101d3ZncI9aH9lXpY5zObX7zbCJgBX0AZJLTmzc2xfAq1xUuCv7FnZaTa/frcRNgG45pUnXulkNdXBNCF97X15737b18BP6Tnp9r54DxA2Abhm5xM7j7Oa6mCakL7e+f07CbavgZ9k9GvCsAS6AriEsAnANXLXrH5LPQuqCKYJ6euDvR9w59Znwcxgu9UL4CLCJgBXvfrkqxzdKkKmCdECSV80d/fXxf9yca/Nr99NhE0Artrz2z0ZVNKqgxZI+qK5u7/Sv54+yubX7ybCJgDXMVFIHbRA0hfN3f016sJRAZtfv5sImwBcV7u29hirqgZG7+mrpb6FXo8+4mfHPYRNAK7raO4Ict9MDVJVm5KRwg6Zhg4fOEyvR59x59kdhE0Antjx2A4CjiL++X/9MzvNmqK5u7+Sz0/mzrMLCJsAPFG3sS6elVUD01D01bS7iZ01H1GR7g7CJgBP0HNTHdw909e7r777se1r4Ccq0t1B2ATgGXpuqmP0+NF/tX0NdESRkL+oSHcHYROAZ/a+uDfI6qph4ncmMv5QQxQJ+YtTAXcQNgF4pvdob4CjdDVwb1NfFAn5i4r06BE2AXiKo3Q1sEOjL4qE/HXueecesfn1u4GwCcBTHKWrg3ubevrvd/6b9js+yrwskysoUSJsAvAUR+nq4N6mnppeb6L9jo/Ov/j8JGtfvEsImwA8x1G6Gri3qadDfz401vY18FPm5MwUe1+9OwibADzHUboauLepr7Z9bbYvgW9Gjhtp6St3D2ETgOc4SlfHiDEjDtq+BjpqrudwwC+EzegRNgHEBEfpahh/9Xju/2lo78t799u+Bn4adeEo1j8KhE0AMcFRuhomzZn0FdvXQEf739zP72sfDQ8OZ/2jwOIBiAk5Suco0H8ZORm2L4GW2t9vZ2ylj8ZeMva4tS/eBYRNADGz47Edray2v+T+GRNR9MPYSn+lfz19lM2vP1qETQAx8/bv3j7Gavvv/IvP/9j2NdARJwP+GXXhqICtr90NhE0AMSO7M7Rw8V/mZZkcyWqInx3/UJEeHcImgJh681dvcoTrM5q764mKdP8QNqND2AQQUw1bGzjC9RnN3fVERbq/6FEbOb5xAcRU0+4myqEVwC9O/VCR7q9hScN6bH790SBsAoi5xtpGFt1n6TnpR61eAA1Rke6vCd+eYPPLjwphE0DM7f6/u2mB5LOLLr9ouNULoCmKhPwTPzQ+0dbXHi3CJoCYowWS/zInZ6bYvgY6Imz6h8K6yBE2AcScHAd2He5i4X1EkZCeGp5v4K4ttEPYBOAL7m36j0lC+vm49eNe29fAL3xAixxhE4AvXn3yVcah+IxJQvpper2JsAntEDYB+OK9Xe9RoOIzJgnp56MPP/qy7WvgJ1qGRYawCcAX3Z3dKRQ7+IuCB/3Iz43ta+Anem1GhrAJwDfvvPhON6vvH0bw6am5nhsofsm8LDPBzlceHcImAN+8++q77ay+fyRsJgxLIPBrpvswj8wvgeQAd2YjQNgE4Ju9L+5ll8BnqRekHrJ6ATRE+yP/pH89fZStrz0ahE0AvqHfpv84FtTPsU+PcW/QJ6MuHBWw8oVHibAJwFf02/TX+Refn2Tz69fRO79/hw8IPgmMIGtGgrAJwFd7X967nyfgH8ZW6qfnSA9h0ycZORlWvu5oETYB+IpdGn+l56Tb/PK1JNdPbF8D6IWwCcBXH+z94Cs8Af8kjUiiIl1D3HX2z6gLR3EaM0iETQC+o2+gv6hI109LfYvtSwCNEDYB+G7/f+xnZ81Ho7JG8bsACBM/L4PHggHw3R9/88cjPAX/jB4/mhnpmqHXpn/O++p5x2197ZEibALw3f43uQLlJ2ak64dem9AJYROA76iu9Re9A/VDFwf/jL9y/FhbX3ukCJsAlECRkH/oHaif473HmdHtE+nggMEhbAJQAkVC/gokBzpsfv26aX+/nRndPuEkYPAImwCU8O6r77bzJPxz7nnnUqSlkd6jvSQen3ASMHiETQBKaHq9iWNBH2VelskdQM207WuzfQmgCcImACUc+vMhLt37KJAcIOxrhrDpH6ZuDQ5hE4Ay+OXpHypsgfAxdWtwCJsAlEHY9A8VtvqhsTt0QdgEoAx+efonPSfd1peuLRq7+2d4cDj5aRBYLADK+GDvB0d5Gv5gZ1M/3Z3dFHX5ZOwlYxlZOQiETQDKONR4iDdwH40YM4KdZY3QwQG6IGwCUAYV6f4aljSMY1kgDPFD4xNZp/ARNgEopetwFw/EJ6OyRvE7QSMfffjRl21fA79kz8pOs/OVR4Y3FgBKaalv4YH45Lyvnsc1Bo10d3an2L4G0ANhE4BSmnY3MaPbJyPGjGCnDIDrCJsAlHL4wGFmdPskc3ImO2WaoTetP0aOG2njy44YYROAUt75/Tu0cwHCRNj0B2FzcAibAJRyvPc47Vx8kpWXZeXrBuAtwiYApdD+CAjfoT8f6ma5oDrCJgDgMwnDEggvGmn5Y8sh29fAL4HkAMWMYSJsAlBOY20jD8UnqRekEl6AMJx73rkUM4Yp4rBZ0VdRG+svFgAAAHphZxOAchqeb2BGt0+YIqQXujcghuoj/aeifVPZz1MG4LZjnx5jRrdPmCKkF7o3+Gd4cLhVH8wq+ioOR/pno12ofVH+eQD4gv1v7md3DYDSxl4y1qYPZg3R/OFo39C5twnAdR+3fszumk/Sv54+ysoXDuBMIj5Cd1wIm1H94wBwKh99+BEzun0y6sJRAStfuKboS4sYiWpzkZ1NAMrp7uxmRjcAqMO/sHnisuhWvhkAAIBN4ofGJ1rycvdX9FVEVaPjxiX8LS78HQDwOc31zSyID5iPDoQne1Z2miVLFXXOI2wCUFL3YaYmAuHoOtzFOsFLD0f7d0cdNk8cpf+SxwwAQOy11Lew6vDKK9EeoTsuThCKOvUCwEBNu5s6WBAA8NUKN/5xV8JmRV+FtEB6xY2/CwDE4QOHj7AQ/hh14SimwwGQXU1Xug65OaXjOhf/LgAAAPjHlV1Nx82weeJM/xG3/j4AdvvwvQ8ZWQlAWek56SY/nK1u7Wo6Lu9sOidSMMcvAKJ2qPEQIyuBMBz68yFaN/ggaUSSqS+t03GcG938C10Nmycq0zlOBwCNDUkYksDz00fLH1sO2b4GcNWNblSgD+T6MdWJbde73f57AQCxcfG/XNzLUgNW+mVFX8XTbr9wT+5EVfRVrGCMJYBoHO06assoOABQQYPbx+chXl7Av+7EFw4Ag3b4wGFbRsEBgN8kr+WduA7pOs/C5okvOI/ACQAAoCxPg6bj8c4mgRMAAEBdngdNx+uw6Xw+cDI/HQAAQA2vxCJoipi0twi1RCqMK5Sxlg/F4t8EAEQmfmg8xVmA2e4+UcwdEzGd0FHRV/Gw4ziTOFYHEI6uw12skw+yZ2VTnKURpm35J5Ac6NDsS5bBO9NiGTSdWIdN5++Bs76iryLnRC/Ozlj/+wD00VLfwtMCzoJpW/4597xzj2jypXaeyF05bo6hDJdvn4ZOpOpxhE4AAADP/PJEyFwRi/uZp+LrSLITL3pFYVzhwyf6ckoz0bF+fk0AAACak+NymQT0sF8BcyAl5t+eWAgJnA8XxhXmnAieUsGercCXBwAAoDqph5Ej8qflyqJKX6sSYXOgEwvUPy6pMK5whGz9ngieof8OwBJDEoYMdxznY553bLHuejl31LlHHcfZZ/s6+EHW/tCfD/m19pKXDp8ImPUq7GCeTlxfX5+aXxkAAAC0R7sEAAAAeIawCQAAAM8QNgEAAOAZwiYAAAA8Q9gEAACAZwibAAAA8AxhEwAAAJ4hbAIAAMAzhE0AAAB4hrAJAAAAzxA2AQAA4BnCJgAAADxD2AQAAIBnCJsAAADwhuM4/z+DfeZXkImKhAAAAABJRU5ErkJggg==;fontSize=8;fontStyle=1;fontColor=light-dark(#660066, #25a599);" vertex="1" parent="1">
                    <mxGeometry x="390.05" y="386" width="70.95" height="70" as="geometry"/>
                </mxCell>
                <mxCell id="63" style="edgeStyle=none;html=1;strokeWidth=2;strokeColor=#009587;entryX=0;entryY=0.5;entryDx=0;entryDy=0;" edge="1" parent="1" source="57" target="62">
                    <mxGeometry relative="1" as="geometry">
                        <mxPoint x="150" y="429" as="sourcePoint"/>
                        <mxPoint x="240" y="429" as="targetPoint"/>
                    </mxGeometry>
                </mxCell>
                <mxCell id="64" value="&amp;nbsp;SEND&amp;nbsp;" style="edgeLabel;html=1;align=center;verticalAlign=middle;resizable=0;points=[];fontStyle=1;fontSize=14;fontColor=#009587;" vertex="1" connectable="0" parent="63">
                    <mxGeometry x="-0.0783" y="1" relative="1" as="geometry">
                        <mxPoint as="offset"/>
                    </mxGeometry>
                </mxCell>
                <mxCell id="65" value="&lt;font style=&quot;color: rgb(0, 149, 135);&quot;&gt;Sleep&lt;/font&gt;" style="image;aspect=fixed;perimeter=ellipsePerimeter;html=1;align=center;shadow=0;dashed=0;fontColor=#000000;labelBackgroundColor=default;fontSize=8;spacingTop=0;image=img/lib/ibm/management/push_notifications.svg;fontStyle=1" vertex="1" parent="1">
                    <mxGeometry x="532.54" y="386" width="66" height="66" as="geometry"/>
                </mxCell>
                <mxCell id="66" style="edgeStyle=none;html=1;strokeWidth=2;strokeColor=#009587;entryX=0;entryY=0.5;entryDx=0;entryDy=0;" edge="1" parent="1" source="62" target="65">
                    <mxGeometry relative="1" as="geometry">
                        <mxPoint x="543" y="309" as="sourcePoint"/>
                        <mxPoint x="471" y="309" as="targetPoint"/>
                    </mxGeometry>
                </mxCell>
            </root>
        </mxGraphModel>
    </diagram>
</mxfile>